<svg xmlns="http://www.w3.org/2000/svg" xmlns:xlink="http://www.w3.org/1999/xlink" width="76" height="76" viewBox="0 0 76 76">
  <defs>
    <clipPath id="clip-path">
      <rect id="Rectangle_53" data-name="Rectangle 53" width="76" height="76" fill="#bda9dd"/>
    </clipPath>
  </defs>
  <g id="dataforeningen" clip-path="url(#clip-path)">
    <path id="Path_662" data-name="Path 662" d="M51.684,25.54c0,1.155-.206,2.962.463,4,.76,1.184,1.842-.813,1.842-1.541V19.732h-.064C52.185,21.216,51.684,22.321,51.684,25.54ZM65.629,8.926H40.969a1.109,1.109,0,0,0-1.11,1.111V34.7a1.11,1.11,0,0,0,1.11,1.112h24.66A1.113,1.113,0,0,0,66.745,34.7V10.037A1.111,1.111,0,0,0,65.629,8.926Zm-9.5,22.295a2.178,2.178,0,0,1-1.865-1.2c-.884,1.007-2.39,1.672-3.557.747-1.193-.945-1.325-2.851-1.359-4.237A8.2,8.2,0,0,1,50.163,22,8.413,8.413,0,0,1,51.7,20.246c.637-.582,1.8-1.168,2.154-1.976.5-1.148.353-3.24-1.191-3.24a4.439,4.439,0,0,0-2.614,1.119c-.939.786-.181-.543.1-.851.977-1.07,2.368-1.953,3.851-1.48,1.636.521,2.2,2.226,2.2,3.8V29.075c0,.96.852.96,1.324.251l.159-.126.091.159C57.649,30.274,56.921,31.221,56.134,31.221Zm-7.24,18.811c-2.307,1.605-.531,4.162,1.73,4.366,2.573.232,4.9-1.4,6.479-3.287V49.57C54.683,49.165,51.071,48.5,48.894,50.031ZM65.629,35.814H40.969a1.11,1.11,0,0,0-1.11,1.11V61.594a1.109,1.109,0,0,0,1.11,1.11h24.66a1.112,1.112,0,0,0,1.115-1.11V36.923A1.111,1.111,0,0,0,65.629,35.814ZM61.3,55.742H57.132v-2.6c-1.918,1.85-4.485,3.349-7.243,2.873C47.852,55.667,45.95,54,46.056,51.8c.249-5.169,7.734-4.445,11.048-3.925v-.956c0-4.773-6.482-3.283-9.261-1.941L47.411,43.3c3.839-1.584,11.354-2.848,11.354,3.3v7.436H61.3v1.7ZM24.352,20.373l-3.773.61a3.474,3.474,0,0,0-2.9,3.442,2.668,2.668,0,0,0,3.2,2.444l3.711-.6a3.482,3.482,0,0,0,2.929-3.413A2.7,2.7,0,0,0,24.352,20.373Zm13.2,8.181L33.644,4.2a1.106,1.106,0,0,0-1.274-.921L8.024,7.181A1.106,1.106,0,0,0,7.1,8.456L11.01,32.813a1.118,1.118,0,0,0,1.274.923l24.353-3.909A1.115,1.115,0,0,0,37.555,28.554Zm-8.973-6.127c-.239,4.305-5.728,9.149-9.97,6.61-2.269-1.359-2.386-4.283-1.407-6.489a8.4,8.4,0,0,1,6.089-4.855l2.862-.465.462-6.542a3.23,3.23,0,0,1,1-2.254c.5-.431,1.845-.762,1.817.3l-.858,13.7ZM38.744,35.814H14.086a1.112,1.112,0,0,0-1.112,1.11V61.594a1.111,1.111,0,0,0,1.112,1.11H38.744a1.111,1.111,0,0,0,1.112-1.11V36.923A1.11,1.11,0,0,0,38.744,35.814Zm-9.392,9.44H27.038V55.01c0,1.522.739,2.472,2.314,2.088v1.743c-2.641,1.314-4.663-1.3-4.663-3.661V45.254H23.315V43.536h1.374V39.99l2.35-.887v4.434h2.314v1.718ZM15.714,70.037c-.271.3-1.306.1-1.671.1-1.5,0-1.154-1.9-1.154-2.889,0-1.335,1.424-1.16,2.341-1.16V64.647c0-.616.572-.1.572.3v4C15.8,69.2,15.925,69.825,15.714,70.037Zm-.484-3.371H14.043c-.9,0-.585,1.764-.585,2.314,0,.808,1.27.572,1.771.572V66.666Zm4.24,3.371c-.278.332-1.57.1-1.962.1-1.068,0-1.152-1.93-.258-2.269a5.288,5.288,0,0,1,1.708-.047v-.572c0-.808-1.229-.579-1.734-.579-.526,0-.224-.581.181-.581h.975c1.141,0,1.153,1.07,1.153,1.9C19.532,68.47,19.766,69.616,19.469,70.037Zm-.512-1.64h-1.45c-.448,0-.424,1.156.151,1.156h1.3V68.4Zm3.3-1.73h-.869v3.18c0,.441-.569.308-.569-.081v-3.1h-.293c-.525,0-.2-.69.293-.581V64.648c0-.615.569-.1.569.311v1.128h.869A.289.289,0,0,1,22.26,66.666ZM25.7,70.037c-.29.332-1.562.1-1.962.1-1.068,0-1.153-1.93-.26-2.269a5.3,5.3,0,0,1,1.711-.047v-.572c0-.807-1.231-.579-1.735-.579-.523,0-.224-.581.18-.581H24.6c1.145,0,1.153,1.066,1.153,1.9C25.757,68.456,25.992,69.63,25.7,70.037Zm-.511-1.64H23.737c-.448,0-.424,1.156.151,1.156h1.3V68.4Zm3.317-1.73H27.64v3.18c0,.441-.573.308-.573-.081v-3.1h-.293c-.526,0-.2-.69.293-.581V65.51c0-.844.691-1.189,1.438-1.16.53,0,.213.69-.284.582-.661,0-.581.7-.581,1.153H28.5A.291.291,0,0,1,28.5,66.666Zm2.471,3.474c-1.507,0-1.444-1.54-1.444-2.606a1.444,1.444,0,0,1,2.886,0C32.521,68.593,32.376,70.129,30.976,70.14Zm.872-2.607a.875.875,0,0,0-1.7-.274,4.868,4.868,0,0,0-.044,1.435.87.87,0,0,0,1.739,0V67.532ZM35.3,67.21c-.358.2-.5-.443-.8-.524a3.162,3.162,0,0,0-.773-.02v3.18c0,.417-.578.309-.578-.074V66.38c0-.454.877-.293,1.147-.293C34.657,66.085,36.034,66.839,35.3,67.21Zm3.062,2.924H36.918c-1.32,0-1.156-1.41-1.156-2.316l.013-.284c.083-2.047,2.952-1.729,2.877.284v.293c0,.527-1.95.285-2.306.285v.585c0,.85,1.486.572,2.02.572A.291.291,0,0,1,38.365,70.134Zm-.288-2.6c0-1.29-1.808-.988-1.732.284h1.732v-.284Zm3.9,2.6c-.554,0-.288-2.485-.288-2.889,0-.806-1.229-.579-1.732-.579v3.18c0,.431-.581.317-.581-.074V66.38c0-.507,1.428-.293,1.735-.293C42.757,66.085,42.483,70.134,41.979,70.134Zm.937-5.487a.364.364,0,1,1,.727,0A.364.364,0,0,1,42.916,64.647Zm.361,5.487c-.561,0-.282-3.274-.282-3.756,0-.517.579-.232.579.163v1.235C43.574,68.09,43.83,70.134,43.277,70.134Zm3.793,0c-.554,0-.288-2.483-.288-2.889,0-.806-1.236-.579-1.735-.579v3.18c0,.433-.581.317-.581-.074V66.38c0-.507,1.431-.293,1.735-.293C47.846,66.085,47.561,70.134,47.07,70.134Zm3.58,1.4c-.49.485-1.357.329-1.988.329-.523,0-.223-.581.18-.581h.973c.662,0,.582-.7.582-1.151h-1.16c-1.493,0-1.154-1.9-1.154-2.889,0-1.421,1.646-1.16,2.6-1.16C51.183,66.085,51.227,70.961,50.65,71.537ZM50.4,66.666h-1.16c-.884-.057-.575,1.805-.575,2.314,0,.8,1.225.572,1.735.572V66.666ZM54.3,70.134H52.852c-1.318,0-1.151-1.412-1.151-2.316l.009-.284c.083-2.048,2.952-1.728,2.877.284v.293c0,.528-1.955.285-2.308.285v.585c0,.85,1.491.572,2.023.572A.291.291,0,0,1,54.3,70.134Zm-.288-2.6c0-1.288-1.811-.989-1.735.284h1.735v-.284Zm3.9,2.6c-.554,0-.288-2.486-.288-2.889,0-.806-1.229-.579-1.732-.579v3.18c0,.431-.581.317-.581-.074V66.38c0-.507,1.43-.293,1.735-.293C58.691,66.085,58.417,70.134,57.913,70.134Zm1.016-.372a.376.376,0,1,1,.752,0A.376.376,0,0,1,58.93,69.762Zm3.905.372c-.554,0-.288-2.483-.288-2.889,0-.806-1.237-.579-1.735-.579v3.18c0,.431-.581.317-.581-.074V66.38c0-.507,1.431-.293,1.735-.293C63.61,66.085,63.326,70.134,62.835,70.134Zm2.46.006c-1.511,0-1.447-1.536-1.447-2.606a1.444,1.444,0,0,1,2.887,0C66.838,68.592,66.694,70.129,65.295,70.14Zm.866-2.607a.872.872,0,0,0-1.691-.274,4.827,4.827,0,0,0-.044,1.435.868.868,0,0,0,1.735,0V67.532Z" transform="translate(1.199 0.552)" fill="#bda9dd"/>
  </g>
</svg>
