<?xml version="1.0" encoding="utf-8"?>
<!-- Generator: Adobe Illustrator 16.0.0, SVG Export Plug-In . SVG Version: 6.00 Build 0)  -->
<!DOCTYPE svg PUBLIC "-//W3C//DTD SVG 1.1//EN" "http://www.w3.org/Graphics/SVG/1.1/DTD/svg11.dtd">
<svg version="1.1" id="Layer_1" xmlns="http://www.w3.org/2000/svg" xmlns:xlink="http://www.w3.org/1999/xlink" x="0px" y="0px"
	 width="65px" height="65px" viewBox="0 0 65 65" enable-background="new 0 0 65 65" xml:space="preserve">
<rect fill="none" width="65" height="65"/>
<g>
	<path fill="#FFFFFF" d="M14.567,64.335v-4.683H12.89v-0.855h4.326v0.855h-1.678v4.683H14.567L14.567,64.335z M17.723,64.335v-4.01
		h0.872v0.581c0.308-0.383,0.789-0.682,1.304-0.682v0.863l-0.266-0.025c-0.373,0-0.863,0.25-1.038,0.541v2.73L17.723,64.335
		L17.723,64.335z M20.289,62.326c0-1.154,0.78-2.102,2.059-2.102c1.279,0,2.061,0.946,2.061,2.102c0,1.146-0.781,2.107-2.061,2.107
		C21.069,64.436,20.289,63.473,20.289,62.326z M23.502,62.326c0-0.706-0.406-1.329-1.154-1.329c-0.738,0-1.153,0.623-1.153,1.329
		c0,0.714,0.415,1.337,1.153,1.337C23.096,63.663,23.502,63.04,23.502,62.326z M28.012,64.335v-2.508c0-0.632-0.324-0.83-0.814-0.83
		c-0.439,0-0.821,0.267-1.029,0.53v2.808h-0.872v-4.01h0.872v0.538c0.266-0.314,0.789-0.639,1.42-0.639
		c0.863,0,1.296,0.465,1.296,1.287v2.822L28.012,64.335L28.012,64.335z M32.836,64.335v-0.547c-0.307,0.397-0.764,0.646-1.287,0.646
		c-1.021,0-1.777-0.779-1.777-2.107c0-1.297,0.748-2.102,1.777-2.102c0.507,0,0.972,0.225,1.287,0.656v-2.085h0.872v5.538
		L32.836,64.335L32.836,64.335z M32.836,63.123v-1.586c-0.19-0.299-0.623-0.54-1.029-0.54c-0.697,0-1.138,0.558-1.138,1.329
		c0,0.779,0.44,1.337,1.138,1.337C32.213,63.663,32.646,63.423,32.836,63.123z M37.553,64.335v-2.522
		c0-0.631-0.314-0.814-0.806-0.814c-0.448,0-0.83,0.266-1.029,0.531v2.807h-0.872v-5.538h0.872v2.067
		c0.267-0.315,0.78-0.639,1.411-0.639c0.864,0,1.296,0.446,1.296,1.27v2.84L37.553,64.335L37.553,64.335z M39.313,62.326
		c0-1.163,0.848-2.102,2.035-2.102c1.203,0,1.969,0.914,1.969,2.176v0.216h-3.09c0.065,0.598,0.516,1.104,1.271,1.104
		c0.399,0,0.854-0.158,1.146-0.449l0.398,0.574c-0.407,0.381-0.997,0.588-1.628,0.588C40.202,64.436,39.313,63.598,39.313,62.326
		L39.313,62.326z M41.34,60.939c-0.738,0-1.088,0.572-1.121,1.054h2.258C42.452,61.521,42.129,60.939,41.34,60.939z M44.08,59.295
		c0-0.299,0.24-0.54,0.539-0.54c0.3,0,0.54,0.241,0.54,0.54c0,0.301-0.24,0.54-0.54,0.54C44.32,59.835,44.08,59.596,44.08,59.295z
		 M44.18,64.335v-4.01h0.872v4.01H44.18L44.18,64.335z M51.105,64.335v-2.614c0-0.433-0.191-0.724-0.666-0.724
		c-0.39,0-0.754,0.267-0.93,0.53v2.808h-0.871v-2.614c0-0.433-0.184-0.724-0.656-0.724c-0.391,0-0.748,0.274-0.931,0.53v2.808H46.18
		v-4.01h0.872v0.538c0.175-0.239,0.697-0.639,1.312-0.639c0.599,0,0.964,0.299,1.097,0.73c0.226-0.357,0.756-0.73,1.36-0.73
		c0.731,0,1.154,0.398,1.154,1.213v2.896L51.105,64.335L51.105,64.335z M32.62,0.763l5.526,5.527l-5.526,5.527L27.093,6.29
		L32.62,0.763z M48.089,46.227h7.647l-15.43-15.438l15.557-15.564h-7.774V7.659l-15.46,15.457L17.092,7.575v7.649H9.396
		l15.566,15.564L9.522,46.227h7.57v7.772l15.537-15.541l15.46,15.457V46.227z M8.504,6.68h7.69v7.649h-7.69V6.68z M49.003,6.68h7.69
		v7.649h-7.69V6.68z M49.003,47.116h7.69v7.647h-7.69V47.116z M8.504,47.116h7.69v7.647h-7.69V47.116z"/>
</g>
</svg>
