<?xml version="1.0" encoding="utf-8"?>
<!-- Generator: Adobe Illustrator 16.0.0, SVG Export Plug-In . SVG Version: 6.00 Build 0)  -->
<!DOCTYPE svg PUBLIC "-//W3C//DTD SVG 1.1//EN" "http://www.w3.org/Graphics/SVG/1.1/DTD/svg11.dtd">
<svg version="1.1" id="Layer_1" xmlns="http://www.w3.org/2000/svg" xmlns:xlink="http://www.w3.org/1999/xlink" x="0px" y="0px"
	 width="65px" height="65px" viewBox="0 0 65 65" enable-background="new 0 0 65 65" xml:space="preserve">
<rect fill="none" width="65" height="65"/>
<g>
	<path fill="#FFFFFF" d="M24.937,40.363h0.032H24.937z M46.393,27.254v-0.038l-1-2.623c-0.683-1.795-1.355-3.594-2.047-5.387
		c0.024,0.062,0.317-0.232,0.329-0.249c0.267-0.278,0.173-0.649-0.016-0.939c-0.158-0.351-0.8-0.648-1.056-0.983
		c-0.951-1.431-3.371-1.915-4.155-0.176c-0.464,1.024-0.247,1.746,0.507,2.543c0.65,0.687,1.602,1.288,2.477,0.622
		c0.471-0.358,0.449-0.067,0.604,0.33l0.607,1.586l1.018,2.652l0.611,1.622c-0.836-0.26-0.556-0.729-1.067-1.321
		c-0.627-0.711-1.761-0.71-2.388,0c-0.484,0.621-0.35,0.534-1.112,0.304l-1.338-0.403c-0.187-0.208-0.22-0.926-0.286-1.203
		c-0.115-0.47-0.234-0.938-0.359-1.405c-0.281-1.048-0.589-2.09-0.921-3.124c-0.624-1.95-1.335-3.871-2.124-5.76
		c-0.789-1.893-1.658-3.752-2.595-5.577c-0.152-0.298-0.718-1.854-1.113-1.797c-0.414,0.06-0.694,0.84-0.84,1.158
		c-1.665,3.616-3.396,7.176-4.783,10.914c-0.303,0.817-0.56,1.644-0.834,2.47c-0.285,0.854-0.947,1.462-1.289,2.29
		c-0.246,0.595-0.171,0.816-0.694,1.153l-1.056,0.681c-0.799,0.516-1.709,0.906-2.365,1.615c-0.922,0.998-0.512,1.921,0.206,2.868
		c0.721,0.951,1.331,1.988,1.796,3.087c0.541,1.277,0.608,2.365,0.672,3.732c0.095,2.055,0.201,4.883,1.426,6.645
		c0.576,0.828,1.39,0.499,1.946-0.173c0.74-0.896,1.422-1.7,2.436-2.313c2.181-1.322,4.597-0.787,6.568,0.648
		c1.206,0.879,3.747,4.297,4.915,1.447c0.402-0.979,0.424-2.207,0.505-3.248c0.108-1.379,0.125-2.766,0.077-4.147
		c-0.096-2.779-0.456-5.542-0.954-8.276l6.64,2.016C46.195,28.663,46.63,28.054,46.393,27.254 M23.612,24.135
		c0-2.517,2.972-4.031,5.181-4.041c2.7-0.013,5.355,2.38,4.357,5.218c-0.699,1.984-2.935,2.975-4.914,3.004
		C25.947,28.349,23.307,26.755,23.612,24.135z M21.649,28.297c-0.437-0.197-0.883-0.377-1.305-0.607
		c-0.433-0.236-0.186-0.269,0.139-0.461l2.427-1.434C22.74,26.569,22.76,28.454,21.649,28.297z M38.699,40.514
		c-0.094,0.676-0.057,1.623-0.822,1.916c-1.105,0.233-2.107-1.439-2.848-2.061c-1.033-0.87-2.237-1.596-3.573-1.873
		c-2.499-0.52-4.992,0.936-6.515,2.852c-0.71,1.053-1.176,1.034-1.593-0.158c-0.345-0.988-0.543-2.073-0.692-3.104
		c-0.556-3.838-0.049-7.693,0.778-11.449c1.15,1.997,3.527,2.783,5.725,2.43c2.65-0.425,4.399-2.227,4.896-4.811
		c0.741,0.096,1.441,0.407,2.096,0.756c0.488,0.26,1.395,0.614,1.729,1.061c0.548,0.729,0.455,2.453,0.581,3.328
		C38.988,33.068,39.219,36.829,38.699,40.514z M25.233,21.47c-1.058,1.513,1.131,2.636,2.344,1.616
		C29.421,21.534,26.58,19.562,25.233,21.47z M8.475,59.186c-0.604-0.332-0.703-1.988-0.041-2.322
		c0.415-0.207,0.752-0.141,0.818-0.696c0.025-0.211,0.015-0.427,0.015-0.64v-3.362c-0.723,0.035-1.202-0.2-1.218-0.968
		c-0.012-0.568-0.036-1.448,0.734-1.489c-0.708-0.838-0.278-2.619,0.919-2.735c1.412-0.138,2.39,1.729,1.342,2.799
		c0.435,0.133,0.711,0.539,0.718,0.987c0,1.364-0.028,2.731,0.02,4.095c0.038,1.074,0.125,2.391-0.594,3.281
		C10.675,58.725,9.289,59.634,8.475,59.186z M8.848,58.467c2.985-0.297,1.974-3.892,2.141-5.951c0.035-0.428,0.274-1.754-0.25-1.986
		c-0.296-0.131-0.829-0.09-1.148-0.104c-0.808-0.038-0.751,0.2-0.741,0.941c0.344,0,1.216-0.167,1.216,0.399
		c0,1.063-0.013,2.127,0.025,3.188c0.021,0.583,0.131,1.86-0.458,2.235c-0.2,0.127-0.419,0.227-0.631,0.33
		C8.704,57.665,8.848,58.17,8.848,58.467C9.496,58.402,8.848,58.178,8.848,58.467z M11.093,50.234v0.021V50.234l0.22-0.332
		L11.093,50.234z M10.393,49.293c0.389-0.223,0.178-1.049,0.074-1.369C9.257,46.699,8.671,50.254,10.393,49.293z M22.696,56.891
		c-0.671-0.439-0.939-1.545-1.261-2.234c-0.33-0.706-0.609-1.858-1.181-2.408c-0.462-0.443-1.129-0.521-1.02-1.342
		c0.084-0.635,0.651-1.198,1.306-1.198c0,0.123,0.033,0.28,0,0.399c0.13,0.433-0.847,0.608-0.49,0.994
		c0.379,0.41,0.729,0.269,0.995,0.836c0.569,1.217,1.051,2.487,1.645,3.689c0.196,0.396,0.404,0.75,0.917,0.719
		c0.806-0.05,1.166-1.559,1.441-2.148l1.196-2.559c0.038-0.082,1.59-0.734,0.875-1.002c-0.392-0.353-1.713-0.216-2.208-0.176
		c-0.299,0.025-1.155,0.314-0.603,0.688c0.245,0.166,0.74,0.252,0.849,0.563c0.157,0.448-0.665,1.611-0.856,2.046
		c-0.146,0.328-0.345,0.884-0.703,1.038c-0.46,0.199-1.02-1.796-1.148-2.105c-0.179-0.433-0.66-1.092,0.007-1.28
		c0.359-0.101,0.628-0.567,0.27-0.845c-0.637-0.219-1.525-0.059-2.187-0.059v-0.798c0.826,0,2.542-0.306,2.997,0.592
		c0.476-0.926,2.355-0.661,3.177-0.592c0.954,0,1.599,1.026,1.094,1.87c-0.25,0.419-0.852,0.391-1.006,0.758l-0.472,1.186
		C25.86,54.684,24.503,58.27,22.696,56.891 M23.594,53.371l0.6-1.299c-0.274-0.088-0.511-0.299-0.646-0.551
		c-0.088,0.179-0.385,0.346-0.433,0.523C23.022,52.387,23.467,53.063,23.594,53.371C23.794,52.938,23.464,53.057,23.594,53.371z
		 M28.559,56.445c-1.617-0.836-0.948-3.342,0.215-4.172c-0.808-0.651-0.51-1.799,0.329-2.242c0.9-0.475,2.127-0.581,3.119-0.389
		c2.486,0.481,2.338,2.791,2.338,4.815c0-0.033,0.506,0.201,0.53,0.22c0.604,0.314,0.687,1.201,0.317,1.721
		c-0.467,0.66-1.618,0.633-2.327,0.492c-0.312-0.063-0.478-0.396-0.786-0.24c-0.375,0.188-0.747,0.32-1.167,0.383
		C30.242,57.165,29.263,57.037,28.559,56.445z M29.01,55.781c0.573,0.516,1.412,0.584,2.138,0.439
		c0.507-0.101,1.24-0.738,1.735-0.382c0.451,0.324,0.903,0.382,1.485,0.315c0.411-0.047,0.696-0.618,0.241-0.842
		c-0.814-0.066-0.863-0.342-0.821-1.108c0.046-0.835,0.132-1.729-0.127-2.541c-0.522-1.64-2.576-1.455-3.864-1.052
		c-0.485,0.142-1.192,1.057-0.271,1.121c0.916-0.176,2.043-0.946,2.909-0.188c0.848,0.742,0.034,0.99-0.646,0.913
		c-0.924-0.105-2.055,0-2.783,0.637C28.201,53.8,28.252,55.057,29.01,55.781z M13.196,56.445c-1.617-0.836-0.952-3.34,0.213-4.172
		c-0.813-0.646-0.506-1.803,0.328-2.242c0.901-0.473,2.128-0.581,3.122-0.389c2.485,0.481,2.338,2.791,2.338,4.815
		c0-0.034,0.504,0.2,0.529,0.22c0.689,0.357,0.69,1.403,0.166,1.897c-0.546,0.514-2.195,0.584-2.721,0.026
		c-0.016-0.021-1.571,0.455-1.721,0.465C14.656,57.127,13.818,56.969,13.196,56.445z M13.645,55.781
		c0.572,0.517,1.411,0.582,2.136,0.439c0.508-0.1,1.243-0.738,1.738-0.383c0.452,0.325,0.902,0.383,1.485,0.316
		c0.412-0.047,0.694-0.615,0.243-0.842c-0.816-0.063-0.865-0.342-0.823-1.108c0.045-0.835,0.132-1.731-0.127-2.542
		c-0.524-1.639-2.574-1.454-3.864-1.051c-0.491,0.141-1.174,1.056-0.272,1.121c0.918-0.174,2.042-0.945,2.911-0.189
		c0.854,0.742,0.027,0.99-0.65,0.914c-0.923-0.104-2.052,0.001-2.779,0.637C12.817,53.816,12.923,55.023,13.645,55.781z
		 M44.4,56.684c-0.131-0.135-0.23-0.34-0.229-0.562c0-0.642-0.077-1.745,0.872-1.658v-2.3c-1.254,0.102-1.268-2.457,0.07-2.457
		c-0.797-0.939-0.102-2.646,1.102-2.842c1.485-0.24,2.092,2.35,0.965,3.076c0.244,0.193,0.368,0.512,0.375,0.816v3.705
		c0.981-0.016,1.172,1.953,0.437,2.373c-0.527,0.301-1.511,0.059-2.103,0.089C45.45,56.949,44.725,57.078,44.4,56.684z
		 M47.564,56.122V55.26h0.004c-0.881,0.129-0.813-0.494-0.778-1.125c0.04-0.73,0.076-1.465,0.052-2.197
		c-0.011-0.314,0.034-1.264-0.354-1.418c-0.396-0.158-1.08-0.014-1.506-0.014c-0.028,0-0.014,0.79-0.012,0.859
		c1.191-0.178,0.941,1.33,0.948,2.139c0.007,0.835,0.097,1.809-0.937,1.756C44.4,56.619,46.904,56.122,47.564,56.122z
		 M46.746,49.277v-0.004h0.001c0.253-0.367,0.188-0.971,0.026-1.351l-0.015-0.019c-0.26-0.243-0.821-0.252-1.019,0.066
		c-0.115,0.334-0.186,0.762-0.059,1.102C45.807,49.411,46.482,49.512,46.746,49.277z M36.238,56.598
		c-0.526-0.478-0.493-1.328,0.021-1.803c0.362-0.334,0.614-0.092,0.614-0.658V50.95c0-0.609-0.313-0.372-0.659-0.729
		c-0.501-0.515-0.386-1.381,0.142-1.832c0.521-0.445,1.436-0.289,2.074-0.314c0.84-0.033,1.69-0.059,2.522,0.087
		c1.825,0.315,3.379,2.091,2.289,3.961c0.968,0.841,1.041,2.336,0.372,3.379c-0.717,1.12-1.918,1.42-3.172,1.42
		c-1.121,0.019-2.244,0-3.366,0C36.77,56.925,36.452,56.822,36.238,56.598z M37.075,56.122c1.606,0,3.924,0.588,5.323-0.454
		c0.636-0.473,1.066-1.396,0.778-2.182c-0.223-0.604-1.141-1.021-0.646-1.736c0.617-1.545-0.449-2.639-1.961-2.813
		c-0.855-0.1-1.729,0.002-2.588-0.066c-0.395-0.031-1.137,0.242-1.371-0.049c0.088,0.037,0.166,0.13,0.24,0.188
		c-0.187,0.23-0.236,0.527,0.018,0.717c0.979,0.148,0.801,0.657,0.801,1.555c0,0.806-0.023,1.613,0.031,2.416
		c0.031,0.455,0.113,1.127-0.284,1.459c-0.219,0.182-0.562,0.064-0.705,0.316C36.549,55.759,36.756,56.116,37.075,56.122z
		 M54.123,56.92c-0.466-0.021-0.979-0.068-1.243-0.518c-0.483,0.793-2.674,0.73-3.401,0.391c-0.457-0.214-0.674-0.749-0.633-1.23
		c0.064-0.729,0.84-0.828,0.84-1.406c0-0.495,0.24-1.76-0.121-2.135c-0.416-0.432-0.867-0.617-0.732-1.326
		c0.102-0.533,0.559-0.893,1.082-0.971c0.355-0.053,0.755-0.045,1.113-0.025c0.281,0.015,0.666,0.279,0.933,0.164
		c1.033-0.663,2.623-0.264,3.39,0.615c0.961,1.103,0.721,2.668,0.721,4.018l0.771,0.636c0.196,0.421,0.31,0.957-0.071,1.312
		C56.122,57.045,54.934,56.92,54.123,56.92C53.657,56.898,55.189,56.92,54.123,56.92z M55.505,56.122
		c0.349,0.004,0.993-0.302,0.56-0.735c-0.242-0.242-0.793-0.037-0.793-0.523c0-1.282,0.457-3.231-0.77-4.121
		c-0.438-0.316-0.998-0.43-1.527-0.359c-0.423,0.057-1.141,0.662-1.498,0.354c-0.354-0.309-1.322-0.44-1.707-0.133
		c-0.426,0.338,0.174,0.65-0.196,1.02l-0.24,0.316l0.24-0.316l0.188-0.35c0.762,0.297,0.723,0.391,0.723,1.271
		c0,0.558,0.283,2.142-0.178,2.536c-0.25,0.214-1.074,0.451-0.545,0.949c0.375,0.309,1.649,0.17,2.1,0.092
		c0.303-0.053,0.494-0.273,0.396-0.607c-0.075-0.254-0.479-0.201-0.671-0.309c-0.429-0.239-0.24-2.076-0.169-2.516
		c0.187-1.135,1.749-2.029,2.622-1.021c0.592,0.679,0.363,2.101,0.332,2.933c-0.023,0.621-1.326,0.889-0.714,1.474l0.002-0.003
		C54.229,56.223,54.92,56.122,55.505,56.122z M52.884,55.006l0.69-0.572l0.018-0.652c0.006-0.465,0.012-0.977-0.156-1.42
		c-0.164-0.434-0.514-0.442-0.859-0.186c-0.645,0.479-0.381,1.604-0.381,2.325C52.195,54.491,52.818,54.896,52.884,55.006z
		 M30.648,55.338c-1.538,0-1.571-1.646-0.205-2.008c0.726-0.193,2.505-0.366,2.392,0.764C32.738,55,31.38,55.34,30.648,55.338z
		 M30.232,54.434c0.475,0.369,1.401,0.016,1.77-0.363C31.738,54.008,30.113,54.32,30.232,54.434z M32.031,54.076v-0.004V54.076z
		 M32.077,53.759l0.014-0.079v-0.061L32.077,53.759z M15.283,55.338c-0.755,0-1.699-0.704-1.078-1.492
		c0.425-0.541,1.298-0.627,1.933-0.627c0,0.122,0.034,0.28,0,0.396c0.237,0.822-1.092,0.15-1.322,0.766
		c0.281,0.563,1.521-0.013,1.82-0.313c-0.337-0.078-0.639,0.022-0.498-0.453c-0.033-0.117,0-0.273,0-0.396
		c0.657-0.006,1.412,0.073,1.331,0.875C17.368,55,16.019,55.34,15.283,55.338z M39.014,55.26c-0.611-0.057-0.474-1.369-0.433-1.789
		c0.103-1.052,1.327-0.752,2.125-0.679c0.756,0.069,1.815,0.69,1.5,1.616C41.814,55.557,39.922,55.26,39.014,55.26
		C38.771,55.236,39.891,55.26,39.014,55.26z M39.412,54.464c0.088,0,2.8-0.123,1.919-0.72c-0.479-0.213-1.142-0.23-1.657-0.155
		C39.268,53.648,39.412,54.174,39.412,54.464C39.846,54.464,39.412,53.646,39.412,54.464z M39.014,52.021
		c-0.619-0.063-0.492-1.426-0.385-1.844c0.209-0.814,2.188-0.434,2.701-0.105c-0.066,0.104-0.124,0.254-0.215,0.336l-0.256,0.309
		l0.256-0.309l0.215-0.336c0.518,0.392,0.521,1.09,0.074,1.537C40.816,52.202,39.766,52.021,39.014,52.021
		C38.771,51.997,39.607,52.021,39.014,52.021z M39.412,51.223c0.313,0,2.288-0.109,1.146-0.556
		C39.889,50.406,39.412,50.497,39.412,51.223C39.835,51.223,39.412,50.467,39.412,51.223z"/>
</g>
</svg>
