<svg xmlns="http://www.w3.org/2000/svg" xmlns:xlink="http://www.w3.org/1999/xlink" width="76" height="76" viewBox="0 0 76 76">
  <defs>
    <clipPath id="clip-path">
      <rect id="Rectangle_55" data-name="Rectangle 55" width="76" height="76" fill="#bda9dd"/>
    </clipPath>
  </defs>
  <g id="javabin" clip-path="url(#clip-path)">
    <path id="Path_664" data-name="Path 664" d="M27.807,46.192h0ZM52.893,30.863v-.044l-1.168-3.067c-.8-2.1-1.585-4.2-2.393-6.3.028.072.371-.271.385-.291a.855.855,0,0,0-.019-1.1c-.185-.41-.934-.758-1.234-1.149-1.112-1.673-3.941-2.239-4.859-.206a2.388,2.388,0,0,0,.593,2.973c.76.8,1.873,1.506,2.9.727.551-.419.525-.078.705.386l.71,1.854,1.19,3.1.714,1.9c-.977-.3-.649-.852-1.248-1.545a1.874,1.874,0,0,0-2.791,0c-.567.726-.409.624-1.3.355l-1.564-.471c-.219-.243-.256-1.083-.334-1.407q-.2-.824-.421-1.643-.493-1.838-1.076-3.653-1.094-3.42-2.483-6.735T36.16,8.029c-.178-.348-.84-2.168-1.3-2.1-.484.07-.811.982-.982,1.354-1.947,4.228-3.971,8.39-5.592,12.761-.354.955-.655,1.922-.975,2.888-.333,1-1.107,1.709-1.507,2.678-.288.7-.2.954-.811,1.348l-1.235.8a13.37,13.37,0,0,0-2.765,1.888c-1.078,1.167-.6,2.246.241,3.353a16.876,16.876,0,0,1,2.1,3.609,11.658,11.658,0,0,1,.786,4.365c.111,2.4.235,5.709,1.667,7.768.673.968,1.625.583,2.275-.2a11.3,11.3,0,0,1,2.848-2.706c2.55-1.546,5.375-.919,7.68.759,1.41,1.028,4.381,5.024,5.747,1.693a12.973,12.973,0,0,0,.59-3.8,43.033,43.033,0,0,0,.09-4.85A66.958,66.958,0,0,0,43.9,29.957l7.764,2.357c1,.2,1.508-.516,1.23-1.451M26.258,27.216c0-2.943,3.475-4.713,6.058-4.725,3.157-.015,6.262,2.783,5.094,6.1-.817,2.32-3.431,3.478-5.744,3.512C28.988,32.144,25.9,30.28,26.258,27.216Zm-2.3,4.866c-.511-.23-1.032-.441-1.526-.71s-.217-.315.163-.539l2.838-1.677C25.238,30.062,25.262,32.266,23.963,32.083ZM43.9,46.366c-.109.79-.065,1.9-.961,2.241-1.292.272-2.465-1.684-3.329-2.41a9.682,9.682,0,0,0-4.179-2.19c-2.922-.608-5.837,1.094-7.618,3.335-.83,1.23-1.375,1.209-1.863-.186a19.688,19.688,0,0,1-.809-3.629,37.35,37.35,0,0,1,.91-13.387,6.424,6.424,0,0,0,6.694,2.841,6.69,6.69,0,0,0,5.725-5.625,7.286,7.286,0,0,1,2.45.884,6.757,6.757,0,0,1,2.023,1.241c.641.852.532,2.868.679,3.891A46.175,46.175,0,0,1,43.9,46.366ZM28.153,24.1c-1.237,1.769,1.322,3.082,2.741,1.889C33.05,24.175,29.728,21.87,28.153,24.1ZM8.559,68.2c-.706-.389-.822-2.326-.048-2.715.485-.243.879-.165.956-.815a6.384,6.384,0,0,0,.018-.748V59.99c-.845.041-1.405-.234-1.424-1.132-.014-.664-.042-1.693.858-1.741-.828-.98-.325-3.062,1.075-3.2a1.971,1.971,0,0,1,1.569,3.273,1.208,1.208,0,0,1,.84,1.154c0,1.595-.033,3.193.023,4.788.044,1.255.146,2.794-.695,3.836C11.131,67.66,9.511,68.723,8.559,68.2ZM9,67.358c3.49-.347,2.308-4.551,2.5-6.959.041-.5.32-2.051-.292-2.322a4.429,4.429,0,0,0-1.342-.122c-.945-.046-.878.234-.866,1.1.4,0,1.422-.2,1.422.467,0,1.243-.015,2.487.029,3.729.025.682.153,2.175-.536,2.613a7.376,7.376,0,0,1-.738.386c-.348.171-.18.761-.18,1.108C9.753,67.282,9,67.021,9,67.358Zm2.625-9.626v0l.257-.388Zm-.818-1.1c.455-.261.208-1.227.087-1.6C9.473,53.6,8.788,57.756,10.8,56.632Zm14.385,8.884c-.785-.514-1.1-1.808-1.474-2.612a9.857,9.857,0,0,0-1.381-2.817c-.54-.519-1.32-.609-1.193-1.569a1.621,1.621,0,0,1,1.527-1.4,1.887,1.887,0,0,1,0,.467c.152.506-.99.712-.573,1.163.443.478.852.313,1.163.977.665,1.423,1.229,2.908,1.923,4.313.229.463.472.877,1.072.841.942-.058,1.363-1.823,1.685-2.512l1.4-2.993c.044-.095,1.859-.857,1.023-1.17-.458-.413-2-.253-2.582-.206-.35.029-1.35.367-.705.8.286.193.865.295.993.657.184.524-.778,1.885-1,2.392-.171.384-.4,1.034-.822,1.214-.538.233-1.193-2.1-1.342-2.462-.209-.505-.772-1.276.008-1.5.42-.118.734-.663.316-.988a8.543,8.543,0,0,0-2.557-.068v-.933c.966,0,2.972-.358,3.5.692.557-1.083,2.754-.773,3.715-.692A1.455,1.455,0,0,1,31.164,59.3c-.292.49-1,.457-1.176.886l-.552,1.386c-.55,1.359-2.136,5.553-4.249,3.94m1.05-4.116.7-1.519a1.354,1.354,0,0,1-.755-.644c-.1.209-.45.4-.506.613-.109.4.412,1.19.56,1.55C26.471,60.894,26.085,61.032,26.237,61.4Zm5.805,3.594c-1.891-.976-1.108-3.908.251-4.878a1.568,1.568,0,0,1,.385-2.62,5.858,5.858,0,0,1,3.647-.455c2.907.562,2.735,3.262,2.735,5.63a3.374,3.374,0,0,1,.62.256,1.42,1.42,0,0,1,.371,2.013c-.546.772-1.892.74-2.721.574-.365-.072-.559-.463-.919-.281a4.425,4.425,0,0,1-1.364.448A3.79,3.79,0,0,1,32.042,64.994Zm.527-.776a2.89,2.89,0,0,0,2.5.514c.593-.118,1.45-.864,2.029-.447a2.292,2.292,0,0,0,1.736.369c.482-.055.814-.724.283-.984-.953-.078-1.01-.4-.961-1.3a8.316,8.316,0,0,0-.148-2.971c-.612-1.918-3.012-1.7-4.518-1.23-.567.166-1.394,1.236-.317,1.312,1.071-.206,2.389-1.107,3.4-.221.992.868.04,1.158-.755,1.068a4.31,4.31,0,0,0-3.254.745A2.143,2.143,0,0,0,32.569,64.218Zm-18.49.776c-1.891-.976-1.113-3.905.249-4.878a1.568,1.568,0,0,1,.384-2.62,5.876,5.876,0,0,1,3.65-.455c2.906.562,2.734,3.263,2.734,5.63a3.241,3.241,0,0,1,.619.256,1.427,1.427,0,0,1,.194,2.219,2.93,2.93,0,0,1-3.181.032c-.019-.026-1.837.531-2.012.544A3.639,3.639,0,0,1,14.079,64.994Zm.525-.776a2.889,2.889,0,0,0,2.5.514c.594-.117,1.453-.864,2.032-.448a2.282,2.282,0,0,0,1.736.371c.482-.055.811-.72.284-.984-.954-.075-1.011-.4-.962-1.3a8.349,8.349,0,0,0-.148-2.972c-.613-1.916-3.01-1.7-4.518-1.229-.574.165-1.373,1.235-.318,1.312,1.073-.2,2.388-1.106,3.4-.222,1,.868.032,1.158-.76,1.069a4.308,4.308,0,0,0-3.249.745A2.157,2.157,0,0,0,14.6,64.218Zm35.961,1.056a.954.954,0,0,1-.269-.657c0-.751-.09-2.04,1.02-1.939V59.989c-1.466.119-1.483-2.873.083-2.873a2.163,2.163,0,0,1,1.287-3.323c1.736-.281,2.446,2.748,1.127,3.6a1.253,1.253,0,0,1,.438.955v4.332c1.148-.019,1.372,2.284.511,2.775-.616.352-1.767.068-2.458.1C51.791,65.584,50.942,65.734,50.565,65.274Zm3.7-.657V63.609h0c-1.029.15-.949-.578-.91-1.315.047-.855.089-1.713.061-2.569-.013-.368.04-1.478-.414-1.659a5.648,5.648,0,0,0-1.76-.015,8.973,8.973,0,0,0-.014,1c1.393-.208,1.1,1.555,1.108,2.5.008.976.112,2.114-1.1,2.053C50.565,65.2,53.491,64.617,54.264,64.617Zm-.958-8v0h0a1.8,1.8,0,0,0,.032-1.578l-.018-.022a.844.844,0,0,0-1.191.078,2.019,2.019,0,0,0-.069,1.287A.906.906,0,0,0,53.307,56.613ZM41.02,65.173a1.446,1.446,0,0,1,.025-2.108c.423-.391.718-.108.718-.771V58.569c0-.712-.365-.435-.771-.852a1.5,1.5,0,0,1,.166-2.142c.609-.521,1.678-.339,2.424-.368a13.98,13.98,0,0,1,2.95.1c2.135.369,3.951,2.445,2.676,4.631a3.094,3.094,0,0,1,.436,3.951,4.065,4.065,0,0,1-3.71,1.66c-1.311.021-2.624,0-3.936,0A1.332,1.332,0,0,1,41.02,65.173ZM42,64.617c1.878,0,4.588.688,6.225-.531a2.358,2.358,0,0,0,.91-2.55c-.261-.707-1.334-1.194-.755-2.031.723-1.806-.525-3.086-2.292-3.289-1-.116-2.022,0-3.026-.077-.462-.036-1.329.284-1.6-.056a1.464,1.464,0,0,1,.281.219.549.549,0,0,0,.02.837c1.145.174.937.769.937,1.818,0,.942-.028,1.886.036,2.826.036.531.132,1.317-.332,1.7-.256.213-.657.075-.824.371A.509.509,0,0,0,42,64.617Zm19.933.933a1.6,1.6,0,0,1-1.453-.606c-.565.927-3.127.855-3.978.457a1.442,1.442,0,0,1-.739-1.439c.075-.851.981-.968.981-1.644,0-.579.282-2.057-.14-2.5-.486-.505-1.015-.721-.857-1.55a1.463,1.463,0,0,1,1.265-1.135,6.72,6.72,0,0,1,1.3-.03c.33.018.779.326,1.091.192a3.3,3.3,0,0,1,3.964.719c1.124,1.29.842,3.12.842,4.7l.9.744a1.287,1.287,0,0,1-.084,1.534c-.756.7-2.147.557-3.094.557C61.387,65.524,63.178,65.55,61.932,65.55Zm1.616-.933c.407,0,1.161-.353.654-.861-.282-.283-.926-.042-.926-.61,0-1.5.534-3.779-.9-4.82a2.5,2.5,0,0,0-1.785-.42c-.495.065-1.334.774-1.752.413a1.993,1.993,0,0,0-2-.156c-.5.4.2.761-.229,1.193l-.281.371.281-.371.22-.409c.891.347.845.457.845,1.486,0,.652.332,2.5-.207,2.965-.293.25-1.256.528-.638,1.11.438.361,1.929.2,2.455.108a.526.526,0,0,0,.463-.711c-.088-.3-.56-.234-.785-.36-.5-.279-.282-2.427-.2-2.942.219-1.326,2.045-2.372,3.066-1.193.692.794.426,2.457.388,3.429-.028.726-1.55,1.038-.835,1.722l0,0A8.871,8.871,0,0,0,63.548,64.617Zm-3.065-1.3.807-.669.021-.762a4.623,4.623,0,0,0-.182-1.66c-.192-.507-.6-.518-1.006-.217-.754.56-.445,1.875-.445,2.718A4.829,4.829,0,0,1,60.483,63.312Zm-26,.388c-1.8,0-1.837-1.925-.24-2.348.849-.226,2.929-.428,2.8.893C36.928,63.3,35.34,63.7,34.484,63.7ZM34,62.643c.555.431,1.638.018,2.07-.426C35.759,62.145,33.859,62.511,34,62.643Zm2.1-.419v0Zm.054-.371.016-.092V61.69ZM16.519,63.7c-.883,0-1.987-.823-1.26-1.746a2.9,2.9,0,0,1,2.26-.732,1.8,1.8,0,0,1,0,.463c.277.961-1.277.177-1.546.9.329.657,1.778-.015,2.128-.365-.394-.092-.747.026-.582-.531a1.859,1.859,0,0,1,0-.463c.768-.007,1.651.085,1.556,1.023C18.957,63.3,17.38,63.7,16.519,63.7Zm27.747-.091c-.716-.067-.554-1.6-.506-2.093.12-1.229,1.552-.879,2.485-.793.884.082,2.123.807,1.754,1.889-.458,1.343-2.671,1-3.732,1C43.983,63.582,45.292,63.609,44.266,63.609Zm.465-.931c.1,0,3.274-.144,2.244-.842a3.785,3.785,0,0,0-1.937-.181c-.475.069-.306.684-.306,1.023C45.238,62.678,44.732,61.722,44.732,62.678Zm-.465-2.856c-.725-.072-.575-1.666-.45-2.156.244-.951,2.558-.506,3.158-.123a1.892,1.892,0,0,1-.251.393l-.3.361.3-.361.251-.393a1.168,1.168,0,0,1,.088,1.8c-.689.692-1.916.481-2.8.481C43.983,59.793,44.961,59.822,44.266,59.822Zm.465-.933c.365,0,2.675-.127,1.34-.65-.782-.305-1.34-.2-1.34.65C45.226,58.889,44.732,58,44.732,58.889Z" transform="translate(1.35 1.003)" fill="#bda9dd"/>
  </g>
</svg>
