<?xml version="1.0" encoding="utf-8"?>
<!-- Generator: Adobe Illustrator 16.0.0, SVG Export Plug-In . SVG Version: 6.00 Build 0)  -->
<!DOCTYPE svg PUBLIC "-//W3C//DTD SVG 1.1//EN" "http://www.w3.org/Graphics/SVG/1.1/DTD/svg11.dtd">
<svg version="1.1" id="Layer_1" xmlns="http://www.w3.org/2000/svg" xmlns:xlink="http://www.w3.org/1999/xlink" x="0px" y="0px"
	 width="65px" height="65.2px" viewBox="0 0 65 65.2" enable-background="new 0 0 65 65.2" xml:space="preserve">
<rect fill="none" width="65" height="65.2"/>
<g>
	<path fill="#FFFFFF" d="M48.568,28.745c0,2.083,0.002,4.166,0,6.25c0,0.98-0.444,1.43-1.414,1.43h-12.5
		c-0.928,0-1.379-0.452-1.379-1.381c-0.002-4.195-0.002-8.39,0-12.583c0-0.909,0.476-1.375,1.392-1.375h12.501
		c0.932,0,1.396,0.467,1.398,1.409L48.568,28.745z M36.426,27.347h-0.002c0,0.804-0.048,1.61,0.016,2.408
		c0.051,0.628,0.14,1.288,0.381,1.859c0.803,1.904,2.914,2.924,5.031,2.508c2.057-0.401,3.529-2.137,3.563-4.249
		c0.025-1.74,0.006-3.48,0.003-5.224c0-0.136-0.017-0.271-0.046-0.405c-0.118-0.532-0.495-0.826-1.055-0.835
		c-0.592-0.008-0.989,0.272-1.117,0.81c-0.042,0.181-0.051,0.376-0.051,0.566c-0.004,1.673,0.009,3.345-0.006,5.021
		c-0.008,1.008-0.623,1.885-1.49,2.19c-0.866,0.303-1.844,0.046-2.412-0.642c-0.4-0.484-0.545-1.056-0.545-1.673v-4.124
		c-0.002-0.396,0.011-0.792-0.027-1.183c-0.059-0.605-0.461-0.954-1.063-0.965c-0.729-0.014-1.16,0.399-1.174,1.161
		C36.414,25.496,36.426,26.421,36.426,27.347z M49.922,28.773c0-2.111-0.002-4.22,0-6.331c0.001-0.895,0.465-1.358,1.357-1.358
		h12.543c0.916,0,1.373,0.461,1.373,1.384v12.583c0,0.932-0.443,1.371-1.381,1.371c-4.18,0.002-8.36,0.002-12.541,0
		c-0.902,0-1.352-0.447-1.353-1.354L49.922,28.773z M60.146,29.84c0,0.753-0.248,1.313-0.781,1.74
		c-1.184,0.951-3.073,0.628-3.861-0.667c-0.572-0.945-0.656-1.984-0.463-3.04c0.348-1.902,1.754-2.836,3.57-2.363
		c0.41,0.107,0.785,0.359,1.173,0.552c0.229,0.113,0.442,0.277,0.684,0.354c0.655,0.212,1.259-0.167,1.269-0.852
		c0.007-0.32-0.146-0.696-0.348-0.954c-0.432-0.555-1.074-0.829-1.736-1.013c-1.865-0.518-3.651-0.438-5.203,0.872
		c-1.985,1.675-2.442,4.956-1.049,7.33c1.175,1.999,3.591,2.891,5.89,2.175c2.046-0.634,3.372-2.673,3.222-4.952
		c-0.06-0.872-0.453-1.254-1.326-1.259c-0.804-0.006-1.604-0.006-2.408,0c-0.715,0.003-1.147,0.405-1.137,1.047
		c0.01,0.648,0.434,1.024,1.157,1.03H60.146z M-0.002,28.745v-6.292c0-0.889,0.477-1.37,1.355-1.37h12.584
		c0.869,0,1.344,0.47,1.345,1.333c0.001,4.237,0.001,8.471-0.001,12.708c0,0.826-0.468,1.297-1.287,1.297
		c-4.236,0.002-8.473,0.002-12.708,0c-0.81,0-1.286-0.483-1.288-1.305C-0.004,32.993-0.002,30.867-0.002,28.745z M9.875,30.066
		l-0.32-0.399c-1.404-1.874-2.794-3.758-4.222-5.612c-0.214-0.28-0.574-0.535-0.911-0.614c-0.746-0.178-1.266,0.362-1.267,1.234
		c-0.004,2.723-0.001,5.448-0.001,8.17l0.02,0.325c0.072,0.531,0.438,0.89,0.969,0.945c0.761,0.078,1.267-0.396,1.272-1.237
		c0.01-1.605,0.003-3.212,0.003-4.817v-0.408c0.869,0.994,1.633,2.001,2.396,3.009c0.74,0.976,1.469,1.961,2.224,2.923
		c0.332,0.424,0.777,0.639,1.334,0.479c0.48-0.137,0.722-0.496,0.769-1.127l0.007-0.368c0-2.544,0-5.091-0.002-7.636
		c0-0.204-0.008-0.41-0.036-0.611c-0.082-0.557-0.469-0.894-1.028-0.911c-0.75-0.028-1.196,0.391-1.201,1.169
		c-0.011,1.658-0.004,3.322-0.004,4.981v0.504H9.875z M31.928,28.776v6.253c0,0.947-0.447,1.396-1.404,1.396h-12.5
		c-0.924,0-1.387-0.455-1.387-1.373c-0.002-4.195-0.002-8.389,0-12.583c0.001-0.911,0.475-1.384,1.384-1.384h12.541
		c0.884,0,1.364,0.478,1.366,1.358V28.776z M22.146,29.97l-0.089-0.025v-0.396c0-1.59,0.001-3.184-0.001-4.777
		c-0.002-0.175-0.008-0.356-0.044-0.526c-0.121-0.546-0.513-0.835-1.097-0.835c-0.584,0.003-0.971,0.297-1.084,0.846
		c-0.039,0.187-0.045,0.379-0.045,0.569c-0.004,2.626-0.002,5.253-0.002,7.879l0.006,0.329c0.084,0.962,0.98,1.398,1.777,0.849
		c0.185-0.129,0.339-0.312,0.477-0.495c1.368-1.797,2.729-3.6,4.092-5.4l0.286-0.348c0.085,0.192,0.085,0.339,0.085,0.487
		c0.002,1.593-0.008,3.187,0.006,4.777c0.01,0.892,0.643,1.39,1.453,1.177c0.529-0.137,0.809-0.537,0.81-1.213
		c0.004-2.737,0.004-5.474,0-8.208c-0.001-0.645-0.252-1.044-0.726-1.197c-0.5-0.164-1.045,0.025-1.404,0.498
		c-0.388,0.509-0.769,1.021-1.15,1.537L22.146,29.97z M52.947,40.232l-0.635,4.75h-1.22l-0.612-4.58l-0.094,0.004v4.564h-1.679
		v-7.494c0.774,0,1.532-0.008,2.291,0.014c0.073,0.005,0.185,0.201,0.203,0.324c0.157,0.922,0.296,1.849,0.44,2.774
		c0.008,0.05,0.034,0.097,0.143,0.152c0.152-1.068,0.308-2.137,0.463-3.236h2.462v7.47h-1.67v-4.736L52.947,40.232z M31.49,44.997
		v-7.578c1.146,0.063,2.271,0.078,3.385,0.205c0.678,0.08,1.07,0.608,1.078,1.297c0.021,1.604,0.027,3.209,0,4.811
		c-0.014,0.76-0.377,1.102-1.129,1.201c-0.242,0.031-0.487,0.059-0.731,0.063C33.236,45,32.381,44.997,31.49,44.997z M33.438,38.736
		v4.976c0.508,0.024,0.627-0.076,0.631-0.617c0.012-1.275,0.01-2.553,0.005-3.826C34.07,38.814,33.943,38.715,33.438,38.736z
		 M39.273,44.969V41.85h-0.586v3.121h-1.908v-7.469h1.883v2.664h0.611v-2.664h1.93v7.467H39.273z M26.353,37.475
		c0.481,0,0.942-0.02,1.4,0.014c0.106,0.012,0.247,0.184,0.29,0.309c0.279,0.826,0.533,1.658,0.799,2.488
		c0.039,0.121,0.088,0.236,0.215,0.34v-3.117h1.602v7.468h-1.656l-0.956-3.207l-0.099,0.021v3.184h-1.595V37.475L26.353,37.475z
		 M20.334,44.977H18.53l-0.002-1.84c-0.001-0.367,0-0.736-0.014-1.104c-0.013-0.326-0.166-0.511-0.576-0.431v3.375h-1.915v-7.502
		c0.646,0,1.282-0.013,1.915,0.004c0.394,0.01,0.786,0.041,1.177,0.092c0.631,0.082,1.01,0.479,1.115,1.082
		c0.077,0.437,0.072,0.892,0.068,1.336c-0.005,0.572-0.255,0.97-0.878,1.023l0.026,0.092c0.648,0.217,0.895,0.688,0.889,1.347
		C20.327,43.281,20.334,44.107,20.334,44.977z M17.954,40.418c0.382,0.063,0.556-0.086,0.567-0.422
		c0.009-0.287,0.014-0.572-0.003-0.855c-0.022-0.34-0.224-0.453-0.564-0.404V40.418L17.954,40.418z M21.1,41.208
		c0-0.601,0.006-1.197-0.002-1.797c-0.016-1.455,1.023-2.111,2.331-2.062c1.167,0.043,1.942,0.688,2.048,1.621
		c0.047,0.42,0.074,0.842,0.072,1.262c-0.008,1.021-0.028,2.039-0.062,3.058c-0.034,1.008-0.817,1.77-1.816,1.774
		c-0.394,0-0.798,0.019-1.173-0.076c-0.865-0.213-1.359-0.854-1.387-1.739c-0.02-0.685-0.005-1.361-0.005-2.041H21.1z
		 M23.019,41.208c0,0.731-0.005,1.469,0.003,2.205c0.002,0.196-0.033,0.446,0.271,0.452c0.292,0.005,0.302-0.237,0.305-0.438
		c0.007-1.469,0.012-2.941-0.008-4.41c-0.003-0.141-0.161-0.381-0.273-0.398c-0.281-0.043-0.296,0.213-0.296,0.424
		C23.017,39.764,23.019,40.484,23.019,41.208z M45.322,43.482v1.488h-3.288v-7.494c1.006,0,1.995-0.002,2.985,0.012
		c0.067,0,0.186,0.15,0.19,0.234c0.021,0.391,0.011,0.784,0.011,1.223h-1.238v1.416h1.146v1.451h-1.152v1.67H45.322L45.322,43.482z
		 M15.504,37.497v1.452h-1.119v6.021h-1.939V38.98h-1.134v-1.483H15.504z M45.961,37.508h1.889v7.469h-1.889V37.508z"/>
</g>
</svg>
