<?xml version="1.0" encoding="UTF-8" standalone="no"?>
<svg
   xmlns:dc="http://purl.org/dc/elements/1.1/"
   xmlns:cc="http://creativecommons.org/ns#"
   xmlns:rdf="http://www.w3.org/1999/02/22-rdf-syntax-ns#"
   xmlns:svg="http://www.w3.org/2000/svg"
   xmlns="http://www.w3.org/2000/svg"
   xmlns:sodipodi="http://sodipodi.sourceforge.net/DTD/sodipodi-0.dtd"
   xmlns:inkscape="http://www.inkscape.org/namespaces/inkscape"
   viewBox="0 0 226 98"
   version="1.1"
   id="svg6"
   sodipodi:docname="logo-white.svg"
   inkscape:version="0.92.3 (2405546, 2018-03-11)">
  <metadata
     id="metadata12">
    <rdf:RDF>
      <cc:Work
         rdf:about="">
        <dc:format>image/svg+xml</dc:format>
        <dc:type
           rdf:resource="http://purl.org/dc/dcmitype/StillImage" />
      </cc:Work>
    </rdf:RDF>
  </metadata>
  <defs
     id="defs10" />
  <sodipodi:namedview
     pagecolor="#ffffff"
     bordercolor="#666666"
     borderopacity="1"
     objecttolerance="10"
     gridtolerance="10"
     guidetolerance="10"
     inkscape:pageopacity="0"
     inkscape:pageshadow="2"
     inkscape:window-width="1920"
     inkscape:window-height="1028"
     id="namedview8"
     showgrid="false"
     inkscape:zoom="1.5132743"
     inkscape:cx="113"
     inkscape:cy="49"
     inkscape:window-x="0"
     inkscape:window-y="0"
     inkscape:window-maximized="1"
     inkscape:current-layer="svg6" />
  <g
     class="a"
     id="g4"
     style="stroke:none;fill:#fffffe;fill-opacity:1">
    <path
       d="M216.3 72.9L213.5 74.9 213.4 68.5 216.3 72.9ZM218.7 73.5L221.9 71.2 220.3 76.1 218.7 73.5ZM217.6 71.9L214.6 67.2 221.6 69 217.6 71.9ZM217.3 74.5L219.5 78 215.2 84.2 213.6 77.2 217.3 74.5ZM180.5 25.1L178.3 27.4 178.5 26.2 180.5 25.1ZM176.2 29.3L174 28.7 176.6 27.3 176.2 29.3ZM173.5 64L175 65.1 175 65.2 175.6 66.9 173.5 64ZM173.6 85L172.7 83.6 179.1 74.7 182.3 79.7 173.6 85ZM168.8 90.1L173.1 87.5 177.1 93.9 168.8 90.1ZM170 83.9L166.6 88.7 160.4 81.6 170 83.9ZM170.1 87.1L171.6 85 172.1 85.9 170.1 87.1ZM168.8 61L177.8 73.1 171.1 82.4 158.6 79.4 155.4 67.4 168.8 61ZM153.4 44.1L153.5 40.5 154.6 42.2 153.4 44.1ZM153.7 37.9L154.6 37.5 154.7 39.3 153.7 37.9ZM156.6 23.1L165.3 10.3 170.5 27.6 156.6 23.1ZM166.7 9.3L179 13.3 171.9 26.6 166.7 9.3ZM172.9 30.2L175.7 30.9 174.4 41.4 172.9 30.2ZM173.3 49.9L168.8 58.5 153.4 47.2 156 43.2 173.3 49.9ZM166.4 32.3L156.4 40.4 156.3 36.8 166.4 32.3ZM157.3 41.9L171 30.6 173.4 48.2 157.3 41.9ZM155.9 24.7L155.9 24.6 169.4 29.1 156.2 35 155.9 24.7ZM170.3 59.7L173.8 53 174.8 62.9 170.3 59.7ZM178.3 18.8L177 25.1 174 26.8 178.3 18.8ZM181.5 3.9L186.8 6.7 184.2 8.8 181.5 3.9ZM183.2 11.9L183.8 11.4 184 11.9 183.2 11.9ZM180.5 5.6L182.8 9.7 181 11.1 180.5 5.6ZM184.6 20.9L184.6 21 178.9 24.1 180.8 15.1 184.6 20.9ZM182.9 13.6L184.6 13.5 184.7 14.8 182.9 13.6ZM184.8 18.2L183.3 15.9 184.8 16.8 184.8 18.2ZM191.8 7.3L190.2 6.5 192.8 4.4 191.8 7.3ZM190.7 18.8L192.1 17.7 193.2 20.5 190.7 18.8ZM191.2 21.1L188.2 20.6 189.3 19.8 191.2 21.1ZM190.3 13.2L191.5 16.1 189.2 17.8 186.4 15.9 186.3 13.4 190.3 13.2ZM192.1 11.4L192.7 9.7 195.7 11.3 192.1 11.4ZM196 12.9L192.9 15.1 192.1 13.1 196 12.9ZM188.7 7.6L191.2 8.9 190.3 11.5 185.9 11.8 185.1 10.4 188.7 7.6ZM183.4 3.1L191.6 3.1 188.3 5.6 183.4 3.1ZM187.8 18.8L186.6 19.6 186.5 18 187.8 18.8ZM200.5 10L199.2 10.8 197.5 6.5 200.5 10ZM206.8 19.3L201.9 29 200.9 21.4 206.8 19.3ZM199.3 22L200.1 28.4 196.5 23 199.3 22ZM195.3 21.1L193.6 16.7 198.1 13.5 198.6 17.2 195.3 21.1ZM202.3 9.1L198 4.1 206.3 6.9 202.3 9.1ZM206.6 17.6L200.7 19.7 200.4 17.7 202.5 15.2 206.6 17.6 206.6 17.6ZM200.5 12L201.7 11.3 202.6 12.5 202.2 13 200.5 12ZM203.6 13.9L203.8 13.8 204.1 14.2 203.6 13.9ZM203.3 10.5L205.3 9.4 203.8 11.1 203.3 10.5ZM201.1 14.3L200.1 15.5 199.8 13.6 201.1 14.3ZM198.9 19.4L199 20.3 197.8 20.8 198.9 19.4ZM208.2 20.2L210.8 31.1 202.7 31.1 208.2 20.2ZM205 12.3L207.9 8.9 207.7 15.4 205 12.3ZM211.3 18.9L218.7 19.5 216.5 23.1 211.3 18.9ZM215.4 24.7L212.2 29.8 209.9 20.2 215.4 24.7ZM213.4 31L216.7 25.8 222.1 30.2 213.4 31ZM217.8 24.2L219.8 21 222.1 27.7 217.8 24.2ZM209.4 17L209.6 9.1 217.7 17.7 209.4 17ZM193.3 8.1L194.7 4.1 197.1 10.1 193.3 8.1ZM168.3 8L178.6 3.4 179.4 11.7 168.3 8ZM153.8 36L154.5 32.6 154.6 35.7 153.8 36ZM167.5 59.7L155.2 65.7 153.5 49.4 167.5 59.7ZM191.6 75.8L183.9 79.1 180.9 74.4 191.6 75.8ZM189.4 78.5L194.6 76.4 194.8 78 189.4 78.5ZM196.3 76.3L200.2 77.4 196.5 77.8 196.3 76.3ZM185.5 80.9L195.1 79.9 197.2 93 185.5 80.9ZM196.4 94.6L180.6 95 184 81.8 196.4 94.6ZM182.2 82.1L179.1 93.9 174.6 86.6 182.2 82.1ZM198.5 72.4L201.1 68.7 201.7 70.6 198.5 72.4ZM204.9 78.8L213.2 86.2 199.1 94 196.8 79.7 204.9 78.8ZM205.3 75.9L203.8 71.4 210.2 67.8 205.3 75.9ZM197.4 74.9L202.3 72.2 203.8 76.6 197.4 74.9ZM203.2 69.7L202.5 67.5 208.1 67 203.2 69.7ZM207.1 78.5L212 77.8 213.5 84.2 207.1 78.5ZM206.8 76.6L211.7 68.5 211.8 75.9 206.8 76.6ZM186.2 22.4L194.4 23.9 200.6 32.8C200.7 33 201 33.3 201.5 33.3L211.7 33.3 211.7 33.3 224.5 32.1C224.8 32 225.1 31.8 225.3 31.6 225.4 31.3 225.5 31 225.4 30.6L221.2 18.5C221.2 18.3 221.1 18.2 221 18.1L209.6 5.9C209.5 5.8 209.3 5.7 209.2 5.6L195 0.9C194.9 0.8 194.9 0.8 194.7 0.8L194.2 0.8 194.2 0.9 179.4 0.9 179.2 0.9 179 0.9 165 7.1C164.9 7.2 164.7 7.3 164.6 7.5L154.1 22.9C154 23 153.9 23.2 153.9 23.3L151.4 37.5 151.4 37.6 151.2 47.6 153.1 67.2 153.1 67.3 153.2 67.4 156.5 80.4C156.6 80.5 156.7 80.6 156.8 80.8L165.8 91C165.9 91.1 166 91.2 166.2 91.3L178.9 96.7 179.1 96.8 179.2 96.8C180.3 96.8 196 96.4 198.1 96.4 198.2 96.4 198.4 96.5 198.6 96.5L198.7 96.5 215.4 87.4C215.5 87.4 215.6 87.3 215.7 87.1L221.5 78.9C221.6 78.8 221.6 78.7 221.7 78.6L225 68.9C225.1 68.6 225.1 68.3 224.9 68 224.8 67.7 224.5 67.5 224.2 67.5L212.8 64.5C212.7 64.5 212.6 64.4 212.5 64.4L212.4 64.4 201.2 65.5C200.8 65.5 200.5 65.7 200.4 66L194.7 74 179.8 72.1 177.1 64.6 175.7 49.5 177.8 30.9 186.2 22.4ZM128.6 90.8L126.8 91.7 129.7 88.4 128.6 90.8ZM143.7 67.4L145 67 144.5 69.4 143.7 67.4ZM143.4 65.7L143.3 61.8 145.4 65.2 143.4 65.7ZM138.4 74.2L142.2 68.7 143.8 72.6 141.6 77.6 138.4 74.2ZM138.6 81.9L134.7 86.9 133.7 84 138.6 81.9ZM132.6 85.8L133.4 88.3 131 89.6 132.6 85.8ZM117.5 74.9L128.7 78.8 131.5 83.2 123 93.2 115.3 83.8 117.5 74.9ZM112.2 90.5L119.3 94 111.5 94.8 112.2 90.5ZM109.5 91.3L110.4 90.7 110 92.8 109.5 91.3ZM104.5 85.9L100.1 92.9 99.9 85.8 104.5 85.9ZM95.6 84.1L100.8 79.4 98.2 84.1 95.6 84.1ZM98.1 91.9L95 85.7 97.9 85.8 98.1 91.9ZM93.5 87.1L97.6 95.4 89.8 95.3 93.5 87.1ZM91.9 85.9L88.4 93.7 85.6 86.6 91.9 85.9ZM79 80.6L76.4 85.6 76.2 83.2 79 80.6ZM77.6 42L76.6 46.1 76.1 41.5 77.6 42ZM80.6 21.4L77 18.7 78.7 15.6 80.6 21.4ZM77.8 13.3L77.1 14.7 77.2 12.1 77.8 13.3ZM81.5 5.8L81.3 5.7 78 2.6 85.5 2.6 85.6 8 81.5 5.8ZM80.3 7.9L80.9 7.7 81.7 8.1 80.3 7.9ZM85.7 10.3L79.4 12.3 77.9 9.2 85.7 10.3ZM77 3.9L79.3 6.2 77.3 6.8 77 3.9ZM87.5 5L89.7 8.6 87.6 8.7 87.5 5ZM94.6 7.6L99 3.3 99.1 6.3 94.6 7.6ZM93.1 9.7L99.4 8 101.5 16.5 93.1 9.7ZM114.4 7L107.9 9.4 108.4 3.6 114.4 7ZM116.6 6.1L111.1 2.9 116.4 2.5 120.1 3.7 116.6 6.1ZM120.3 5.6L122.1 4.3 124.3 5 120.3 5.6ZM121.9 20L118.6 10.6 128.4 6.3 134.4 17.1 121.9 20ZM139.1 15.7L136.2 16.7 132.4 9.8 139.1 15.7ZM135.5 37.3L144.3 28.6 145.1 39.4 135.5 37.3ZM141.2 43.4L144.6 42.1 143 45.2 141.2 43.4ZM143.8 50.2L143.8 49.9 144.1 50.5 143.8 50.2ZM144.2 46.6L145.2 44.6 145.2 48.9 144.2 46.6ZM140.3 79.1L134.6 81.6 137.4 76 140.3 79.1ZM119.4 91.9L112.8 88.7 114.4 85.7 119.4 91.9ZM107 84.6L105.5 76.7 109.4 78.3 110.3 87 107 84.6ZM109.8 89L108.9 89.5 108.3 87.9 109.8 89ZM105.9 87.2L107.2 90.5 102 93.6 105.9 87.2ZM100.4 84.2L103.8 78 105 84.2 100.4 84.2ZM101.8 76.3L97.2 80.4 99.6 76.3 101.8 76.3ZM84.1 76L89.6 72.2 91.9 82.5 84.1 76ZM83.9 87.8L87 95.3 77.6 95.3 83.9 87.8ZM83.2 85.3L77.6 87.5 82.1 78.8 83.2 85.3ZM77 53.1L86.1 57.1 78.7 66.6 76.4 66.2 77 53.1ZM98.9 20.4L94.5 12.9 101.5 18.6 98.9 20.4ZM99.4 26L99.5 22.1 101.1 20.9 99.4 26ZM82.9 69.5L82 73.7 78.6 69.6 79.4 68.6 82.9 69.5ZM80.7 67.1L85.4 61.2 83.3 67.9 80.7 67.1ZM88.1 70.9L83.9 73.8 84.6 69.9 88.1 70.9ZM84.4 46.1L77.3 49.8 79.2 42.9 84.4 46.1ZM89.2 37.2L79.5 40.3 78.8 35.3 89.2 37.2ZM91.9 25.7L83 23.2 83 23.2 79.9 13.9 90.9 10.3 97.5 21.4 91.9 25.7ZM90.7 38.5L86.2 44.9 80.8 41.7 90.7 38.5ZM90.3 27L84.4 31.9 83.5 25.1 90.3 27ZM91.8 35.6L85.5 33.3 91.4 28.3 91.8 35.6ZM96.4 52.5L88.3 55.5 87.4 47.7 96.4 52.5ZM96.9 43.7L88.2 45.1 92.8 38.4 96.9 43.7ZM93.9 37L97.4 34 97.4 41.6 93.9 37ZM89 46.6L97.4 45.3 97.5 51.2 89 46.6ZM93.1 28.6L97 32 93.5 35.1 93.1 28.6ZM97.6 59.8L90 56.7 97.6 53.9 97.6 59.8ZM93.4 26.7L97.7 23.4 97.5 30.2 93.4 26.7ZM79 33.1L81.8 27.1 82.6 32.9 79 33.1ZM85.7 47.6L86.6 55.2 78.2 51.5 85.7 47.6ZM97.1 61.4L89.9 69.7 85 68.3 88.2 57.8 97.1 61.4ZM91.4 84.3L84.9 85 83.8 77.9 91.4 84.3ZM98.1 73.9L91.5 70.4 97.7 63.2 98.1 73.9ZM102.8 74.3L99.8 74.4 99.6 68.3 99.5 66.2 102.8 74.3ZM118.1 9.1L117.7 7.9 122.2 7.3 118.1 9.1ZM118.7 25.5L121 26.6 121.2 28.5 118.7 25.5ZM128 28L122.8 25.3 122.4 21.7 133.6 19.2 128 28ZM139.2 24.6L130.6 27.6 135.8 19.4 139.2 24.6ZM138.6 44.4L139.3 44.2 140 44.8 138.6 44.4ZM139.4 46.4L142.4 47.2 142.2 48.9 139.4 46.4ZM138.3 48L142 51.2 141.6 55.2 138.3 48ZM128.8 62.2L136 74.1 129.5 77.1 122.9 68.1 128.8 62.2ZM118.4 73.4L121.8 69.4 127 76.4 118.4 73.4ZM112 75.3C112.1 75.3 112.2 75.2 112.4 75.2L112.4 75.1 113.2 75 110.2 76.8 110.2 76.8 107.7 75.8 112 75.3ZM116.8 72.3L116.2 73 115.6 73.1 116.8 72.3ZM122.6 47.6L122.1 53.8 121.8 55.9 120.7 67.4 111.5 73.4 104.8 74.2 99.4 60.9 99.3 32.2 103.5 19.9 114.7 23.5 121.5 32 122.6 47.6ZM131.7 41.2L133.3 39.6 134.2 42.6 131.7 41.2ZM129.6 59.7L126.6 52.5 135.5 46 140.9 57.8 129.6 59.7ZM123.7 57.8L127.6 60.8 123 65.4 123.7 57.8ZM126.5 32.9L124.5 31.9 127 30.8 126.5 32.9ZM129.9 40.2L127.3 38.7 127.9 35.6 132.3 38 129.9 40.2ZM126.4 46L130.2 42.4 133.5 44.3 126.4 46ZM131.6 46.5L125.9 50.7 124.8 48.2 131.6 46.5ZM124.4 33.7L126.1 34.6 125.8 36.4 124.4 33.7ZM128.7 41.6L125.4 44.7 126.7 40.5 128.7 41.6ZM125.3 39.3L124.1 43.2 123.6 35.8 125.3 39.3ZM124 55.5L124.1 54.4 125 53.7 126.7 57.7 124 55.5ZM123 27.6L126.1 29.2 123.3 30.3 123 27.6ZM128.2 33.9L128.8 31.5 131.4 35.6 128.2 33.9ZM131.8 61L141.2 59.4 141.4 65.5 131.8 61ZM136.5 43.4L135.7 40.9 137.9 42.9 136.5 43.4ZM129.7 29.7L138.6 26.6 133.7 36 129.7 29.7ZM118 22.9L120.5 22.2 120.7 24.3 118 22.9ZM115.7 21.6L108.7 11.5 116.9 11.2 120.1 20.3 115.7 21.6ZM112.7 9.4L116 8.2 116.4 9.3 112.7 9.4ZM115.3 75.7L113.9 81.6 111.6 78 115.3 75.7ZM141.2 67.2L137.4 72.8 131.3 62.7 141.2 67.2ZM143.4 40.8L139.9 42.1 136.9 39.3 143.4 40.8ZM137.4 33.2L141 26.2 143.6 27 137.4 33.2ZM137.4 18L140.1 17.1 139.9 20.3 137.4 18ZM104.2 18.1L107 12.4 112.9 20.9 104.2 18.1ZM101.8 6.9L106.7 3.8 106.2 9.3 101.8 6.9ZM105.8 11.1L103.2 16.2 101.3 8.6 105.8 11.1ZM91.5 7.8L88.3 2.6 97.3 2.3 91.5 7.8ZM81.2 24.2L78.3 30.6 77.1 21.2 81.2 24.2ZM76.3 39.8L77.2 37.8 77.5 40.2 76.3 39.8ZM81.3 75.7L76.8 80.1 78.3 71.9 81.3 75.7ZM81.1 88.2L76.7 93.4 76.6 89.9 81.1 88.2ZM97.8 75.6L93.9 82.3 91.6 72.3 97.8 75.6ZM107.9 92.3L109 95 102.9 95.2 107.9 92.3ZM113.1 84L112.1 85.9 111.7 81.8 113.1 84ZM135.4 76.2L132.6 81.7 130.5 78.5 135.4 76.2ZM145.5 55.8L145.5 62.9 143 58.5 145.5 55.8ZM145.3 53.9L143.3 56 143.7 52.5 145.3 53.9ZM141.4 24.4L141.4 24.1 141.9 24.6 141.4 24.4ZM141.5 21.8L141.6 20.4 142.6 22.8 141.5 21.8ZM104.8 2.8L101 5.2 100.9 2.3 104.8 2.8ZM147.5 40.5L146.4 26.5C146.4 26.3 146.3 26.2 146.3 26.1L142 15.5C142 15.4 141.9 15.2 141.7 15.1L129.5 4.4C129.4 4.3 129.3 4.3 129.1 4.2L122.4 2.2 116.9 0.4C116.8 0.3 116.7 0.3 116.5 0.3 116.5 0.3 107.7 1 107.7 1L100.1 0 100 0 86.7 0.5 75.7 0.5C75.3 0.5 75 0.6 74.9 0.8 74.7 1 74.6 1.3 74.6 1.6L75.2 8.2 74.7 19 74.7 19.1 76.5 33.9 73.9 39.8C73.9 40 73.8 40.2 73.8 40.3L74.9 51.6 74.2 66.8C74.2 67.1 74.3 67.4 74.5 67.6L76.5 69.9 74.1 82.8 74 83 74.4 89.2 74.6 96.4C74.6 97 75.1 97.4 75.7 97.4L99.2 97.4 110.5 97 123.1 95.7C123.3 95.7 123.4 95.7 123.5 95.6L129.7 92.7 134.8 90C135 89.9 135.1 89.8 135.2 89.7L142.8 80.1 143 79.8 145.9 73.2 145.9 73.1 147.5 66.2 147.7 66.1 147.7 53.3 147.5 40.5ZM61.1 4.2L69.5 3.3 62.6 14.5 61.1 4.2ZM44.4 89.4L47 87 47.2 92.4 44.4 89.4ZM41.7 89.3L36.1 94.5 34.5 81.4 41.7 89.3ZM26.8 94.9L32.7 82 34.3 95.3 26.8 94.9ZM30.7 81.7L26.2 91.7 25.8 85.6 30.7 81.7ZM35.9 3.3L27.2 6.1 24.3 3 35.9 3.3ZM37.5 15L28.8 7.6 40.5 3.8 37.5 15ZM40.1 16.7L49 13.1 47.3 21.1 40.1 16.7ZM29.5 47.2L41.6 42.2 47.1 54.5 47.1 54.5 38.7 60.4 29.5 47.2ZM39.7 61.8L46.9 56.7 46.1 68.3 39.7 61.8ZM43.9 82.1L46.2 75.5 46.8 83.3 43.9 82.1ZM43.9 87.2L43.1 87.9 42.8 87.6 43.9 87.2ZM45.5 84.6L42.7 85.6 43.4 83.7 45.5 84.6ZM41.6 82.9L40.7 85.4 36.7 80.8 41.6 82.9ZM45.3 72.4L42.1 81.3 35.1 78.4 45.3 72.4ZM30.7 67.9L35.3 68.9 33.2 75.4 30.7 67.9ZM36.1 30.7L38.7 18.1 46.2 22.7 36.1 30.7ZM26.9 72.6L26.4 74.4 26.6 72.2 26.9 72.6ZM33.3 32.6L26.3 36.2 25.9 24.8 33.3 32.6ZM33.1 38.4L35 34.3 39.8 39.8 33.1 38.4ZM28.3 44.6L26.5 38.8 30.6 39.6 28.3 44.6ZM27.2 47.1L26.7 48.5 26.6 44.7 27.2 46.7C27.1 46.8 27.1 46.9 27.1 47L27.2 47.1ZM27 53.4L27.5 51.7 27.7 54 27.1 53.6 27 53.4ZM27.3 55.9L27.7 56.1 27.7 57.6 27.3 55.9ZM28.2 66.4L26.7 67.7 26.8 61.4 28.2 66.4ZM29.3 50.2L35.2 58.7 29.5 55.3 29.3 50.2ZM27.8 37.3L33 34.7 31.4 38.1 27.8 37.3ZM39.2 41.4L29.8 45.3 32.3 40 39.2 41.4ZM27.7 69.1L27.4 70.6 26.8 70 27.7 69.1ZM28.7 72.1L29.3 69.9 30.9 74.6 28.7 72.1ZM36.7 61.6L30.1 65.2 29.7 57.3 36.7 61.6ZM43.3 33.8L36.8 32.3 46 25 43.3 33.8ZM37.3 34.4L42.8 35.7 41.6 39.3 37.3 34.4ZM44 38.1L44.6 36.1 45.9 36.4 44 38.1ZM45.2 34.3L46.8 29.1 46.8 34.7 45.2 34.3ZM37 18L34.4 30.9 26.2 22.4 37 18ZM31.9 78.3L26.1 82.9 28.2 74.1 31.9 78.3ZM36.9 63.4L35.9 67.1 31.8 66.2 36.9 63.4ZM37.7 67.5L38.9 63.4 44.3 68.9 37.7 67.5ZM34.8 76.6L37.2 69.3 44.5 70.9 34.8 76.6ZM43.1 41.5L46.9 38.2 47 50.2 43.1 41.5ZM27.7 8.9L36.5 16.4 25.8 20.7 27.7 8.9ZM43 90.7L46.2 94.3 38.2 95.1 43 90.7ZM48.8 11.4L39.5 15.1 42.4 4.2 48.8 11.4ZM51.8 11.6L59.3 5.1 60.9 16.1 51.8 11.6ZM59.8 17.4L58.7 17.7 56.3 15.7 59.8 17.4ZM50.7 13.4L56.5 18.4 49 21.1 50.7 13.4ZM50.2 10.4L44.1 3.6 57.4 4.2 50.2 10.4ZM58.3 19.8L60.5 21.7 53.2 21.6 58.3 19.8ZM61.5 20.3L60.1 19 61.3 18.6 61.5 20.3ZM18.9 18.6L20.7 16.5 22.7 20.3 18.9 18.6ZM16.1 19.2L14.6 21 14.2 18.3 16.1 19.2ZM8.7 20L10.9 21.7 5.9 21.4 8.7 20ZM7.8 10.9L11.9 16.6 8.9 18.1 2.7 13.4 7.8 10.9ZM6.8 9.5L2.4 11.7 3.2 4.3 6.8 9.5ZM9.4 10.2L14.7 7.6 12.8 15 9.4 10.2ZM8.4 8.8L4.5 3.4 13.7 6.3 8.4 8.8ZM12.9 21.1L10.4 19.2 12.5 18.2 12.9 21.1ZM25.4 7.9L21 13.5 18.7 9.2 19.8 7.3 25.4 7.9ZM17.7 10.9L19.8 14.9 17.3 17.9 14.4 16.6 17.7 10.9ZM18.9 5.6L16.2 5.3 9 3.1 20.4 3.1 18.9 5.6ZM16.7 9.2L15.5 11.3 16.3 8.3 16.7 9.2ZM20.9 21.3L16.2 21.7 17.7 19.9 20.9 21.3ZM20.7 5.7L22.2 3.2 24.9 6.1 20.7 5.7ZM7.2 18.9L3.1 20.8 2.4 15.3 7.2 18.9ZM25.5 10.5L24.1 19.3 21.8 15.1 25.5 10.5ZM63.3 17.2L70.2 5.8 69.6 20.8 63.3 17.2ZM66.9 21.5L63.7 21.6 63.4 19.4 66.9 21.5ZM71.4 1L71.4 1 60 2.2 41.9 1.4 22.1 0.9 2.3 0.9C1.8 0.9 1.3 1.3 1.3 1.8L0 13.2 0 13.4 1.1 22.3C1.1 22.9 1.6 23.2 2.1 23.3L13.9 24.1 14 24.1 23.6 23.3 24.2 37.7 24.7 54 24.5 69.9 23.6 85.3 24.3 96C24.3 96.5 24.7 96.9 25.3 96.9L35.2 97.4 35.2 97.5 35.6 97.5 48.5 96.2C49 96.1 49.4 95.6 49.4 95.1L49 84.4 48.1 70.4 49.2 54.7 48.9 23.7 62.7 23.8 70.6 23.8C71.1 23.8 71.6 23.4 71.6 22.8L72.5 2.1C72.5 1.8 72.4 1.5 72.2 1.3 72 1.1 71.7 1 71.4 1L71.4 1Z"
       class="a"
       id="path2"
       style="stroke:none;fill:#fffffe;fill-opacity:1" />
  </g>
</svg>
