<?xml version="1.0" encoding="utf-8"?>
<!-- Generator: Adobe Illustrator 16.0.0, SVG Export Plug-In . SVG Version: 6.00 Build 0)  -->
<!DOCTYPE svg PUBLIC "-//W3C//DTD SVG 1.1//EN" "http://www.w3.org/Graphics/SVG/1.1/DTD/svg11.dtd">
<svg version="1.1" id="Partner" xmlns="http://www.w3.org/2000/svg" xmlns:xlink="http://www.w3.org/1999/xlink" x="0px" y="0px"
	 width="800px" height="180px" viewBox="-153.783 -32.5 800 180" enable-background="new -153.783 -32.5 800 180"
	 xml:space="preserve">
<g>
	<title>jz17-partner-bekk</title>
	<path fill="#FFFFFF" d="M2.107,0.083h42.908c0,0,35.386-2.988,35.386,26.789S49.893,54.406,44.072,54.406H1.997V41.181h43.668
		c0,0,19.233,0.883,19.233-14.309c0-14.665-12.993-13.643-19.698-13.643H2.107V0.083z"/>
	<path fill="#FFFFFF" d="M74.623,64.255c7.962,4.618,12.727,13.254,12.389,22.452c0,29.779-30.521,28.092-36.344,28.092H-0.001
		v-13.193h51.938c0,0,19.449,0.248,19.572-14.943c0.094-10.438-6.55-18.381-12.898-22.453L74.623,64.255z"/>
	<path fill="#FFFFFF" d="M125.198,64.255h18.334v26.017c0,8.547,5.125,11.35,10.205,11.35h50.125V115h-60.406
		c-6.287,0-18.257-4.07-18.257-21.059L125.198,64.255L125.198,64.255z"/>
	<path fill="#FFFFFF" d="M204.019,41.258h-51.877c-5.078,0-8.672-0.495-8.672-6.317c0-0.914,0-14.17,0.094-15.176
		c0-6.117,3.098-6.504,8.223-6.504h52.109V0.083h-59.125c0,0-19.573-1.301-19.573,19.635v14.604
		c0,18.799,14.03,20.023,20.315,20.023h58.381L204.019,41.258z"/>
	<path fill="#FFFFFF" d="M335.211,0.113C332.455,3.211,306.826,33.794,303.574,37c-5.42,5.342-15.113,4.194-22.979,4.194
		c-7.867,0-9.293-6.039-9.293-10.143c0-4.103,0-27.223,0-30.97h-18.334c0,3.918,0,36.003,0,41.083
		c0,4.042,1.891,13.193,18.148,13.193h31.313c4.025,0,10.08-2.446,17.033-10.686c2.152-2.445,31.9-38.264,36.699-43.561H335.211
		L335.211,0.113z"/>
	<path fill="#FFFFFF" d="M317.248,72.461c-3.824-4.134-7.309-8.206-19.373-8.206h-26.68c-13.348,0-18.104,9.694-18.104,14.772
		v35.816h18.18c0-3.717,0-26.729,0-30.846c0-4.12,1.209-6.428,9.184-6.428s6.627,0,7.525,0c7.512,0,11.738,0.264,15.607,4.136
		c3.238,3.222,29.873,29.886,32.924,33.106h20.92C352.338,109.285,319.416,74.8,317.248,72.461z"/>
	<path fill="#FFFFFF" d="M470.181,0.161c-2.756,3.097-28.385,33.68-31.637,36.887c-5.42,5.343-15.113,4.196-22.98,4.196
		c-7.865,0-9.291-6.039-9.291-10.143s0-27.224,0-30.971h-18.334c0,3.918,0,36.003,0,41.083c0,4.042,1.889,13.194,18.148,13.194
		H437.4c4.025,0,10.08-2.447,17.033-10.686c2.059-2.432,31.822-38.234,36.652-43.545L470.181,0.161z"/>
	<path fill="#FFFFFF" d="M452.172,72.508c-3.793-4.148-7.277-8.253-19.324-8.253H406.15c-13.35,0-18.104,9.694-18.104,14.772v35.816
		h18.182c0-3.717,0-26.729,0-30.846c0-4.12,1.207-6.428,9.182-6.428c7.977,0,6.629,0,7.527,0c7.51,0,11.736,0.264,15.607,4.136
		c3.236,3.222,29.871,29.886,32.922,33.106h20.967C487.308,109.316,454.386,74.848,452.172,72.508z"/>
</g>
</svg>
