<?xml version="1.0" encoding="utf-8"?>
<!-- Generator: Adobe Illustrator 16.0.0, SVG Export Plug-In . SVG Version: 6.00 Build 0)  -->
<!DOCTYPE svg PUBLIC "-//W3C//DTD SVG 1.1//EN" "http://www.w3.org/Graphics/SVG/1.1/DTD/svg11.dtd">
<svg version="1.1" id="Partner" xmlns="http://www.w3.org/2000/svg" xmlns:xlink="http://www.w3.org/1999/xlink" x="0px" y="0px"
	 width="800px" height="180px" viewBox="-183.401 -32.5 800 180" enable-background="new -183.401 -32.5 800 180"
	 xml:space="preserve">
<title>jz17-partner-bouvet</title>
<g>
	<path fill="#FFFFFF" d="M305.296,40.283c-2.725,6.974-6.021,15.707-9.373,24.14c-5.447,13.623-10.762,27.734-12.068,31.018
		c-1.432-3.174-7.588-17.438-13.705-31.018c-3.908-8.664-7.643-17.533-10.625-24.14h-17.178l10.639,24.14l18.648,42.352
		c2.029,4.83,6.695,8.026,11.934,8.174c5.4,0.506,10.48-2.638,12.438-7.697l16.77-42.773l9.332-24.193L305.296,40.283
		L305.296,40.283z"/>
	<path fill="#FFFFFF" d="M220.482,64.477v14.371c0,11.053-8.959,20.012-20.011,20.012c-11.053,0-20.013-8.959-20.013-20.012l0,0
		V40.377h-15.625v38.471c0,19.7,15.971,35.672,35.67,35.672c19.702,0,35.67-15.972,35.67-35.672V40.377h-15.691V64.477
		L220.482,64.477z"/>
	<path fill="#FFFFFF" d="M37.503,39.37c-7.832,0-15.461,2.48-21.796,7.084V0H0v77.063c0.12,20.697,16.996,37.378,37.692,37.258
		c20.698-0.121,37.378-16.996,37.257-37.692C74.83,56.028,58.104,39.385,37.503,39.37z M37.503,99.051
		c-12.157,0.083-22.081-9.706-22.163-21.863c-0.083-12.158,9.705-22.081,21.863-22.164c12.157-0.083,22.081,9.705,22.164,21.864
		c0,0.059,0,0.116,0,0.176C59.383,89.165,49.604,98.998,37.503,99.051z"/>
	<path fill="#FFFFFF" d="M119.456,39.152C98.64,39.047,81.679,55.84,81.576,76.659c-0.104,20.815,16.688,37.775,37.505,37.879
		c20.817,0.104,37.778-16.688,37.881-37.504c0.022-4.273-0.684-8.521-2.086-12.557C149.659,49.36,135.448,39.199,119.456,39.152z
		 M119.456,98.847c-12.172,0.135-22.148-9.623-22.285-21.796c-0.135-12.172,9.623-22.149,21.796-22.284
		c12.173-0.136,22.149,9.623,22.284,21.795c0.001,0.086,0.002,0.171,0.002,0.257c0.054,12.1-9.696,21.959-21.797,22.041V98.847z"/>
	<path fill="#FFFFFF" d="M358.984,99.037c-12.154-0.303-21.764-10.399-21.461-22.555c0.293-11.729,9.73-21.168,21.461-21.46
		c5.115,0.007,10.061,1.837,13.949,5.163l0,0l-7.385,4.264l-10.188,5.886l0,0c-3.764,2.162-5.059,6.967-2.896,10.728
		c2.162,3.763,6.967,5.06,10.729,2.896l25.609-14.793l0,0c1.742-1.043,3.008-2.725,3.527-4.687c0.578-2.028,0.303-4.202-0.762-6.021
		c-1.297-2.242-2.816-4.347-4.537-6.281l-0.107-0.108c-13.594-15.498-37.176-17.042-52.674-3.448
		c-4.867,4.27-8.541,9.729-10.658,15.846c-7.1,19.466,2.926,41,22.391,48.101c18.934,6.905,39.939-2.382,47.576-21.032l-14.4-6.213
		C375.861,93.581,367.876,99.009,358.984,99.037z"/>
	<path fill="#FFFFFF" d="M418.335,0.219H402.71v85.822c0.051,15.693,12.646,28.465,28.336,28.73h2.152V99.12h-1.785
		c-7.223-0.038-13.063-5.896-13.078-13.117V56.032h14.863V40.379h-14.85L418.335,0.219z"/>
</g>
</svg>
