<svg xmlns:xlink="http://www.w3.org/1999/xlink" xmlns="http://www.w3.org/2000/svg" viewBox="0 0 203 49">
    <g>
        <g class="logo-text" fill="#fff" fill-rule="evenodd">
            <path d="M46.7 38.8c-5 0-12-1.2-12-13.5 0-12.1 8-13.7 12.6-13.7 3.7 0 6.4 1.3 6.4 1.3v5.9s-3.7-1-5.6-1c-2.6 0-5 .9-5 7.5 0 6 1.7 7.2 4.6 7.2 2.4 0 6-1 6-1v6s-3.3 1.3-7 1.3"/>
            <path d="M67 16.7c-3 0-3.6 2.2-3.7 6.4h7c-.2-4.4-.8-6.4-3.4-6.4zm11.2 11H63.3c.1 4.2 2.3 4.9 5.2 4.9 3 0 8.3-1.3 8.3-1.3v6.2s-4.2 1.3-8.8 1.3c-5.7 0-13-1.3-13-13.6 0-11.1 6.4-13.6 12-13.6 5 0 11.5 2.4 11.3 13.6v2.6z"/>
            <path d="M96.2 38.3v-18c0-1.6-.5-2.1-2.2-2.1-2.4 0-5.2 1.6-5.2 1.6v18.5h-8.4V12.1h7.1l1.1 2.6s3.8-3.1 8.5-3.1c4.3 0 7.5 1.9 7.5 7.8v19h-8.4"/>
            <path d="M137.5 18.7c-2 0-3.3.9-3.3.9v18.7h-8.4V12.1h6.6l1.2 2.5s2-3 5-3c1.7 0 3 .3 3 .3v7.3s-2.1-.5-4-.5"/>
            <path d="M144 38.3h8.4V12.1H144z"/>
            <path d="M166.6 38.8c-5 0-12-1.2-12-13.5 0-12.1 8-13.7 12.6-13.7 3.6 0 6.4 1.3 6.4 1.3v5.9s-3.7-1-5.6-1c-2.6 0-5 .9-5 7.5 0 6 1.7 7.2 4.6 7.2 2.3 0 6-1 6-1v6s-3.3 1.3-7 1.3"/>
            <path d="M118.7 32.6c-.9 0-1.7-.2-1.7-1.7V17h5l.7-4.8H117V7l-8.3 2.5V12h-2.3v4.7h2.3v14.4c0 6.7 4 7.6 8 7.6 3.5 0 6.5-1.1 6.5-1.1v-5.9s-3.3.8-4.5.8"/>
        </g>
    </g>
</svg>
