<?xml version="1.0" encoding="utf-8"?>
<!-- Generator: Adobe Illustrator 16.0.0, SVG Export Plug-In . SVG Version: 6.00 Build 0)  -->
<!DOCTYPE svg PUBLIC "-//W3C//DTD SVG 1.1//EN" "http://www.w3.org/Graphics/SVG/1.1/DTD/svg11.dtd">
<svg version="1.1" id="Layer_1" xmlns="http://www.w3.org/2000/svg" xmlns:xlink="http://www.w3.org/1999/xlink" x="0px" y="0px"
	 width="640px" height="180px" viewBox="-68.844 -32.5 640 180" enable-background="new -68.844 -32.5 640 180"
	 xml:space="preserve">
<path fill="#FFFFFF" d="M70.491,107.5c-15.723,0-37.736-3.773-37.736-42.453c0-38.051,25.157-43.082,39.623-43.082
	c11.635,0,20.126,4.088,20.126,4.088v18.554c0,0-11.635-3.146-17.61-3.146c-8.176,0-15.723,2.83-15.723,23.586
	c0,18.868,5.345,22.644,14.465,22.644c7.546,0,18.868-3.146,18.868-3.146v18.867C92.504,103.412,82.127,107.5,70.491,107.5"/>
<path fill="#FFFFFF" d="M134.328,38.002c-9.434,0-11.321,6.919-11.635,20.126h22.013c-0.63-13.838-2.516-20.126-10.693-20.126
	H134.328z M169.549,72.595h-46.855c0.314,13.207,7.233,15.41,16.353,15.41c9.435,0,26.101-4.09,26.101-4.09v19.497
	c0,0-13.208,4.088-27.674,4.088c-17.924,0-40.88-4.088-40.88-42.768c0-34.907,20.125-42.769,37.735-42.769
	c15.724,0,36.165,7.547,35.536,42.769v8.175L169.549,72.595z"/>
<path fill="#FFFFFF" d="M226.154,105.928V49.323c0-5.033-1.572-6.604-6.917-6.604c-7.548,0-16.353,5.032-16.353,5.032v58.176
	h-26.415V23.537h22.326l3.459,8.177c0,0,11.95-9.749,26.73-9.749c13.523,0,23.586,5.975,23.586,24.528v59.75h-26.417"/>
<path fill="#FFFFFF" d="M296.91,88.005c-2.829,0-5.345-0.631-5.345-5.347V38.946h15.724l2.199-15.093h-17.923V7.5l-26.104,7.862
	v7.862h-7.231v14.778h7.231v45.285c0,21.069,12.579,23.898,25.159,23.898c11.006,0,20.439-3.459,20.439-3.459V85.173
	c0,0-10.377,2.518-14.15,2.518"/>
<path fill="#FFFFFF" d="M356.03,44.291c-6.289,0-10.377,2.832-10.377,2.832v58.806h-26.417V23.537h20.757l3.771,7.861
	c0,0,6.291-9.434,15.724-9.434c5.347,0,9.435,0.944,9.435,0.944v22.956c0,0-6.604-1.573-12.578-1.573"/>
<path fill="#FFFFFF" d="M376.471,105.928h26.416V23.537h-26.416V105.928z"/>
<path fill="#FFFFFF" d="M447.541,107.5c-15.724,0-37.737-3.773-37.737-42.453c0-38.051,25.159-43.082,39.624-43.082
	c11.321,0,20.128,4.088,20.128,4.088v18.554c0,0-11.638-3.146-17.61-3.146c-8.178,0-15.724,2.83-15.724,23.586
	c0,18.868,5.345,22.644,14.465,22.644c7.231,0,18.869-3.146,18.869-3.146v18.867C469.554,103.412,459.177,107.5,447.541,107.5"/>
</svg>
