<?xml version="1.0" encoding="utf-8"?>
<!-- Generator: Adobe Illustrator 16.0.0, SVG Export Plug-In . SVG Version: 6.00 Build 0)  -->
<!DOCTYPE svg PUBLIC "-//W3C//DTD SVG 1.1//EN" "http://www.w3.org/Graphics/SVG/1.1/DTD/svg11.dtd">
<svg version="1.1" id="Calque_1" xmlns="http://www.w3.org/2000/svg" xmlns:xlink="http://www.w3.org/1999/xlink" x="0px" y="0px"
	 width="800px" height="180px" viewBox="-274.916 -14 800 180" enable-background="new -274.916 -14 800 180" xml:space="preserve">
<g id="Layer_1">
	<g>
		<path fill="#FFFFFF" d="M62.942,40.679c-22.506,0-36.307,17.578-36.307,35.321c0,21.356,17.415,35.32,36.471,35.32
			c12.65,0,24.643-5.585,34.829-14.62v26.448c-10.679,6.41-25.3,10.352-36.636,10.352c-32.529,0-59.8-26.449-59.8-57.5
			c0-32.857,27.435-57.5,59.964-57.5c12.486,0,27.108,3.778,36.635,8.543V53C86.105,45.114,73.951,40.679,62.942,40.679z"/>
		<path fill="#FFFFFF" d="M167.101,133.5c-32.693,0-60.294-25.462-60.294-57.5c0-32.364,27.436-57.5,61.771-57.5
			c12.485,0,27.928,3.286,37.458,7.722v25.792c-10.843-6.244-24.807-11.336-36.965-11.336c-22.506,0-37.128,17.578-37.128,35.321
			c0,20.863,17.248,35.979,37.456,35.979c4.271,0,8.381-0.33,13.637-2.302V88.979h-18.401V67.129h42.059v58.159
			C194.699,130.708,181.229,133.5,167.101,133.5z"/>
		<path fill="#FFFFFF" d="M225.009,131.199V20.8h23.658v110.399H225.009L225.009,131.199z"/>
	</g>
</g>
</svg>
