<?xml version="1.0" encoding="utf-8"?>
<!-- Generator: Adobe Illustrator 16.0.0, SVG Export Plug-In . SVG Version: 6.00 Build 0)  -->
<!DOCTYPE svg PUBLIC "-//W3C//DTD SVG 1.1//EN" "http://www.w3.org/Graphics/SVG/1.1/DTD/svg11.dtd">
<svg version="1.1" id="Partner" xmlns="http://www.w3.org/2000/svg" xmlns:xlink="http://www.w3.org/1999/xlink" x="0px" y="0px"
	 width="800px" height="180px" viewBox="-224.394 -32.5 800 180" enable-background="new -224.394 -32.5 800 180"
	 xml:space="preserve">
<title>jz17-partner-dips</title>
<g>
	<path fill="#FFFFFF" d="M14.85,7.074c0,0,28.781-14.046,54.907-2.553c24.518,10.699,38.857,44.386,15.323,76.615
		c-8.146,11.197-21.938,18.654-21.938,18.654s15.323-29.268,5.261-53.527c-5.991-14.197-17-25.688-30.927-32.281
		C28.308,9.487,14.85,7.074,14.85,7.074"/>
	<path fill="#FFFFFF" d="M-0.001,22.104c5.507-2.387,11.233-4.229,17.099-5.504c5.845-1.072,11.783-1.543,17.724-1.404
		c0,0,19.23,7.367,29.076,26.42c9.64,18.643,5.005,35.166,2.247,44.551c-2.185,7.434-7.139,14.559-4.38,15.604
		c1.582,0.586,3.359,0.066,4.38-1.275c-2.594,2.863-5.444,5.484-8.518,7.826c-4.839,3.627-9.614,6.68-9.614,6.68
		s14.685-27.059,6.729-50.771C47.782,43.467,31.948,33.838,24.35,29.752c-10.306-5.619-24.352-7.66-24.352-7.66"/>
	<polygon fill="#FFFFFF" points="213.299,87.736 212.608,87.736 192.382,87.736 191.691,87.736 191.691,87.047 191.691,6.168 
		191.691,5.479 192.382,5.479 212.608,5.479 213.299,5.479 213.299,6.168 213.299,87.047 	"/>
	<path fill="#FFFFFF" d="M139.388,87.75h-26.024V5.439h25.794c5.378-0.021,10.751,0.347,16.077,1.099
		c5.077,0.749,9.933,2.583,14.238,5.376c5.43,3.487,9.856,8.327,12.846,14.046c3.268,6.411,4.899,13.53,4.75,20.726
		c0.085,7.181-1.673,14.264-5.106,20.57c-3.005,5.664-7.399,10.469-12.771,13.969c-4.253,2.752-9.04,4.57-14.046,5.338
		c-5.26,0.805-10.576,1.197-15.897,1.176 M134.945,21.926V71.2c4.392,0,8.159-0.089,11.198-0.241
		c3.063-0.178,6.028-1.146,8.606-2.811c3.214-2.027,5.771-4.946,7.355-8.401c1.81-4.174,2.681-8.694,2.554-13.241
		c0.151-4.57-0.721-9.117-2.554-13.307c-1.765-3.643-4.621-6.643-8.172-8.581c-2.564-1.438-5.428-2.265-8.364-2.414
		c-2.95-0.142-6.487-0.217-10.496-0.217"/>
	<path fill="#FFFFFF" d="M241.595,87.75h-21.709V5.439h32.104c4.122-0.07,8.238,0.357,12.258,1.277
		c3.356,0.83,6.546,2.233,9.425,4.149c3.139,2.095,5.659,4.991,7.304,8.39c1.787,3.883,2.661,8.125,2.555,12.398
		c0.018,3.742-0.601,7.459-1.827,10.994c-1.076,3.289-2.868,6.298-5.248,8.812c-1.425,1.457-2.971,2.79-4.621,3.983
		c-1.742,1.251-3.623,2.297-5.605,3.115c-2.139,0.881-4.358,1.549-6.628,1.992c-2.634,0.5-5.313,0.739-7.993,0.715h-9.96v26.471
		L241.595,87.75z M241.595,44.795h0.728c1.928,0,3.754,0,5.427,0c1.46-0.018,2.914-0.142,4.354-0.369
		c1.131-0.205,2.23-0.543,3.281-1.01c0.942-0.381,1.809-0.931,2.555-1.622c1.175-1.079,2.076-2.423,2.63-3.92
		c0.525-1.833,0.763-3.737,0.703-5.644c0.051-1.949-0.479-3.868-1.521-5.516c-0.852-1.392-2.106-2.488-3.602-3.142
		c-1.653-0.771-3.423-1.257-5.235-1.442c-1.75-0.129-4.138-0.191-7.1-0.191h-2.222L241.595,44.795L241.595,44.795z"/>
	<path fill="#FFFFFF" d="M314.66,89.219c-5.325,0.08-10.639-0.529-15.809-1.813c-5.034-1.396-9.959-3.158-14.735-5.273l-0.612-0.27
		l0.256-0.625l6.142-15.105l0.294-0.728l0.677,0.383c3.162,1.776,6.464,3.292,9.87,4.532c4.479,1.754,9.238,2.68,14.047,2.732
		c1.737-0.025,3.474-0.148,5.197-0.369c1.512-0.16,2.993-0.543,4.394-1.139c1.282-0.547,2.43-1.371,3.357-2.412
		c0.904-1.1,1.36-2.5,1.276-3.92c0.047-1.729-0.749-3.369-2.132-4.404c-1.614-1.252-3.472-2.152-5.453-2.646l-2.12-0.573
		c-1.902-0.523-3.702-1.01-5.977-1.482c-3.008-0.633-5.973-1.461-8.875-2.477c-6.384-2.248-11.02-5.324-13.815-9.156
		c-2.909-4.234-4.382-9.293-4.2-14.43c-0.101-7.578,3.618-14.699,9.896-18.949c6.69-4.89,14.226-7.176,23.737-7.176
		c4.655,0.018,9.295,0.53,13.842,1.532c4.669,1.088,9.212,2.649,13.563,4.661l0.612,0.268l-0.255,0.625l-5.605,13.932l-0.295,0.728
		l-0.689-0.37c-6.229-3.205-13.095-4.984-20.099-5.209c-1.46-0.017-2.92,0.077-4.366,0.281c-1.34,0.21-2.634,0.643-3.831,1.275
		c-1.193,0.609-2.232,1.483-3.039,2.555c-0.818,0.941-1.271,2.146-1.276,3.396c-0.08,1.69,0.645,3.32,1.953,4.393
		c2.236,1.611,4.814,2.686,7.533,3.141l7.854,1.788c2.759,0.649,5.479,1.457,8.146,2.413c5.722,2.068,10.037,4.891,12.834,8.402
		c2.797,3.513,4.252,8.248,4.252,14.047c0.176,7.85-3.482,15.291-9.808,19.945c-6.384,4.891-15.578,7.482-26.738,7.482"/>
</g>
</svg>
