<?xml version="1.0" encoding="utf-8"?>
<!-- Generator: Adobe Illustrator 16.0.0, SVG Export Plug-In . SVG Version: 6.00 Build 0)  -->
<!DOCTYPE svg PUBLIC "-//W3C//DTD SVG 1.1//EN" "http://www.w3.org/Graphics/SVG/1.1/DTD/svg11.dtd">
<svg version="1.1" id="Layer_1" xmlns="http://www.w3.org/2000/svg" xmlns:xlink="http://www.w3.org/1999/xlink" x="0px" y="0px"
	 width="640px" height="180px" viewBox="-174.661 -32.5 640 180" enable-background="new -174.661 -32.5 640 180"
	 xml:space="preserve">
<g>
	<g>
		<path fill="#FFFFFF" d="M239.28,9.686V44c0,1.019,0.509,2.039,1.357,2.379l29.726,17.156c1.189,0.681,2.891-0.169,2.891-1.699
			V27.521c0-1.019-0.512-2.039-1.359-2.377L242.165,7.988C240.807,7.306,239.28,8.157,239.28,9.686L239.28,9.686z M330.836-17.153
			L288.03,7.477c-1.187,0.679-2.038,2.038-2.038,3.566v49.434c0,2.039,2.377,3.396,4.076,2.377l42.807-24.631
			c1.19-0.679,2.039-2.039,2.039-3.567v-49.432C334.913-16.814,332.535-18.172,330.836-17.153L330.836-17.153z M272.062,87.825
			l-11.891,6.795c-0.341,0.17-0.512,0.512-0.512,1.019v13.76c0,0.512,0.681,1.019,1.19,0.681l11.889-6.795
			c0.342-0.171,0.513-0.513,0.513-1.019V88.505C273.253,87.996,272.571,87.656,272.062,87.825L272.062,87.825z M265.099,75.255
			l-17.839-10.36c-0.509-0.342-1.187-0.342-1.699,0l-17.835,10.36c-0.68,0.512-0.68,1.529,0,2.04l17.835,10.361
			c0.513,0.341,1.19,0.341,1.699,0l17.839-10.361C265.948,76.784,265.948,75.596,265.099,75.255L265.099,75.255z M293.805,77.124
			l7.984,4.588c0.51,0.338,1.019,0.338,1.528,0l7.984-4.588c0.68-0.34,0.68-1.358,0-1.7l-7.984-4.586c-0.51-0.34-1.019-0.34-1.528,0
			l-7.984,4.586C293.124,75.766,293.124,76.616,293.805,77.124L293.805,77.124z M287.52,88.166l7.984,4.586
			c0.51,0.339,0.681,0.851,0.681,1.361v9.171c0,0.849-0.852,1.189-1.531,0.849l-7.982-4.586c-0.512-0.342-0.68-0.851-0.68-1.36
			v-9.171C285.991,88.166,286.843,87.656,287.52,88.166L287.52,88.166z"/>
	</g>
	<path fill="#FFFFFF" d="M206.833,78.992c-0.342-0.848-1.02-1.019-1.699-0.678c-0.681,0.509-14.779,8.833-14.779,8.833v-7.646
		c0-0.849-0.509-1.188-1.36-0.849l-4.586,1.699c-0.68,0.171-0.851,0.68-0.851,1.361v33.972c0,0.681,0.513,1.19,1.19,1.19h4.417
		c0.681,0,1.189-0.513,1.189-1.19V94.793c0,0,16.479-10.193,17.155-10.704c0.681-0.34,1.021-0.678,0.681-1.527
		C208.02,81.882,206.833,78.992,206.833,78.992"/>
	<path fill="#FFFFFF" d="M-36.931,93.431c1.528-5.435,5.775-8.662,11.72-8.662c6.456,0,10.023,3.905,10.362,8.662H-36.931
		L-36.931,93.431z M-7.714,95.471c0-9.514-6.456-17.326-17.155-17.326c-10.702,0-19.366,7.643-19.366,20.044
		c0,11.381,7.475,19.535,19.875,19.535c5.605,0,11.381-2.038,15.627-5.775c0.511-0.51,0.511-1.019,0.17-1.699l-2.208-3.228
		c-0.339-0.681-1.019-0.681-1.698-0.171c-3.909,2.889-7.815,4.247-11.893,4.247c-7.984,0-12.229-5.266-12.741-11.722h28.199
		c0.681,0,1.189-0.51,1.189-1.188V95.471L-7.714,95.471z"/>
	<path fill="#FFFFFF" d="M17.088,110.928c-6.625,0-12.402-4.587-12.402-13.248c0-8.663,5.777-13.08,12.402-13.08
		c6.963,0,12.4,4.416,12.4,13.08C29.489,106.512,24.052,110.928,17.088,110.928 M30.506,132.5h4.417c0.679,0,1.19-0.51,1.19-1.188
		V79.502c0-0.85-0.511-1.189-1.36-0.85l-4.418,1.698c-0.679,0.171-0.848,0.681-0.848,1.361v1.699
		c-2.378-3.229-7.306-5.267-12.4-5.267c-10.362,0-19.196,7.643-19.196,19.874c0,10.702,6.963,19.873,18.855,19.873
		c5.437,0,10.703-2.377,12.742-5.263v18.854C29.489,131.993,29.827,132.5,30.506,132.5"/>
	<path fill="#FFFFFF" d="M58.534,117.721c4.076,0,8.494-1.357,11.552-5.604v3.396c0,0.681,0.51,1.19,1.19,1.19h4.417
		c0.679,0,1.188-0.51,1.188-1.19V79.671c0-1.02-0.509-1.188-1.359-1.02l-4.588,1.699c-0.679,0.171-0.849,0.68-0.849,1.361v18.854
		c0,6.623-4.247,10.531-10.193,10.531c-5.775,0-9.682-3.738-9.682-10.531V79.502c0-0.85-0.509-1.189-1.359-0.85l-4.585,1.698
		c-0.681,0.171-0.852,0.681-0.852,1.361v19.194C43.246,111.948,50.042,117.721,58.534,117.721"/>
	<path fill="#FFFFFF" d="M86.055,74.577l4.755-1.53c0.85-0.169,1.021-0.68,1.021-1.358V65.91c0-0.678-0.511-1.187-1.359-1.018
		l-4.757,1.699c-0.679,0.171-1.019,0.511-1.019,1.359v5.436C84.694,74.405,85.205,74.917,86.055,74.577"/>
	<path fill="#FFFFFF" d="M86.055,116.704h4.417c0.679,0,1.189-0.512,1.189-1.189V79.502c0-0.849-0.51-1.188-1.359-0.849
		l-4.587,1.699c-0.679,0.171-0.848,0.68-0.848,1.361v33.972C84.866,116.192,85.375,116.704,86.055,116.704"/>
	<path fill="#FFFFFF" d="M101.003,116.704h4.416c0.68,0,1.189-0.512,1.189-1.189V95.132c0-6.627,4.247-10.532,10.191-10.532
		c5.775,0,9.682,3.735,9.682,10.532v20.383c0,0.678,0.511,1.189,1.188,1.189h4.416c0.681,0,1.19-0.512,1.19-1.189V94.962
		c0-11.214-6.794-16.988-15.288-16.988c-4.076,0-8.494,1.358-11.551,5.605v-4.077c0-0.849-0.51-1.188-1.359-0.849l-4.586,1.699
		c-0.679,0.171-0.851,0.68-0.851,1.361v33.972C99.814,116.192,100.323,116.704,101.003,116.704"/>
	<path fill="#FFFFFF" d="M158.419,111.098c-7.814,0-12.572-5.775-12.572-13.25S150.603,84.6,158.419,84.6
		c7.642,0,12.401,5.773,12.401,13.248C170.989,105.153,166.235,111.098,158.419,111.098 M158.419,77.974
		c-11.383,0-19.367,8.494-19.367,19.874c0,11.381,8.154,19.873,19.367,19.873c11.382,0,19.364-8.492,19.364-19.873
		C177.783,86.468,169.801,77.974,158.419,77.974"/>
</g>
</svg>
