<?xml version="1.0" encoding="utf-8"?>
<!-- Generator: Adobe Illustrator 16.0.0, SVG Export Plug-In . SVG Version: 6.00 Build 0)  -->
<!DOCTYPE svg PUBLIC "-//W3C//DTD SVG 1.1//EN" "http://www.w3.org/Graphics/SVG/1.1/DTD/svg11.dtd">
<svg version="1.1" id="Partner" xmlns="http://www.w3.org/2000/svg" xmlns:xlink="http://www.w3.org/1999/xlink" x="0px" y="0px"
	 width="800px" height="180px" viewBox="-289.684 -32.5 800 180" enable-background="new -289.684 -32.5 800 180"
	 xml:space="preserve">
<g>
	<path fill="#FFFFFF" d="M62.136,24.718c2.574-0.441,6.013-1.079,6.953,5.532c0.287,1.983,0.295,24.896,0.295,24.896
		s2.472-2.361,10.06-14.291c5.753-9.045,12.106-20.719,14.494-24.803c1.401-2.396,3.973-4.887,8.437-1.549
		c4.969,3.688,5.08,6.454,2.895,10.243c-2.186,3.788-8.299,13.922-16.79,25.973C80.742,61.663,77.036,65.996,73.781,69.61
		c-3.254,3.615-7.599,7.781-12.125,7.137c-6.011-0.848-5.532-11.221-5.79-14.188c-0.258-2.971-1.42-26.537-0.607-32.041
		C55.572,28.361,55.48,25.853,62.136,24.718z"/>
	<path fill="#FFFFFF" d="M143.485,25.328c2.768,1.503-0.404,8.012-5.754,11.984c-3.438,2.545-9.32,6.362-15.369,6.362
		c2.549-4.468,5.676-8.58,9.305-12.226C135.979,27.17,141.022,24.008,143.485,25.328z M218.573,23.888
		c2.676-3.494,3.209-5.587-1.227-9.939c-3.973-3.909-6.646-1.604-8.592,0.424c-0.324,0.388-9.34,9.377-18.828,20.283
		c-7.377,8.529-13.783,16.449-13.783,16.449c-0.109-4.007,0.068-8.015,0.533-11.996c0.453-3.816,1.707-11.256,2.074-13.607
		c1.846-11.932-5.457-12.41-8.188-12.576c-2.867-0.175-4.23,1.355-5.09,4.997c-0.783,3.338-5.063,21.649-3.355,40.522
		c0.305,3.401,0.924,6.904,1.033,7.127l-1.725,2.406c-16.098-4.556-27.08-15.6-27.08-15.6c3.877-1.253,7.592-2.961,11.064-5.09
		c4.609-2.813,13.471-9.772,12.529-22.046c-0.793-10.418-11.682-15.176-15.674-14.318c-3.688,0.773-10.031,5.229-16.053,10.686
		c-0.406-2.849-0.479-5.983-3.383-6.334c-2.131-0.258-4.611,0.766-6.391,1.705c-1.967,0.955-3.582,2.508-4.609,4.436l-6.768,15.563
		c-0.172,0.42-0.563,0.711-1.014,0.756c-2.295,0.438-4.201,2.026-5.043,4.205c-0.867,2.116-0.42,4.543,1.143,6.213
		c-1.336,3.605-4.896,11.986-4.896,11.986c-4.416,10.309-4.129,13.895-2.554,16.09c0.802,1.115,3.604,2.766,7.007,3.291
		c2.555,0.424,4.51-1.105,6.648-4.518c3.17-5.008,9.469-18.283,9.469-18.283S128.417,70.546,153.7,79.61
		c0,0-13.371,18.441-15.297,28.703c0,0-0.996,6.703,8.012,6.684c2.846,0.014,5.646-0.697,8.143-2.064
		c1.002-0.576,1.736-1.523,2.045-2.637c0.109-0.484,0.041-0.99-0.191-1.43c-0.258-0.367-0.568-0.693-0.922-0.969
		c-0.461-0.461-0.396-1.061-0.148-1.752c4.961-14.465,25.105-39.056,29.385-44.385c11.389-14.134,32.316-36.115,33.801-37.875h0.047
		V23.888z"/>
	<path fill="#FFFFFF" d="M4.07,66.161c0.866,2.037,1.094,4.287,0.654,6.455c-0.285,1.898-0.627,3.779-0.995,5.66
		c-0.323,1.633-1.079,5.154,0,6.455c1.079,1.299,3.218,1.225,5.716,0.922c2.768-0.342,16.596-3.209,31.22-9.34
		c2.024-0.852,3.944-1.938,5.715-3.236c3.965-3.043,4.61-9.413,4.61-9.413c0.101-1.218,0.083-2.96-1.512-3.863
		c-1.162-0.655-2.767-0.249-5.163,0.405c-3.975,1.078-13.83,4.857-17.222,5.883c-1.383,0.414-4.104,1.068-5.154-0.259
		c-1.751-2.194,0.756-9.081,2.25-12.907c1.494-3.827,3.845-6.915,11.064-8.999c2.654-0.767,6.998-2.14,8.768-2.767
		c1.938-0.664,4.49-1.937,5.578-6.324c1.234-4.998-2.555-5.771-6.021-6.73c-4.96-1.375-8.066-1.55-5.892-6.363
		c0.922-1.973,1.715-2.84,3.688-3.355c1.973-0.518,18.651-3.163,25.291-4.379c3.688-0.673,4.979-2.684,6.536-5.91
		c3.356-6.988-0.848-7.439-4.25-7.127c-7.681,0.71-20.017,2.951-25.3,3.688c-2.813,0.406-0.922-4.396-4.232-4.608
		C34.384-0.272,29.39,1.128,25.257,4.021c-2.074,1.613-3.07,6.592-3.07,6.592l-6.454,22.192c-0.554,2.563-1.336,5.089-3.153,6.168
		C8.228,41.73-0.752,41.915,0.05,51.642C0.05,51.64,0.224,56.417,4.07,66.161z"/>
</g>
</svg>
