<?xml version="1.0" encoding="utf-8"?>
<!-- Generator: Adobe Illustrator 16.0.0, SVG Export Plug-In . SVG Version: 6.00 Build 0)  -->
<!DOCTYPE svg PUBLIC "-//W3C//DTD SVG 1.1//EN" "http://www.w3.org/Graphics/SVG/1.1/DTD/svg11.dtd">
<svg version="1.1" id="Layer_1" xmlns="http://www.w3.org/2000/svg" xmlns:xlink="http://www.w3.org/1999/xlink" x="0px" y="0px"
	 width="800px" height="180px" viewBox="-81.933 -32 800 180" enable-background="new -81.933 -32 800 180" xml:space="preserve">
<g>
	<path fill="#FFFFFF" stroke="#FFFFFF" stroke-miterlimit="10" d="M89.017,0.499c0,0.785,0,89.469,0,90.254
		c-0.672,0-9.35,0-10.078,0c0-0.785,0-89.47,0-90.254C79.668,0.499,88.346,0.499,89.017,0.499z"/>
	<path fill="#FFFFFF" stroke="#FFFFFF" stroke-miterlimit="10" d="M121.491,25.638c3.976-0.728,7.95-1.063,11.813-1.063
		c4.536,0,8.51,0.392,11.814,1.12c3.303,0.728,6.214,2.016,8.621,3.808c2.408,1.735,4.256,4.031,5.487,6.83
		c1.231,2.8,1.848,6.327,1.848,10.415c0,0,0,43.223,0,43.949c-0.672,0-9.351,0-10.077,0c0-0.727,0-18.139,0-18.139V55.481
		l-12.205,0.896c-4.479,0.392-8.118,0.952-10.807,1.679c-3.19,0.896-5.823,2.353-7.782,4.313c-1.96,1.902-3.023,5.095-3.023,8.958
		c0,4.366,1.175,7.726,3.471,9.63c2.295,1.959,5.822,2.91,10.526,2.91c3.191,0,6.214-0.559,9.014-1.623c0,0.953,0,7.225,0,7.672
		c-1.567,0.672-3.079,1.176-4.703,1.623c-2.352,0.615-5.096,0.896-8.174,0.896c-5.711,0-10.638-1.904-14.613-5.768
		c-3.975-3.809-5.99-8.734-5.99-14.669c0-4.871,1.063-8.791,3.08-11.813c2.071-2.967,5.039-5.375,8.846-7.11
		c3.919-1.735,8.623-2.911,14.11-3.527c5.486-0.616,11.478-1.063,17.804-1.399h0.392v-2.071c0-2.185-0.336-5.431-1.344-7.334
		c-0.896-1.735-2.24-3.08-3.863-4.031c-1.567-0.952-3.526-1.567-5.711-1.903c-2.183-0.336-4.479-0.447-6.83-0.447
		c-2.912,0-6.158,0.393-9.687,1.176c-1.903,0.393-3.863,0.952-6.047,1.679c0-0.896,0-8.397,0-8.958
		C118.076,26.31,121.491,25.638,121.491,25.638z"/>
	<path fill="#FFFFFF" stroke="#FFFFFF" stroke-miterlimit="10" d="M390.179,25.638c3.977-0.728,7.95-1.063,11.813-1.063
		c4.535,0,8.51,0.392,11.87,1.12c3.303,0.728,6.215,2.016,8.622,3.808c2.406,1.735,4.255,4.031,5.485,6.83
		c1.232,2.8,1.85,6.327,1.85,10.415c0,0,0,43.223,0,43.949c-0.673,0-9.352,0-10.078,0c0-0.727,0-18.139,0-18.139V55.481
		l-12.206,0.951c-4.479,0.393-8.118,0.953-10.807,1.68c-3.19,0.896-5.821,2.352-7.781,4.313c-1.96,1.902-3.023,5.094-3.023,8.957
		c0,4.367,1.176,7.727,3.471,9.631c2.296,1.959,5.823,2.912,10.526,2.912c3.191,0,6.215-0.563,9.015-1.625c0,0.953,0,7.223,0,7.67
		c-1.566,0.672-3.08,1.176-4.702,1.625c-2.353,0.615-5.096,0.895-8.176,0.895c-5.711,0-10.638-1.902-14.611-5.766
		c-3.977-3.809-5.991-8.734-5.991-14.67c0-4.871,1.063-8.789,3.079-11.813c2.07-2.967,5.039-5.375,8.847-7.109
		c3.919-1.736,8.622-2.912,14.108-3.529c5.486-0.615,11.478-1.063,17.805-1.399h0.392v-2.071c0-2.184-0.336-5.431-1.344-7.334
		c-0.896-1.736-2.239-3.078-3.862-4.031c-1.567-0.953-3.527-1.567-5.768-1.904c-2.184-0.334-4.479-0.447-6.83-0.447
		c-2.912,0-6.159,0.393-9.686,1.175c-1.904,0.392-3.863,0.952-6.049,1.681c0-0.896,0-8.398,0-8.959
		C386.764,26.31,390.179,25.638,390.179,25.638z"/>
	<path fill="#FFFFFF" stroke="#FFFFFF" stroke-miterlimit="10" d="M529.31,33.644c5.655-6.158,13.271-9.293,22.563-9.293
		c8.567,0,15.285,2.574,19.932,7.613c4.648,5.039,6.999,12.318,6.999,21.611c0,0,0,4.871,0,5.544c-0.784,0-47.533,0-47.533,0v0.392
		c0,4.366,0.673,8.678,1.79,11.534c1.232,3.022,2.856,5.542,4.983,7.501c2.016,1.904,4.479,3.359,7.279,4.313
		c2.742,0.951,5.878,1.398,9.236,1.398c4.423,0,8.902-0.896,13.381-2.688c0,0,0.112-0.057,0.226-0.111c0,1.008,0,8.117,0,8.621
		c-0.226,0.059-0.561,0.168-0.561,0.168l-1.063,0.338c-3.751,1.063-7.782,1.566-11.869,1.566c-10.582,0-18.98-2.912-24.915-8.678
		c-5.935-5.768-8.902-14.054-8.902-24.691c0-2.52,0.168-4.983,0.504-7.278c0.673,0,10.303,0,10.303,0h37.345v-0.392
		c-0.056-6.159-1.624-11.422-4.367-14.5c-2.854-3.25-7.335-4.872-13.213-4.872c-5.879,0-10.638,1.792-14.165,5.319
		c-1.344,1.344-2.071,2.855-2.408,3.695c-0.446,0-9.068,0-10.245,0C525.84,38.067,527.409,35.659,529.31,33.644z"/>
	<path fill="#FFFFFF" stroke="#FFFFFF" stroke-miterlimit="10" d="M213.537,82.187c2.631-1.512,4.254-4.815,4.254-8.565
		c0-2.634-0.672-4.367-2.352-6.104c-1.344-1.398-3.975-2.463-8.678-3.471l-6.046-1.23c-2.464-0.448-4.759-0.953-6.719-1.514
		c-5.6-1.511-9.574-3.695-11.87-6.55c-2.295-2.856-3.472-6.383-3.472-10.583c0-2.631,0.561-5.095,1.624-7.391
		c1.063-2.295,2.744-4.422,4.928-6.213c2.127-1.793,4.871-3.248,8.175-4.313c3.303-1.063,6.998-1.566,11.085-1.566
		c3.808,0,7.727,0.504,11.646,1.399c2.912,0.728,5.542,1.565,7.895,2.575c0,0.447,0,8.846,0,9.965
		c-2.463-1.624-5.319-3.023-8.455-4.199c-3.975-1.455-7.95-2.184-11.813-2.184c-4.366,0-7.727,0.783-10.302,2.352
		c-2.688,1.625-4.312,4.703-4.312,8.063c0,2.799,0.896,4.926,2.688,6.383c1.679,1.399,4.312,2.521,8.063,3.416l6.718,1.399
		l6.159,1.287c4.982,1.119,8.847,3.135,11.478,5.879c2.688,2.799,4.031,6.549,4.031,11.141c0,5.822-2.408,10.639-7.223,14.334
		c-4.815,3.75-11.479,5.654-19.82,5.654c-4.646,0-9.07-0.561-13.045-1.736c-3.136-0.895-5.991-1.902-8.455-3.021
		c0-0.447,0-9.351,0-10.582c3.136,2.184,6.496,4.03,10.134,5.318c4.2,1.566,8.343,2.352,12.207,2.352
		C206.929,84.536,210.793,83.755,213.537,82.187z M212.864,54.36L212.864,54.36L212.864,54.36z M212.864,54.36L212.864,54.36
		C212.921,54.36,212.921,54.36,212.864,54.36L212.864,54.36z"/>
	<path fill="#FFFFFF" stroke="#FFFFFF" stroke-miterlimit="10" d="M275.347,82.187c2.632-1.512,4.255-4.815,4.255-8.565
		c0-2.634-0.672-4.367-2.352-6.104c-1.344-1.398-3.976-2.463-8.679-3.471l-6.047-1.23c-2.464-0.448-4.759-0.953-6.773-1.514
		c-5.601-1.511-9.574-3.695-11.87-6.55c-2.295-2.856-3.471-6.383-3.471-10.583c0-2.631,0.559-5.095,1.624-7.391
		c1.063-2.295,2.742-4.422,4.926-6.213c2.128-1.793,4.872-3.248,8.175-4.313c3.303-1.063,7.055-1.566,11.085-1.566
		c3.808,0,7.727,0.504,11.646,1.399c2.912,0.728,5.544,1.565,7.895,2.575c0,0.447,0,8.846,0,9.965
		c-2.462-1.624-5.318-3.023-8.453-4.199c-3.976-1.455-7.951-2.184-11.813-2.184c-4.367,0-7.728,0.783-10.303,2.352
		c-2.631,1.625-4.312,4.703-4.312,8.063c0,2.799,0.896,4.926,2.632,6.383c1.679,1.399,4.311,2.521,8.062,3.416l6.719,1.399
		l6.159,1.287c4.927,1.119,8.847,3.135,11.478,5.879c2.688,2.799,4.032,6.549,4.032,11.141c0,5.822-2.408,10.639-7.224,14.334
		c-4.814,3.75-11.478,5.654-19.819,5.654c-4.646,0-9.07-0.561-12.99-1.736c-3.134-0.895-5.99-1.902-8.454-3.021
		c0-0.447,0-9.406,0-10.582c3.136,2.184,6.551,4.03,10.135,5.318c4.199,1.566,8.343,2.352,12.205,2.352
		C268.74,84.536,272.603,83.755,275.347,82.187z M274.676,54.36L274.676,54.36L274.676,54.36z M274.676,54.36L274.676,54.36
		L274.676,54.36L274.676,54.36z"/>
	<path fill="#FFFFFF" stroke="#FFFFFF" stroke-miterlimit="10" d="M7.275,81.515c-4.479-5.543-6.774-13.494-6.774-23.627
		c0-5.543,0.785-10.414,2.352-14.445c1.568-4.03,3.696-7.56,6.383-10.469c2.464-2.688,5.487-4.873,9.07-6.384
		c3.527-1.512,7.111-2.295,10.582-2.295c3.136,0,6.27,0.56,9.35,1.735c1.68,0.615,4.928,2.016,7.895,4.367l0.616,0.504
		c0,0,0-4.143,0-4.758c0.672,0,9.35,0,10.077,0c0,0.782,0,57.555,0,57.555c0,10.918-2.464,19.035-7.391,24.131
		s-12.597,7.672-22.788,7.672c-3.358,0-6.773-0.225-10.021-0.729c0,0-1.457-0.225-2.072-0.336c0-0.561,0-8.23,0-9.127
		c0.56,0.168,1.4,0.393,1.4,0.393c3.861,1.01,7.838,1.512,11.757,1.512c3.751,0,6.941-0.447,9.405-1.344s4.479-2.184,5.879-3.807
		c1.4-1.512,2.407-3.416,2.967-5.6c0.616-2.24,0.84-5.6,0.84-7.84l0.056-19.091V50.89v-0.672
		c0.336-10.807-4.814-17.021-14.611-17.525l-1.399-0.057c-6.104,0-10.974,2.072-14.502,6.215
		c-3.416,3.977-5.319,10.694-5.319,18.813c0,7.727,1.4,14.055,3.919,17.805C17.576,79.331,22,81.29,28.102,81.29
		c2.575,0,5.319-0.504,8.005-1.344c0,0.84,0,7.727,0,8.23c-2.854,1.063-6.382,1.678-10.582,1.678
		C17.856,89.856,11.754,87.058,7.275,81.515z"/>
	<path fill="#FFFFFF" stroke="#FFFFFF" stroke-miterlimit="10" d="M317.058,32.916c2.856-2.407,6.159-4.479,9.687-6.103
		c3.583-1.623,7.391-2.463,11.478-2.463c7.671,0,13.717,2.967,17.974,8.789l0,0c4.311,5.879,6.493,14.109,6.493,24.523
		c0,5.264-0.728,10.078-2.238,14.389c-1.512,4.312-3.641,8.008-6.383,11.029c-2.521,2.855-5.487,5.039-8.901,6.607
		c-3.416,1.566-7.055,2.352-10.862,2.352c-2.52,0-4.927-0.225-7.167-0.672c0-0.615,0-8.117,0-8.902
		c1.736,0.28,3.472,0.393,5.265,0.393c6.214,0,11.141-2.127,14.612-6.327c3.472-4.198,5.206-10.47,5.206-18.589
		c0-7.894-1.398-13.939-4.088-17.858c-2.742-3.976-6.998-5.991-12.653-5.991c-2.742,0-5.039,0.336-7.276,1.063
		c-1.456,0.449-2.688,1.121-3.137,1.345l-0.168,0.112c-5.711,2.855-8.51,7.951-8.51,15.453v22.228v19.093c0,0,0,20.826,0,21.555
		c-0.672,0-9.351,0-10.078,0c0-0.785,0-87.957,0-88.741c0.672,0,9.351,0,10.078,0c0,0.672,0,7.334,0,7.334L317.058,32.916z
		 M356.81,32.636L356.81,32.636L356.81,32.636L356.81,32.636z"/>
	<path fill="#FFFFFF" stroke="#FFFFFF" stroke-miterlimit="10" d="M462.181,32.916c2.854-2.407,6.158-4.479,9.687-6.103
		c3.583-1.623,7.391-2.463,11.422-2.463c7.67,0,13.717,2.967,18.026,8.789l0,0c4.313,5.879,6.495,14.109,6.495,24.523
		c0,5.264-0.783,10.078-2.238,14.389c-1.513,4.313-3.641,8.008-6.384,11.029c-2.52,2.855-5.486,5.039-8.901,6.607
		c-3.415,1.566-7.056,2.352-10.861,2.352c-2.52,0-4.928-0.225-7.167-0.672c0-0.615,0-8.117,0-8.902
		c1.735,0.28,3.472,0.393,5.263,0.393c6.216,0,11.144-2.127,14.613-6.327c3.471-4.198,5.207-10.47,5.207-18.589
		c0-7.894-1.398-13.939-4.087-17.858c-2.744-3.976-6.999-5.991-12.653-5.991c-2.743,0-5.039,0.336-7.278,1.063
		c-1.455,0.449-2.688,1.121-3.137,1.345l-0.167,0.056c-5.711,2.856-8.51,7.951-8.51,15.455v22.227v19.092c0,0,0,20.826,0,21.557
		c-0.672,0-9.351,0-10.078,0c0-0.785,0-87.959,0-88.742c0.672,0,9.351,0,10.078,0c0,0.672,0,7.334,0,7.334L462.181,32.916z
		 M501.932,32.636L501.932,32.636L501.932,32.636L501.932,32.636z"/>
	<path fill="#FFFFFF" stroke="#FFFFFF" stroke-miterlimit="10" d="M606.686,33.924c4.313-3.471,8.119-5.991,11.366-7.39
		c3.247-1.457,6.607-2.184,9.966-2.184c2.017,0,3.305,0.055,4.087,0.168c0,0,2.969,0.447,3.528,0.502c0,0.617,0,8.959,0,9.687
		c-0.112,0-0.224,0-0.224,0c-1.514-0.392-3.138-0.672-4.704-0.896c-1.567-0.168-3.415-0.281-5.431-0.281
		c-4.031,0-7.671,1.513-8.344,1.849c-1.119,0.503-2.406,1.399-3.247,2.017c-4.646,3.19-7.446,8.789-7.613,15.453
		c0,0,0,37.176,0,37.959c-0.673,0-9.351,0-10.077,0c0-0.783,0-63.883,0-64.609c0.672,0,9.35,0,10.077,0c0,0.672,0,8.285,0,8.285
		L606.686,33.924z M632.219,23.733L632.219,23.733L632.219,23.733L632.219,23.733z"/>
</g>
</svg>
