<?xml version="1.0" encoding="utf-8"?>
<!-- Generator: Adobe Illustrator 16.0.0, SVG Export Plug-In . SVG Version: 6.00 Build 0)  -->
<!DOCTYPE svg PUBLIC "-//W3C//DTD SVG 1.1//EN" "http://www.w3.org/Graphics/SVG/1.1/DTD/svg11.dtd">
<svg version="1.1"
	 id="Partner" sodipodi:docname="kantega.svg" inkscape:version="0.92.3 (2405546, 2018-03-11)" xmlns:inkscape="http://www.inkscape.org/namespaces/inkscape" xmlns:dc="http://purl.org/dc/elements/1.1/" xmlns:rdf="http://www.w3.org/1999/02/22-rdf-syntax-ns#" xmlns:svg="http://www.w3.org/2000/svg" xmlns:cc="http://creativecommons.org/ns#" xmlns:sodipodi="http://sodipodi.sourceforge.net/DTD/sodipodi-0.dtd"
	 xmlns="http://www.w3.org/2000/svg" xmlns:xlink="http://www.w3.org/1999/xlink" x="0px" y="0px" width="800px" height="180px"
	 viewBox="-213.155 -32.5 800 180" enable-background="new -213.155 -32.5 800 180" xml:space="preserve">
<sodipodi:namedview  id="namedview11" inkscape:window-width="1920" inkscape:window-y="0" inkscape:window-height="1027" inkscape:pageopacity="0" inkscape:pageshadow="2" inkscape:window-maximized="1" inkscape:current-layer="Partner" inkscape:window-x="0" guidetolerance="10" pagecolor="#ffffff" inkscape:cy="90" borderopacity="1" bordercolor="#666666" inkscape:cx="201.20482" inkscape:zoom="0.83" objecttolerance="10" showgrid="false" gridtolerance="10">
	</sodipodi:namedview>
<title  id="title6">jz17-partner-kantega</title>
<path id="path8" fill="#FFFFFF" d="M356.319,50.675c-0.406-1.215-1.1-2.313-2.021-3.203c-1.046-0.932-2.396-1.444-3.795-1.442
	c-2.561,0.087-5.061,0.802-7.279,2.081c-2.582,1.477-4.919,3.348-6.926,5.543c-2.213,2.156-4.074,4.645-5.52,7.374
	c-1.377,2.495-2.245,5.239-2.553,8.072c-0.396,3.079,0.108,4.62,1.512,4.62c1.246,0,2.983-0.76,5.213-2.281l6.901-5.542
	C345.935,62.091,350.757,57.016,356.319,50.675z M272.775,105.286c2.059-1.236,3.901-2.795,5.461-4.621
	c3.694-4.135,6.87-8.707,9.454-13.615l-14.383,5.91c-2.982,1.188-5.737,2.883-8.144,5.01c-1.701,1.316-2.845,3.223-3.202,5.344
	c-0.075,0.945,0.379,1.855,1.183,2.363c0.938,0.934,2.224,1.43,3.545,1.371C268.84,107.019,270.942,106.409,272.775,105.286z
	 M301.706,42.745c-2.906,0.064-5.773,0.699-8.438,1.866c-3.071,1.263-5.947,2.954-8.544,5.022c-2.608,2.031-4.889,4.451-6.761,7.175
	c-1.776,2.435-2.903,5.282-3.273,8.272c-0.221,2.441,0.753,3.664,2.919,3.664c2.496-0.14,4.907-0.957,6.973-2.365
	c2.762-1.699,5.339-3.68,7.693-5.908c5.101-5.078,9.869-10.479,14.277-16.167C305.19,43.193,303.46,42.638,301.706,42.745z
	 M254.327,46.372c0.299-1.221,0.448-1.844,0.448-1.867c0.183-0.816,0.02-1.672-0.448-2.363c-0.536-0.713-1.392-1.112-2.281-1.063
	c-1.74,0.016-3.456,0.418-5.021,1.18c-1.666,0.851-3.206,1.929-4.574,3.203c-2.519,2.326-4.636,5.055-6.264,8.072
	c0.079-0.057,0.176-0.082,0.271-0.07c-0.123,0.035-0.233,0.104-0.318,0.201c-0.959,1.621-1.731,3.346-2.306,5.141
	c-0.526,1.363-0.877,2.789-1.04,4.242c0.788-0.479,1.64-0.953,2.554-1.418c5.298-2.979,10.315-6.429,14.997-10.307
	c1.641-1.38,2.997-3.064,3.995-4.963L254.327,46.372z M351.237,38.3c2.14-0.023,4.258,0.424,6.204,1.313
	c1.805,1.02,3.344,2.448,4.491,4.172l2.611-2.802c0.75-1.028,1.91-1.679,3.18-1.784c0.857-0.031,1.696,0.25,2.362,0.791
	c1.011,0.768,1.532,2.016,1.372,3.273c-0.127,0.809-0.461,1.57-0.97,2.211l-3.002,3.794c-2.293,2.706-4.101,5.788-5.342,9.11
	c-0.994,2.765-1.675,5.631-2.033,8.545c-0.433,3.641-0.433,5.725,0,6.252l0.343,0.402c0.556,0.139,1.143,0.041,1.62-0.271
	l7.551-4.303c1.223-0.787,2.372-0.225,3.451,1.689c1.08,1.914,0.732,3.439-1.04,4.574c-3.772,2.363-6.382,3.939-7.823,4.727
	c-1.609,1.045-3.438,1.707-5.342,1.938c-3.262,0-5.263-1.182-6.004-3.545c-0.528-1.93-0.854-3.91-0.97-5.908
	c-0.135-1.861-0.135-3.729,0-5.59l0.071-0.344c-3.647,3.875-7.665,7.387-11.995,10.482l-5.909,3.273
	c-1.621,0.721-3.367,1.123-5.143,1.184c-1.747,0.055-3.479-0.355-5.021-1.184c-1.16-0.826-2.099-1.928-2.73-3.203
	c-0.743-1.588-1.146-3.315-1.182-5.069c0.049-0.345,0.072-0.692,0.07-1.04c0.003-0.266-0.021-0.531-0.07-0.791
	c-0.434,0.346-0.914,0.713-1.441,1.098l-1.101,0.922c-2.781,2.041-4.908,3.492-6.381,4.352l-0.071,0.07
	c-8.115,4.301-12.322,6.52-12.621,6.652l-6.583,11.926c-2.15,3.6-4.646,6.982-7.444,10.104c-2.428,2.789-5.31,5.146-8.521,6.973
	c-2.052,1.195-4.308,1.998-6.653,2.363c-1.027,0.229-2.078,0.346-3.133,0.344c-0.943,0.004-1.886-0.109-2.801-0.344
	c-2.107-0.377-4.083-1.291-5.731-2.658c-2.793-1.941-4.183-5.346-3.546-8.688c0.418-4.303,3.109-8.316,8.072-12.043
	c4.483-3.348,11.46-6.895,20.931-10.637c3.728-1.488,7.071-2.969,10.033-4.443l3.899-9.584c-3.253,2.992-6.896,5.531-10.825,7.553
	c-2.845,1.465-5.983,2.271-9.183,2.361c-3.137,0.137-6.146-1.238-8.096-3.698c-1.176-1.573-1.873-3.452-2.01-5.411
	c-3.007,2.461-6.139,4.764-9.384,6.9c-2.825,1.82-5.816,3.367-8.936,4.621c-2.504,0.99-5.14,1.607-7.823,1.832h-1.182
	c-0.6,0-1.21-0.023-1.832-0.07c-1.61-0.154-3.181-0.6-4.633-1.313c-0.051-0.006-0.098-0.031-0.131-0.07
	c-0.095-0.004-0.188-0.025-0.271-0.07c-0.047-0.01-0.089-0.033-0.117-0.072c-1.904-0.967-3.531-2.402-4.729-4.172l-0.13-0.199
	c-0.083-0.109-0.129-0.242-0.129-0.379h-0.071c-6.947,3.32-14.432,5.373-22.101,6.063c-3.114,0.246-6.153-1.043-8.144-3.449
	c-1.009-1.203-1.761-2.6-2.21-4.104c-0.44-1.437-0.617-2.941-0.521-4.441c-12.606,10.689-21.363,16.035-26.271,16.035
	c-1.788,0.098-3.513-0.684-4.62-2.092c-1.161-1.365-1.662-3.172-1.371-4.938c0.347-3.082,2.315-7.666,5.908-13.757
	c3.609-5.649,5.479-8.972,5.614-9.964c0.252-2.48-0.857-3.723-3.333-3.723c-2.475,0-5.404,1.066-8.793,3.203
	c-3.526,2.308-6.842,4.926-9.902,7.824c-2.482,2.299-7.914,8.012-16.298,17.135c-0.885,1.057-2.169,1.693-3.545,1.762
	c-2.78,0-4.045-1.309-3.793-3.924l0.59-1.832c3.481-6.221,6.374-12.752,8.641-19.512l-8.344,7.575
	c-0.257,0.244-0.542,0.454-0.852,0.626l-2.364,2.163c-9.572,8.47-16.355,12.704-20.351,12.704c-2.516,0.162-4.868-1.25-5.909-3.545
	c-1.05-2.273-1.412-4.805-1.04-7.28l0.071-0.343c-3.648,3.898-7.678,7.424-12.031,10.518l-5.91,3.273
	c-1.645,0.729-3.414,1.129-5.211,1.184c-1.731,0.074-3.451-0.336-4.963-1.184c-1.173-0.793-2.096-1.902-2.659-3.201
	c-1.238-2.658-1.649-5.627-1.182-8.521c0.299-3.608,2.32-8.494,6.063-14.654c1.296-1.961,2.771-3.797,4.407-5.482
	c2.75-3,6.021-5.476,9.656-7.305c3.396-1.868,7.198-2.874,11.074-2.932c2.116-0.022,4.211,0.426,6.133,1.313
	c1.829,1.006,3.39,2.436,4.55,4.172l2.553-2.802c0.748-1.036,1.916-1.688,3.19-1.784c0.896-0.037,1.773,0.244,2.482,0.791
	c1.012,0.762,1.519,2.023,1.312,3.274c-0.08,0.798-0.37,1.56-0.839,2.21l-3.203,3.794c-2.245,2.705-3.986,5.791-5.141,9.11
	c-1.034,2.756-1.736,5.625-2.093,8.545c-0.165,1.772,0.008,2.66,0.521,2.66l2.163-1.041c4.209-2.929,8.188-6.177,11.901-9.715
	l4.728-4.101c0.229-0.166,0.445-0.339,0.65-0.521l12.03-11.463c1.167-1.418,2.893-2.259,4.729-2.306c3.033,0,4.491,1.78,4.372,5.341
	c-0.493,3.986-1.502,7.891-3.001,11.618c4.048-3.995,8.5-7.56,13.283-10.636c2.061-1.358,4.27-2.477,6.583-3.334
	c2.14-0.748,4.387-1.147,6.653-1.18c3.656,0,6.413,1.066,8.271,3.201c2.036,2.268,2.908,5.346,2.364,8.344
	c-0.347,2.363-1.844,5.664-4.49,9.903c-3.49,5.129-5.535,8.541-6.134,10.233l-0.52,1.691c-0.012,0.152,0.066,0.301,0.201,0.377
	l2.009-0.898c7.163-4.49,13.989-9.499,20.422-14.984c2.853-2.553,5.087-4.636,6.701-6.251l6.063-9.384l0.343-0.473l1.04-1.832
	l6.975-10.354c-11.134,0.978-22.908,2.353-35.326,4.125c-0.996,0.147-2.01-0.112-2.813-0.721c-0.809-0.616-1.322-1.541-1.418-2.554
	c-0.188-0.961,0.048-1.957,0.649-2.729c0.591-0.8,1.492-1.313,2.481-1.418c13.726-2.001,26.688-3.483,38.895-4.444l-0.071,0.071
	c0.993-0.133,1.994-0.226,3.002-0.271l6.726-9.963c0.719-1.283,2.074-2.08,3.545-2.08c2.813,0,4.07,1.256,3.771,3.771l-0.648,2.033
	l-3.699,5.542c4.729-0.314,9.348-0.512,13.862-0.59c0.969-0.059,1.916,0.293,2.611,0.969c0.733,0.722,1.157,1.701,1.183,2.73
	c0.031,0.998-0.345,1.965-1.04,2.682c-0.68,0.678-1.593,1.07-2.553,1.099c-5.312,0.134-10.768,0.397-16.368,0.792l0,0
	c-0.914,0-1.809,0.059-2.685,0.178l-8.662,13h-0.07c-3.722,5.09-7.161,10.381-10.307,15.848c-1.325,2.25-2.25,4.714-2.729,7.279
	c-0.236,1.314-0.028,2.67,0.591,3.854c0.511,1.102,1.648,1.773,2.86,1.689c4.389-0.147,8.713-1.092,12.764-2.789
	c2.11-0.785,4.161-1.727,6.134-2.813c-0.089-0.467-0.132-0.941-0.13-1.418c0.181-2.693,0.295-4.063,0.343-4.102
	c0.388-4.082,1.623-8.039,3.628-11.616c1.889-3.351,4.312-6.368,7.175-8.935c2.54-2.361,5.439-4.3,8.592-5.744
	c2.494-1.229,5.222-1.914,8-2.01c2.95-0.154,5.831,0.924,7.954,2.979c1.937,2.043,2.764,4.896,2.222,7.658
	c-0.468,3.008-1.598,5.873-3.309,8.391c-1.137,1.482-2.355,2.898-3.652,4.242c-3.655,3.563-9.324,7.5-17.006,11.818
	c-1.355,0.787-2.688,1.524-3.995,2.209l-0.178,0.131c1.144,1.438,2.891,2.266,4.728,2.233h0.898c2.915,0,6.717-1.375,11.404-4.125
	c1.175-0.731,2.414-1.575,3.724-2.528c4.234-2.91,8.28-6.088,12.112-9.515l2.363-2.092c0.104-0.08,0.219-0.14,0.344-0.177
	c0.213-0.395,0.43-0.762,0.649-1.1c2.438-3.707,5.468-6.99,8.971-9.715c3.431-2.679,7.228-4.854,11.273-6.453
	c3.558-1.498,7.368-2.3,11.228-2.363c3.188-0.098,6.324,0.809,8.971,2.588l0.2-0.176c0.768-1.22,2.105-1.961,3.547-1.963
	c2.828,0,4.093,1.266,3.793,3.795l-0.722,2.008l-3.545,5.543c-4.813,10.613-8.612,19.149-11.394,25.609l3.45-1.962
	c2.136-1.473,5.009-3.474,8.615-6.003l1.184-0.97l6.039-5.095l0.343-0.248l2.859-4.041c0.66-0.957,1.374-1.877,2.14-2.754
	l2.363-2.66c2.814-2.98,6.126-5.452,9.784-7.303c3.366-1.884,7.146-2.902,11.004-2.967L351.237,38.3z M102.037,1.38l0.07,0.07
	c0.637,0.885,0.896,1.986,0.722,3.063c-0.162,0.859-0.573,1.652-1.183,2.281c-0.087,0.047-0.13,0.09-0.13,0.129
	c-1.655,1.703-4.263,4.221-7.824,7.553c-3.822,3.427-6.752,5.943-8.792,7.552l-2.033,1.513c-3.593,2.733-7.457,5.424-11.594,8.071
	c-4.964,3.011-10.006,5.769-15.127,8.272c-5.121,2.506-10.03,4.594-14.726,6.264c-0.138,0.049-0.233,0.173-0.248,0.318
	c1.221,8.093,2.372,14.871,3.451,20.34c0.679,3.717,1.769,7.35,3.25,10.824c1.395,3.199,2.852,4.822,4.373,4.869
	c1.995-0.172,3.94-0.721,5.731-1.619c1.174-0.527,2.415-1.158,3.723-1.891c0.04-0.033,0.065-0.078,0.071-0.131
	c1.702-0.787,3.092-0.133,4.171,1.963c0.961,2.002,0.679,3.518-0.851,4.551c-5.516,3.875-10.242,5.656-14.183,5.342h-0.13
	c-1.892-0.078-3.729-0.66-5.317-1.689c-1.663-1.051-3.053-2.48-4.055-4.172c-0.031-0.07-0.101-0.115-0.177-0.119
	c-2.086-3.824-3.52-7.971-4.243-12.268l-2.21-14.182c-0.468-3.498-1.19-6.959-2.163-10.353c-0.032-0.073-0.076-0.142-0.13-0.201
	c-0.075-0.046-0.161-0.071-0.248-0.071s-0.167,0.051-0.202,0.131L17.857,67.007c-3.773,5.098-5.818,7.855-6.134,8.273
	c-1.321,1.818-2.506,3.734-3.545,5.73c-0.848,1.668-2.627,2.65-4.49,2.482H3.557c-1.075,0.016-2.109-0.412-2.859-1.184
	c-0.631-0.863-0.848-1.963-0.591-3.002l0.071-0.131l0.378-1.311v-0.072h0.071c1.378-2.502,2.885-4.933,4.515-7.279
	c0.011-0.043,0.011-0.088,0-0.129c0.661-0.914,2.706-3.785,6.133-8.615l16.817-22.455c3.426-4.376,6.539-8.989,9.313-13.805v-0.2
	l3.545-7.233c0.938-2.134,1.636-4.365,2.081-6.652c0.046-0.646-0.126-1.014-0.521-1.1l-0.071-0.07
	c-0.747-0.002-1.482,0.185-2.138,0.543c-1.18,0.535-2.291,1.209-3.311,2.01c-3.012,2.35-5.865,4.896-8.545,7.621
	c-0.086,0.049-0.13,0.092-0.13,0.131c-3.384,3.742-6.575,7.656-9.561,11.725c-2.041,2.78-4.084,3.608-6.133,2.481
	c-0.915-0.479-1.575-1.333-1.809-2.341c-0.078-1.088,0.224-2.168,0.852-3.061c3.058-5.208,6.807-9.979,11.144-14.182
	c3.469-3.854,7.506-7.152,11.972-9.786c4.089-2.554,7.549-3.735,10.376-3.545c2.356-0.013,4.528,1.267,5.661,3.333
	c1.005,2.068,1.26,4.419,0.722,6.654c-0.951,4.516-2.576,8.863-4.822,12.894c-2.267,4.454-4.813,8.761-7.623,12.894
	c-0.05,0.055-0.076,0.127-0.071,0.201c-0.001,0.066,0.024,0.131,0.071,0.178c0.06,0.054,0.127,0.097,0.201,0.129h0.201
	c4.253-1.539,8.422-3.299,12.491-5.271c4.929-2.356,9.727-4.976,14.372-7.847v0.07c4.501-2.746,8.842-5.75,13-8.994
	c1.835-1.338,3.559-2.687,5.164-4.041c0.898-0.898,2.762-2.637,5.59-5.211l5.271-5.213c0.911-1.104,2.295-1.707,3.724-1.619h0.071
	C100.266,0.102,101.282,0.591,102.037,1.38z M102.628,50.65c-0.312-1.245-1.011-2.358-1.997-3.179
	c-1.005-0.95-2.342-1.467-3.724-1.442c-2.563,0.076-5.064,0.791-7.279,2.081c-2.553,1.491-4.863,3.359-6.854,5.543
	c-2.208,2.146-4.053,4.637-5.46,7.374c-1.426,2.483-2.338,5.229-2.683,8.072c-0.395,3.079,0.126,4.62,1.56,4.62
	c1.221,0,2.943-0.76,5.164-2.281l6.973-5.542c4.059-3.806,8.824-8.88,14.301-15.222V50.65z"/>
</svg>
