<?xml version="1.0" encoding="utf-8"?>
<!-- Generator: Adobe Illustrator 16.0.0, SVG Export Plug-In . SVG Version: 6.00 Build 0)  -->
<!DOCTYPE svg PUBLIC "-//W3C//DTD SVG 1.1//EN" "http://www.w3.org/Graphics/SVG/1.1/DTD/svg11.dtd">
<svg version="1.1" id="Partner" xmlns="http://www.w3.org/2000/svg" xmlns:xlink="http://www.w3.org/1999/xlink" x="0px" y="0px"
	 width="800px" height="180px" viewBox="-146.445 -32.5 800 180" enable-background="new -146.445 -32.5 800 180"
	 xml:space="preserve">
<title>jz17-partner-knowit</title>
<g>
	<path fill="#FFFFFF" d="M84.215,29.261H72.127c-3.778,0-4.241,0.462-8.627,4.879L24.896,73.015V11.848
		c0.188-1.574-0.938-3.001-2.512-3.188c-0.226-0.027-0.453-0.027-0.679,0H3.21c-1.573-0.188-3.001,0.937-3.188,2.51
		c-0.027,0.226-0.027,0.453,0,0.679v8.228c-0.188,1.574,0.937,3.002,2.511,3.189c0.226,0.025,0.453,0.025,0.678,0h6.777v75.438H3.21
		c-1.573-0.188-3.001,0.938-3.188,2.512c-0.027,0.227-0.027,0.453,0,0.68v8.229c-0.177,1.582,0.963,3.012,2.548,3.188
		c0.212,0.023,0.428,0.023,0.641,0h28.337c1.572,0.188,3.001-0.938,3.188-2.512c0.027-0.225,0.027-0.453,0-0.678v-8.229
		c0.177-1.584-0.963-3.012-2.547-3.189c-0.213-0.023-0.429-0.023-0.641,0h-6.65V92.58L39.39,77.863l25.514,31.188
		c3.348,4.258,3.348,4.258,8.259,4.258h11.019c1.575,0.189,3.002-0.936,3.189-2.51c0.026-0.227,0.026-0.453,0-0.678v-8.229
		c0.188-1.574-0.938-3.004-2.512-3.189c-0.225-0.027-0.452-0.027-0.678,0h-9.088l-25.37-31.285l23.186-23.521h11.307
		c1.513,0.239,2.934-0.794,3.173-2.308c0.04-0.25,0.045-0.502,0.015-0.754v-8.387c0.188-1.574-0.937-3-2.511-3.188
		C84.666,29.233,84.439,29.233,84.215,29.261z"/>
	<path fill="#FFFFFF" d="M183.874,98.736h-6.697V62.762c0-21.415-13.489-35.256-34.362-35.256
		c-8.846-0.286-17.457,2.875-24.014,8.818v-3.826c0.187-1.574-0.938-3.002-2.513-3.189c-0.225-0.027-0.452-0.027-0.678,0H97.289
		c-1.563-0.197-2.991,0.91-3.188,2.475c-0.03,0.237-0.03,0.478,0,0.715v8.211c-0.177,1.584,0.964,3.012,2.547,3.188
		c0.214,0.024,0.428,0.024,0.642,0h6.697v54.837h-6.697c-1.573-0.188-3.002,0.938-3.188,2.512c-0.027,0.225-0.027,0.453,0,0.678
		v8.197c-0.188,1.572,0.937,3,2.512,3.188c0.225,0.027,0.452,0.027,0.678,0h28.225c1.574,0.188,3.001-0.938,3.188-2.512
		c0.026-0.225,0.026-0.453,0-0.678v-8.229c0.188-1.574-0.938-3.002-2.511-3.189c-0.225-0.025-0.453-0.025-0.678,0h-6.713V65.217
		c0-13.729,9.646-23.695,22.929-23.695c12.932,0,20.729,8.402,20.729,22.482v34.619h-6.697c-1.574-0.189-3.001,0.936-3.189,2.51
		c-0.025,0.227-0.025,0.453,0,0.68v8.309c-0.187,1.572,0.938,3,2.511,3.188c0.226,0.027,0.453,0.027,0.679,0h28.112
		c1.573,0.188,3.001-0.938,3.188-2.512c0.027-0.225,0.027-0.453,0-0.678v-8.229c0.169-1.576-0.971-2.99-2.547-3.16
		C184.302,98.711,184.087,98.711,183.874,98.736z"/>
	<path fill="#FFFFFF" d="M229.637,27.619c-24.109,0-43.054,19.293-43.054,43.914c0,24.365,18.752,43.467,42.703,43.467
		c24.206,0,43.165-19.293,43.165-43.914C272.467,46.705,253.635,27.619,229.637,27.619z M229.637,100.697
		c-15.499,0-27.649-13.012-27.649-29.611c0-16.598,11.703-29.147,27.314-29.147c15.61,0,27.793,12.996,27.793,29.595
		C257.096,88.133,245.28,100.697,229.637,100.697z"/>
	<path fill="#FFFFFF" d="M397.53,29.293h-28.91c-1.574-0.188-3.002,0.938-3.189,2.511c-0.025,0.226-0.025,0.452,0,0.678v8.229
		c-0.186,1.572,0.938,3,2.514,3.188c0.225,0.025,0.451,0.025,0.678,0h6.504L361.35,88.434l-19.518-56.749
		c-0.521-1.511-1.939-2.528-3.541-2.535h-5.771c-1.604,0.001-3.031,1.019-3.555,2.535l-19.311,56.718l-13.793-44.52h6.506
		c1.572,0.187,3-0.938,3.188-2.512c0.027-0.225,0.027-0.453,0-0.678v-8.195c0.188-1.574-0.938-3.002-2.512-3.189
		c-0.225-0.027-0.453-0.027-0.678,0h-29.229c-1.586-0.178-3.014,0.963-3.189,2.548c-0.023,0.212-0.023,0.429,0,0.642v8.228
		c-0.188,1.575,0.938,3.002,2.512,3.19c0.227,0.025,0.453,0.025,0.678,0h6.873l22.979,67.273c0.535,1.479,1.936,2.465,3.508,2.471
		h6.234c1.598-0.004,3.012-1.023,3.523-2.535l19.137-55.14l19.133,55.14c0.516,1.518,1.938,2.539,3.541,2.535h6.232
		c1.57-0.004,2.971-0.982,3.51-2.455l22.883-67.307h6.855c1.574,0.188,3.002-0.938,3.189-2.511c0.025-0.226,0.025-0.453,0-0.679
		v-8.211c0.188-1.584-0.945-3.019-2.527-3.205C397.983,29.267,397.754,29.267,397.53,29.293z"/>
	<path fill="#FFFFFF" d="M438.526,98.736h-6.697V32.498c0.178-1.584-0.965-3.013-2.547-3.189c-0.215-0.023-0.43-0.023-0.645,0
		h-18.496c-1.572-0.188-3.002,0.938-3.188,2.511c-0.027,0.226-0.027,0.453,0,0.679v8.228c-0.188,1.575,0.938,3.002,2.51,3.19
		c0.229,0.025,0.453,0.025,0.68,0h6.713v54.836H404.69c-1.574-0.188-3.002,0.938-3.189,2.51c-0.025,0.229-0.025,0.453,0,0.68v8.182
		c-0.188,1.572,0.938,3,2.512,3.188c0.225,0.027,0.453,0.027,0.678,0h33.838c1.574,0.188,3.002-0.938,3.188-2.512
		c0.027-0.225,0.027-0.453,0-0.678v-8.229c0.17-1.576-0.971-2.99-2.547-3.16C438.953,98.711,438.739,98.711,438.526,98.736z"/>
	<path fill="#FFFFFF" d="M503.903,70.607h-8.102c-1.574-0.188-3.002,0.938-3.188,2.512c-0.027,0.226-0.027,0.453,0,0.678v15.594
		c0,5.359-3.813,10.908-10.207,10.908c-7.971,0-11.434-3.334-11.434-11.162V43.899h19.566c1.574,0.188,3.002-0.938,3.189-2.511
		c0.025-0.225,0.025-0.453,0-0.678v-8.213c0.188-1.574-0.939-3-2.512-3.188c-0.227-0.026-0.453-0.026-0.68,0h-19.564V11.77
		c0.188-1.575-0.938-3.002-2.512-3.189c-0.225-0.026-0.451-0.026-0.678,0h-8.531c-1.584-0.178-3.012,0.963-3.188,2.547
		c-0.025,0.213-0.025,0.429,0,0.643v17.54h-8.914c-1.574-0.187-3.002,0.937-3.188,2.511c-0.027,0.225-0.027,0.453,0,0.678v8.229
		c-0.188,1.575,0.936,3.002,2.512,3.189c0.225,0.026,0.451,0.026,0.678,0h8.912v45.955c0,15.068,9.854,24.826,25.115,24.826
		c15.754,0,25.91-9.422,25.91-24.029V73.781c0.18-1.574-0.953-2.996-2.527-3.176C504.342,70.582,504.121,70.582,503.903,70.607z"/>
	<circle fill="#FFFFFF" cx="424.127" cy="9.344" r="9.344"/>
</g>
</svg>
