<?xml version="1.0" encoding="utf-8"?>
<!-- Generator: Adobe Illustrator 16.0.0, SVG Export Plug-In . SVG Version: 6.00 Build 0)  -->
<!DOCTYPE svg PUBLIC "-//W3C//DTD SVG 1.1//EN" "http://www.w3.org/Graphics/SVG/1.1/DTD/svg11.dtd">
<svg version="1.1" id="Layer_1" xmlns="http://www.w3.org/2000/svg" xmlns:xlink="http://www.w3.org/1999/xlink" x="0px" y="0px"
	 width="800px" height="180px" viewBox="-114.212 -32.5 800 180" enable-background="new -114.212 -32.5 800 180"
	 xml:space="preserve">
<g>
	<path fill="#FFFFFF" d="M381.363,78.181l-0.348-2.453l-0.549-2.397l-0.752-2.326l-0.951-2.252l-1.172-2.178l-1.301-2.052
		l-1.502-1.831l-1.646-1.83l-1.832-1.648l-1.83-1.428l-2.125-1.301l-2.178-1.025l-2.326-0.823l-2.396-0.55v-0.273l2.252-1.301
		l1.977-1.703l1.832-1.831l1.574-2.252l1.227-2.397l1.025-2.527l0.75-2.6l0.477-2.675L371.714,34l-0.146-2.875l-0.273-2.728
		l-0.402-2.454l-0.678-2.324l-0.752-2.104l-0.951-2.052l-1.1-1.83l-1.301-1.721l-1.371-1.502l-1.502-1.373l-1.574-1.3l-1.83-1.099
		l-1.832-1.025l-1.979-0.896l-1.977-0.75l-2.068-0.641l-2.125-0.551l-2.252-0.477l-2.326-0.402l-2.307-0.402l-2.416-0.166
		l-2.381-0.201h-2.453h-17.613l0,0h-4.137v104.729h31.125h2.453l2.527-0.129l2.451-0.273l2.453-0.348l2.398-0.477l2.326-0.623
		l2.324-0.75l2.197-0.824l2.123-1.025l1.979-1.098l1.832-1.152l1.83-1.301l1.703-1.502l1.5-1.646l1.43-1.832l1.227-1.832l1.1-2.049
		l0.879-2.197l0.695-2.398l0.549-2.453l0.348-2.674v-2.801L381.363,78.181z M326.984,16.735H339.8l2.527,0.201l2.381,0.202
		l2.25,0.421l2.125,0.549l1.977,0.75l1.832,0.952l1.648,1.152l1.445,1.447l1.152,1.703l1.025,1.977l0.678,2.326l0.477,2.6
		l0.129,3.003l-0.201,3.003l-0.387,2.672l-0.787,2.417l-1.043,1.959l-1.227,1.703l-1.428,1.429l-1.648,1.227l-1.83,0.953
		l-2.051,0.75l-2.125,0.549l-2.324,0.421l-2.453,0.274l-2.527,0.127h-12.486L326.984,16.735z M368.253,82.648l-0.477,2.525
		l-0.824,2.254l-1.025,2.049l-1.299,1.832l-1.502,1.502l-1.648,1.371l-1.83,1.1l-1.977,0.896l-2.18,0.752l-2.252,0.621l-2.326,0.404
		l-2.398,0.273l-2.381,0.129h-2.451h-16.605V61.903h17.008l2.473,0.128l2.453,0.275l2.453,0.421l2.381,0.476l2.324,0.678
		l2.252,0.879l2.125,1.025l1.83,1.301l1.703,1.428l1.428,1.703l1.227,1.978l0.881,2.179l0.549,2.526l0.201,2.802L368.253,82.648z"/>
	<polygon fill="#FFFFFF" points="13.054,98.066 68.367,98.066 68.367,109.947 0,109.947 0,5.055 13.054,5.055 	"/>
	<rect x="80.559" y="5.055" fill="#FFFFFF" width="13.056" height="104.893"/>
	<rect x="486.749" y="5.055" fill="#FFFFFF" width="13.055" height="104.893"/>
	<polygon fill="#FFFFFF" points="199.79,20.91 199.79,5.055 198.381,5.055 195.303,5.055 194.077,5.055 186.754,5.055 
		186.754,82.558 109.801,0 109.801,109.947 122.836,109.947 122.836,34.02 199.79,115 	"/>
	<path fill="#FFFFFF" d="M302.56,54.252l-0.146-2.655l-0.313-2.527l-0.4-2.526l-0.479-2.453l-0.549-2.325l-0.678-2.253l-0.75-2.178
		l-0.807-2.215l-0.953-2.052l-1.078-1.94l-1.1-1.832l-1.227-1.83l-1.137-1.832l-1.373-1.702l-1.428-1.647l-1.502-1.502l-1.574-1.501
		l-1.647-1.372l-1.831-1.301l-1.832-1.301l-1.83-1.153l-1.831-1.098l-1.832-1.026l-2.196-1.043l-2.052-0.951l-2.124-0.752
		l-2.179-0.75L265.48,7.93l-2.271-0.604l-2.325-0.551l-2.325-0.477l-2.397-0.348l-2.399-0.348l-2.453-0.275l-2.472-0.127
		l-2.525-0.146h-31.583v104.801h31.254h2.471l2.381-0.184l2.453-0.273l2.398-0.273l2.398-0.404l2.326-0.4l2.251-0.551l2.252-0.549
		l2.178-0.68l2.197-0.676l2.124-0.824l2.051-0.896l1.978-0.879l1.831-0.951l1.831-1.1l1.831-1.1l1.831-1.227l1.703-1.301
		l1.648-1.354l1.574-1.373l1.594-1.482l1.428-1.576l1.373-1.646l1.301-1.703l1.152-1.83l1.1-1.832l1.098-1.83l0.953-1.978
		l0.896-2.124l0.824-2.124l0.678-2.179l0.678-2.325l0.549-2.325l0.42-2.453l0.35-2.472l0.273-2.601l0.146-2.6v-2.729L302.56,54.252z
		 M289.579,60.422l-0.293,2.582l-0.33,2.6l-0.477,2.454l-0.549,2.325l-0.678,2.195l-0.824,2.18l-0.806,1.978l-1.024,1.831
		l-1.172,1.831L282.2,82.1l-1.301,1.629l-1.427,1.502l-1.502,1.43l-1.573,1.299l-1.631,1.227l-1.829,1.154l-1.832,1.025
		l-1.831,0.951l-1.978,0.896l-2.051,0.824l-2.05,0.678l-2.181,0.678l-2.196,0.551l-2.251,0.475l-2.252,0.623l-2.325,0.348
		l-2.398,0.275l-2.398,0.219l-2.453,0.129h-16.973v-81.02h14.501l2.453,0.129l2.453,0.146l2.399,0.201l2.397,0.275l2.325,0.346
		l2.251,0.404l2.252,0.477l2.197,0.623l2.18,0.603l2.051,0.751l2.051,0.75l1.978,0.881l1.831,0.951l1.831,1.098l1.831,1.1
		l1.63,1.227l1.574,1.301l1.501,1.446l1.428,1.501l1.3,1.648l1.228,1.703l1.172,1.832l1.024,1.83l0.899,2.051l0.822,2.123
		l0.678,2.18l0.549,2.398l0.477,2.472l0.258,2.563l0.201,2.728v2.801L289.579,60.422z"/>
	<polygon fill="#FFFFFF" points="507.24,52.365 553.597,5.055 570.679,5.055 523.46,52.273 571.577,109.947 553.872,109.947 	"/>
	<path fill="#FFFFFF" d="M466.74,109.855h14.078L430.65,0.478l-50.221,109.378h14.08l7.322-16.479h57.438L466.74,109.855z
		 M407.269,81.422l23.381-52.235l23.418,52.235H407.269z"/>
</g>
</svg>
