<?xml version="1.0" encoding="utf-8"?>
<!-- Generator: Adobe Illustrator 16.0.0, SVG Export Plug-In . SVG Version: 6.00 Build 0)  -->
<!DOCTYPE svg PUBLIC "-//W3C//DTD SVG 1.1//EN" "http://www.w3.org/Graphics/SVG/1.1/DTD/svg11.dtd">
<svg version="1.1" id="Partner" xmlns="http://www.w3.org/2000/svg" xmlns:xlink="http://www.w3.org/1999/xlink" x="0px" y="0px"
	 width="800px" height="180px" viewBox="-131.179 -32.5 800 180" enable-background="new -131.179 -32.5 800 180"
	 xml:space="preserve">
<g>
	<path fill="#FFFFFF" d="M-0.001,0h54.625c0,18.209,0,36.416,0,54.625H-0.001V0z"/>
	<path fill="#FFFFFF" d="M60.204,0h54.625c0,18.209,0,36.416,0,54.625H60.204C60.204,36.416,60.204,18.209,60.204,0z"/>
	<path fill="#FFFFFF" d="M492.655,20.903c5.199-3.069,11.449-3.805,17.217-2.028c0,3.383,0,6.765,0,10.146
		c-2.678-1.428-5.816-1.714-8.709-0.795c-2.188,1.016-3.689,3.1-3.957,5.497c-0.25,2.94-0.322,5.896-0.221,8.845h17.285
		c0-3.736,0-7.49,0-11.229c3.924-1.116,7.795-2.368,11.686-3.534c0,4.921,0,9.858,0,14.797c3.889,0,7.795,0,11.688,0v9.59
		c-3.908-0.17-7.832,0-11.738,0c0,5.513,0,11.026,0,16.558c0,3.061-0.168,6.121,0.186,9.166c0.053,1.889,1,3.643,2.557,4.719
		c2.922,1.387,6.367,1.063,8.979-0.848v9.539c-3.414,1.42-7.121,2-10.807,1.689c-3.559-0.104-6.92-1.648-9.318-4.277
		c-2.387-3.262-3.582-7.244-3.383-11.279c0-8.457,0-16.912,0-25.367h-17.08c0,13.281,0,26.568,0,39.859H485.2
		c0-13.281,0-26.563,0-39.844c-2.74,0-5.48,0-8.221,0c0-3.146,0-6.307,0-9.47c2.723,0,5.463,0,8.186,0
		c0.203-4.195-0.439-8.457,0.814-12.601c1.051-3.736,3.418-6.968,6.662-9.098L492.655,20.903z"/>
	<path fill="#FFFFFF" d="M239.69,21.58c2.434-0.396,4.902,0.478,6.545,2.316c1.854,2.135,2.184,5.196,0.828,7.678
		c-1.65,2.661-4.807,3.984-7.861,3.299c-3.16-0.612-5.451-3.363-5.48-6.58c-0.023-3.453,2.559-6.369,5.988-6.766L239.69,21.58z"/>
	<path fill="#FFFFFF" d="M149.126,23.051h17.183c5.345,13.529,10.705,27.104,16.083,40.724c1.37,3.382,2.654,6.765,4.075,10.147
		c6.884-16.912,13.868-33.824,20.684-50.887c5.514-0.086,11.025,0,16.541,0c0,22.965,0,45.932,0,68.896c-3.976,0-7.949,0-11.925,0
		c0-16.911,0-33.823,0-50.854c0-0.761,0-1.521,0-2.283c-0.232,0.353-0.441,0.72-0.625,1.101
		c-6.765,17.351-13.782,34.651-20.582,52.003c-2.824,0.102-5.666,0-8.456,0c-7.052-17.352-14.002-34.736-21.004-52.088
		c-0.187-0.355-0.39-0.71-0.593-1.048c-0.152,7.424,0,14.849,0,22.289c0,10.282,0,20.565,0,30.847H149.26
		c0-22.966,0-45.932,0-68.898L149.126,23.051z"/>
	<path fill="#FFFFFF" d="M272.28,42.517c5.738-1.618,11.813-1.618,17.553,0c1.186,0.319,2.32,0.792,3.383,1.403
		c0,3.771,0,7.525,0,11.297c-3.797-3.092-8.65-4.58-13.529-4.143c-3.891,0.352-7.451,2.328-9.809,5.445
		c-2.747,3.996-3.864,8.889-3.129,13.68c0.279,3.766,1.986,7.278,4.77,9.826c3.053,2.514,6.973,3.717,10.908,3.35
		c3.852-0.51,7.504-2.008,10.604-4.347c0,3.567,0,7.136,0,10.706c-4.938,2.68-10.553,3.855-16.152,3.381
		c-5.732-0.229-11.194-2.51-15.389-6.426c-4.391-4.411-6.945-10.32-7.152-16.541c-0.467-6.453,1.17-12.886,4.666-18.332
		C262.201,47.258,266.901,43.967,272.28,42.517z"/>
	<path fill="#FFFFFF" d="M401.266,41.772c5.504-0.905,11.15-0.323,16.354,1.69c0,3.619,0,7.238,0,10.857
		c-3.648-2.478-7.988-3.732-12.396-3.585c-2.311-0.065-4.473,1.125-5.648,3.112c-0.896,2.162-0.197,4.656,1.691,6.037
		c3.381,2.232,7.34,3.197,10.822,5.209c2.861,1.404,5.223,3.652,6.766,6.443c2.674,5.623,1.434,12.33-3.078,16.623
		c-4.363,4.076-10.654,5.209-16.438,5.074c-4.135-0.205-8.199-1.139-12.008-2.758c0-3.805,0-7.609,0-11.415
		c3.174,2.343,6.842,3.929,10.723,4.636c2.729,0.58,5.572,0.321,8.15-0.746c2.229-1.351,2.941-4.252,1.592-6.479
		c-0.061-0.097-0.121-0.19-0.188-0.283c-1.428-1.481-3.158-2.636-5.074-3.383c-3.572-1.345-6.979-3.099-10.146-5.226
		c-2.193-1.69-3.75-4.076-4.414-6.766c-1.094-4.01-0.48-8.294,1.691-11.838c2.791-3.928,7.068-6.537,11.838-7.221L401.266,41.772z"
		/>
	<path fill="#FFFFFF" d="M319.548,43.328c3.35-1.873,7.344-2.211,10.959-0.931c0,3.94,0,7.882,0,11.839
		c-2.389-1.48-5.205-2.119-8-1.81c-3.313,0.571-6.1,2.799-7.391,5.901c-1.363,3.199-1.943,6.68-1.691,10.146
		c0,7.893,0,15.785,0,23.678h-11.65c0-16.451,0-32.906,0-49.365c3.889,0,7.777,0,11.67,0c0,2.823,0,5.648,0,8.455
		c1.119-3.188,3.266-5.912,6.104-7.744V43.328L319.548,43.328z"/>
	<path fill="#FFFFFF" d="M234.768,42.584c3.926,0,7.848,0,11.84,0c0,16.455,0,32.894,0,49.348h-11.736c0-16.46,0-32.915,0-49.365
		L234.768,42.584z"/>
	<path fill="#FFFFFF" d="M379.483,54.119c-2.063-4.611-5.729-8.32-10.316-10.436c-5.344-2.213-11.197-2.902-16.912-1.996
		c-6.053,0.659-11.615,3.635-15.523,8.305c-3.34,4.338-5.244,9.612-5.445,15.084c-0.717,6.465,0.813,12.979,4.33,18.451
		c3.27,4.574,8.143,7.75,13.646,8.896c4.563,0.949,9.271,0.949,13.834,0c5.365-1.08,10.168-4.051,13.529-8.371
		c3.121-4.17,4.93-9.174,5.191-14.375C382.329,64.377,381.526,59.033,379.483,54.119z M368.067,76.779
		c-1.115,2.584-3.197,4.629-5.801,5.7c-3.088,1.13-6.449,1.276-9.623,0.422c-3.221-0.897-5.91-3.114-7.406-6.104
		c-1.738-3.873-2.359-8.154-1.793-12.361c0.197-3.88,1.824-7.549,4.564-10.299c2.16-1.893,4.91-2.977,7.779-3.061
		c3.625-0.339,7.221,0.893,9.877,3.381c2.547,2.836,3.992,6.49,4.076,10.301c0.4,4.078-0.174,8.193-1.674,12.007V76.779
		L368.067,76.779z"/>
	<path fill="#FFFFFF" d="M474.122,55.521c-1.822-4.965-5.445-9.064-10.146-11.482c-5.475-2.5-11.563-3.328-17.506-2.385
		c-4.809,0.534-9.354,2.481-13.055,5.598c-4.365,3.957-7.137,9.367-7.797,15.221c-0.926,5.779-0.283,11.701,1.861,17.148
		c2.309,5.314,6.625,9.502,12.006,11.652c5.324,1.943,11.068,2.428,16.641,1.402c5.734-0.891,10.922-3.91,14.527-8.455
		c3.613-4.854,5.494-10.778,5.346-16.826C476.141,63.353,475.505,59.322,474.122,55.521z M463.468,72.265
		c-0.375,2.644-1.43,5.144-3.063,7.255c-1.77,2.041-4.223,3.364-6.898,3.721c-2.85,0.483-5.775,0.168-8.457-0.912
		c-2.846-1.283-5.078-3.625-6.223-6.529c-1.303-3.426-1.783-7.109-1.404-10.756c0.137-3.568,1.393-7.006,3.586-9.825
		c2.184-2.507,5.303-4.007,8.625-4.144c3.4-0.355,6.807,0.646,9.471,2.791c2.273,2.055,3.781,4.821,4.277,7.846
		c0.623,3.492,0.623,7.063,0,10.555L463.468,72.265L463.468,72.265z"/>
	<path fill="#FFFFFF" d="M-0.001,60.291h54.625c0,18.207,0,36.416,0,54.625H-0.001V60.291z"/>
	<path fill="#FFFFFF" d="M60.204,60.291h54.625V115H60.204c0-18.209,0-36.416,0-54.625V60.291z"/>
</g>
</svg>
