<?xml version="1.0" encoding="utf-8"?>
<!-- Generator: Adobe Illustrator 16.0.0, SVG Export Plug-In . SVG Version: 6.00 Build 0)  -->
<!DOCTYPE svg PUBLIC "-//W3C//DTD SVG 1.1//EN" "http://www.w3.org/Graphics/SVG/1.1/DTD/svg11.dtd">
<svg version="1.1" id="Layer_1" xmlns="http://www.w3.org/2000/svg" xmlns:xlink="http://www.w3.org/1999/xlink" x="0px" y="0px"
	 width="800px" height="180px" viewBox="-89.622 -32.5 800 180" enable-background="new -89.622 -32.5 800 180"
	 xml:space="preserve">
<title>Asset 3</title>
<g id="Layer_2">
	<g id="Layer_1-2">
		<path fill="#FFFFFF" d="M149.164,59.337c9.129,0,13.328,4.84,13.328,15.245v38.567h14.789V70.474
			c0-15.655-8.262-24.646-22.822-24.646c-8.76-0.527-17.048,4.016-21.315,11.686l-1.141,2.326V47.652H117.67v65.452h14.697V75.449
			c-0.525-8.401,5.861-15.64,14.265-16.165C147.476,59.232,148.323,59.251,149.164,59.337z"/>
		<path fill="#FFFFFF" d="M486.973,59.337c9.131,0,13.328,4.84,13.328,15.245v38.567h14.789V70.474
			c0-15.655-8.262-24.646-22.594-24.646c-8.777-0.547-17.088,3.999-21.361,11.686l-1.096,2.326V47.652h-14.561v65.452h14.65V75.449
			c-0.5-8.431,5.932-15.668,14.361-16.167C485.321,59.233,486.149,59.253,486.973,59.337z"/>
		<path fill="#FFFFFF" d="M254.327,79.011c0-19.854-12.827-33.184-31.951-33.184c-19.125,0-33.184,14.332-33.184,34.872
			c0,20.538,13.693,34.276,34.781,34.276c10.675,0.393,20.945-4.113,27.889-12.23l-8.765-8.582
			c-4.703,5.318-11.523,8.277-18.622,8.08c-10.265,0.871-19.302-6.721-20.22-16.98v-0.684h49.751
			C254.225,82.729,254.332,80.87,254.327,79.011z M204.118,74.445c0.87-9.308,8.923-16.272,18.258-15.793
			c8.643-0.706,16.222,5.729,16.928,14.372c0.038,0.457,0.054,0.916,0.051,1.375L204.118,74.445z"/>
		<path fill="#FFFFFF" d="M340.093,59.337c8.354,0,12.23,4.564,12.23,15.019v38.796h14.836V70.384c0-15.61-7.988-24.74-21.818-24.74
			c-9.26-0.563-17.984,4.371-22.273,12.599l-0.547,1.323l-0.549-1.369c-3.039-7.986-10.914-13.07-19.444-12.553
			c-8.521-0.414-16.523,4.094-20.587,11.595l-1.095,2.237V47.653h-14.561v65.453h14.79V75.359
			c-0.682-8.164,5.387-15.334,13.551-16.015c0.792-0.065,1.586-0.068,2.378-0.008c8.354,0,12.232,4.564,12.232,15.019v38.796h14.834
			V75.359c-0.629-8.22,5.523-15.392,13.742-16.021C338.573,59.279,339.335,59.279,340.093,59.337z"/>
		<path fill="#FFFFFF" d="M73.806,59.337c8.354,0,12.232,4.564,12.232,15.019v38.796h14.789V70.384
			c0-15.61-7.941-24.74-21.772-24.74c-9.26-0.563-17.984,4.371-22.273,12.599l-0.594,1.323l-0.502-1.369
			c-3.055-7.993-10.947-13.076-19.488-12.553c-8.511-0.418-16.502,4.093-20.54,11.595l-1.142,2.237V47.653H0v65.453h14.789V75.359
			c-0.68-8.164,5.388-15.334,13.552-16.015c0.792-0.065,1.586-0.068,2.378-0.008c8.353,0,12.232,4.564,12.232,15.019v38.796H57.74
			V75.359c-0.632-8.22,5.521-15.394,13.739-16.024C72.253,59.274,73.031,59.275,73.806,59.337z"/>
		<path fill="#FFFFFF" d="M411.934,45.644c-18.439-0.616-33.893,13.834-34.51,32.275c-0.023,0.774-0.023,1.549,0.004,2.323
			c0,19.058,15.449,34.507,34.506,34.507c19.059,0,34.508-15.449,34.508-34.507c0.666-18.44-13.744-33.929-32.184-34.595
			C413.485,45.619,412.71,45.618,411.934,45.644z M411.934,101.421c-11.547,0-19.307-8.49-19.307-21.179s7.76-20.905,19.307-20.905
			c11.549,0,19.354,8.582,19.354,21.271c0,12.688-7.805,20.996-19.354,20.996V101.421z"/>
		<polygon fill="#FFFFFF" points="532.663,45.005 532.663,113.104 547.452,113.104 547.452,55.64 		"/>
		<path fill="#FFFFFF" d="M608.385,90.237c-2.639,6.666-9.08,11.045-16.25,11.047c-11.639,0-19.17-8.309-19.17-21.18
			s7.531-21.133,19.17-21.133c7.154-0.084,13.619,4.254,16.25,10.908l12.369-6.754c-5.299-11.359-17.023-18.3-29.531-17.482
			c-19.672,0-33.457,14.24-33.457,34.598s13.693,34.508,33.457,34.508c12.432,0.686,24.023-6.277,29.258-17.574L608.385,90.237z"/>
		<polygon fill="#FFFFFF" points="563.38,20.449 563.38,42.495 532.8,20.495 		"/>
		<polygon fill="#FFFFFF" points="602.635,20.495 532.8,20.495 532.8,0.001 574.335,0.001 		"/>
	</g>
</g>
</svg>
