<?xml version="1.0" encoding="utf-8"?>
<!-- Generator: Adobe Illustrator 16.0.0, SVG Export Plug-In . SVG Version: 6.00 Build 0)  -->
<!DOCTYPE svg PUBLIC "-//W3C//DTD SVG 1.1//EN" "http://www.w3.org/Graphics/SVG/1.1/DTD/svg11.dtd">
<svg version="1.1"
	 id="Partner" sodipodi:docname="programutvikling.svg" inkscape:version="0.92.3 (2405546, 2018-03-11)" xmlns:inkscape="http://www.inkscape.org/namespaces/inkscape" xmlns:dc="http://purl.org/dc/elements/1.1/" xmlns:rdf="http://www.w3.org/1999/02/22-rdf-syntax-ns#" xmlns:svg="http://www.w3.org/2000/svg" xmlns:cc="http://creativecommons.org/ns#" xmlns:sodipodi="http://sodipodi.sourceforge.net/DTD/sodipodi-0.dtd"
	 xmlns="http://www.w3.org/2000/svg" xmlns:xlink="http://www.w3.org/1999/xlink" x="0px" y="0px" width="1079.643px"
	 height="180px" viewBox="0 -32.5 1079.643 180" enable-background="new 0 -32.5 1079.643 180" xml:space="preserve">
<g>
	<path id="path8" fill="#FFFFFF" d="M18.298,89.368c0,4.311,2.071,6.244,5.84,6.244h15.685v6.248H24.274
		c-6.746,0.236-12.406-5.043-12.642-11.789c-0.014-0.369-0.009-0.74,0.013-1.111V60.374c0-4.008-1.936-6.248-5.84-6.248H0.001
		v-6.383h5.84c3.892,0,5.838-2.082,5.838-6.246V12.909C11.3,6.17,16.457,0.399,23.196,0.021c0.371-0.023,0.741-0.027,1.112-0.014
		h15.55v6.248H24.139c-3.734,0-5.84,1.936-5.84,6.248v28.721c0.066,4.006-2.055,7.729-5.532,9.71c3.426,2.035,5.53,5.726,5.532,9.71
		v28.725H18.298z"/>
	<path id="path10" fill="#FFFFFF" d="M99.441,60.644c0.004-3.984,2.106-7.675,5.535-9.71c-3.48-1.983-5.602-5.706-5.535-9.71V12.503
		c0-4.313-2.072-6.248-5.84-6.248H78.086V0.007h15.55c6.746-0.234,12.406,5.042,12.643,11.789c0.014,0.373,0.009,0.743-0.013,1.113
		v28.588c0,4.164,1.946,6.246,5.84,6.246h5.84v6.383h-5.907c-3.872,0-5.84,2.206-5.84,6.248V88.96
		c0.379,6.74-4.777,12.512-11.518,12.891c-0.371,0.02-0.741,0.023-1.111,0.012H78.087v-6.248h15.687
		c3.734,0,5.838-1.936,5.838-6.246L99.441,60.644z"/>
	<path id="path12" fill="#FFFFFF" d="M199.869,53.413v36.771h-7.097V5.032h30.793c16.636,0,26.923,8.319,26.923,24.141
		c0,15.822-10.185,24.275-26.923,24.275L199.869,53.413z M223.295,11.381h-23.426v35.513h23.426
		c13.173,0,20.099-6.519,20.099-17.756c0-11.238-6.893-17.723-20.099-17.723V11.381z"/>
	<path id="path14" fill="#FFFFFF" d="M293.2,34.978c-1.805-0.761-3.747-1.142-5.704-1.119c-7.504,0-13.58,5.397-16.364,13.308
		v43.019h-6.789v-61.59h6.789v9.848c2.915-6.621,9.404-10.951,16.636-11.103c1.831-0.009,3.651,0.265,5.398,0.815L293.2,34.978z"/>
	<path id="path16" fill="#FFFFFF" d="M327.32,91.472c-16.229,0-27.161-13.037-27.161-32.05c0-19.015,10.968-32.052,27.161-32.052
		c16.196,0,27.162,13.037,27.162,32.052C354.481,78.435,343.685,91.472,327.32,91.472z M327.32,33.483
		c-12.222,0-20.37,10.389-20.37,25.938s8.046,25.938,20.37,25.938s20.372-10.39,20.372-25.938c0-15.552-8.183-25.972-20.372-25.972
		V33.483z"/>
	<path id="path18" fill="#FFFFFF" d="M411.112,79.657c-4.289,6.303-11.39,10.105-19.014,10.186c-17.891,0-26.48-14.701-26.48-31.2
		c0-16.502,8.591-31.2,26.48-31.2c7.617,0.102,14.708,3.9,19.014,10.185v-9.032h6.789v57.141c0,19.42-10.524,29.266-25.937,29.266
		c-14.159,0-23.021-7.061-25.262-18.74h6.792c2.069,8.59,8.861,12.766,18.299,12.766c12.222,0,19.013-7.912,19.013-22.883
		L411.112,79.657z M411.112,45.706c-3.337-7.135-10.426-11.764-18.3-11.95c-12.766,0-20.37,10.185-20.37,24.817
		s7.502,24.955,20.37,24.955c7.866-0.18,14.955-4.797,18.3-11.916V45.706z"/>
	<path id="path20" fill="#FFFFFF" d="M466.724,34.978c-1.788-0.791-3.716-1.207-5.671-1.222c-7.502,0-13.581,5.397-16.363,13.308
		v43.121h-6.792v-61.59h6.792v9.848c2.915-6.621,9.403-10.951,16.636-11.103c1.829-0.009,3.651,0.265,5.398,0.815V34.978
		L466.724,34.978z"/>
	<path id="path22" fill="#FFFFFF" d="M513.609,90.183v-5.809c-4.526,4.439-10.638,6.883-16.974,6.791
		c-12.495,0-22.748-7.199-22.748-19.014s10.185-18.875,23.018-18.875c6.211-0.01,12.196,2.318,16.773,6.518v-10.93
		c0.023-8.627-6.948-15.64-15.572-15.666c-6.763-0.021-12.77,4.316-14.883,10.742h-6.789c2.21-10.121,11.416-17.16,21.761-16.637
		c13.581,0,22.069,8.316,22.069,21.219v41.66H513.609L513.609,90.183z M513.609,68.25c-1.935-5.265-8.86-9.169-16.363-9.169
		c-8.727,0-16.977,4.313-16.977,13.039c0,8.725,8.183,13.17,16.977,13.17c7.503,0,14.429-3.869,16.363-9.166V68.25z"/>
	<path id="path24" fill="#FFFFFF" d="M600.289,27.339c12.493,0,18.739,8.861,18.739,21.219v41.625h-6.788V49.44
		c0-9.439-4.177-15.822-13.175-15.822c-7.657,0.344-14.243,5.535-16.364,12.904v43.66h-6.789V49.44
		c0-9.439-4.177-15.822-13.174-15.822c-7.657,0.344-14.243,5.535-16.364,12.904v43.66h-6.79V28.594h6.79v9.438
		c3.461-6.601,10.306-10.723,17.756-10.693c7.731-0.381,14.771,4.436,17.213,11.779C585.147,32.133,592.34,27.659,600.289,27.339z"
		/>
	<path id="path26" fill="#FFFFFF" d="M637.599,56.604V5.032h7.063v50.621c0,19.961,10.83,29.266,25.53,29.266
		c14.699,0,25.804-9.305,25.804-29.266V5.032h6.789v51.604c0,23.429-14.431,34.835-32.729,34.835
		C651.757,91.472,637.599,80.065,637.599,56.604z"/>
	<path id="path28" fill="#FFFFFF" d="M724.854,34.571h-10.389v-5.978h10.389V12.772h6.789v15.821h15.958v5.978h-15.958V75.31
		c0,6.793,3.057,9.98,8.896,9.98c2.974-0.035,5.886-0.842,8.453-2.342v6.521c-2.855,1.379-5.993,2.088-9.166,2.068
		c-9.032,0-14.973-4.992-14.973-15.549V34.571z"/>
	<path id="path30" fill="#FFFFFF" d="M780.193,90.183l-24.546-61.589h7.368l20.37,52.013l20.369-52.013h7.063l-24.411,61.589
		H780.193z"/>
	<path id="path32" fill="#FFFFFF" d="M826.369,14.573c-2.574,0.037-4.698-2.008-4.756-4.582c0.003-2.607,2.117-4.719,4.726-4.715
		c2.603,0.002,4.713,2.109,4.715,4.715C830.998,12.536,828.916,14.573,826.369,14.573z M829.761,90.183h-6.789V28.594h6.789V90.183z
		"/>
	<path id="path34" fill="#FFFFFF" d="M863.985,59.387l-7.505,6.791v23.767h-6.789V0.007h6.789v58.26l32.596-29.673h9.166
		l-29.267,26.483l30.252,35.105h-8.456L863.985,59.387z"/>
	<path id="path36" fill="#FFFFFF" d="M918.34,90.183h-6.789V0.007h6.789V90.183z"/>
	<path id="path38" fill="#FFFFFF" d="M941.496,14.573c-2.563,0.02-4.664-2.023-4.721-4.582c0.002-2.607,2.117-4.719,4.725-4.715
		c2.603,0.002,4.713,2.109,4.716,4.715C946.159,12.549,944.056,14.593,941.496,14.573z M944.89,90.183h-6.792V28.594h6.792V90.183z"
		/>
	<path id="path40" fill="#FFFFFF" d="M964.649,28.594h6.791v9.847c4.303-6.754,11.688-10.916,19.692-11.102
		c14.021,0,21.354,9.029,21.354,22.066v40.742h-6.788V50.391c0-9.575-4.856-16.636-15.821-16.636
		c-8.259,0.338-15.518,5.576-18.437,13.309v43.119h-6.791V28.594L964.649,28.594z"/>
	<path id="path42" fill="#FFFFFF" d="M1072.852,79.657c-4.291,6.303-11.392,10.105-19.014,10.186c-17.894,0-26.48-14.701-26.48-31.2
		c0-16.502,8.589-31.2,26.48-31.2c7.617,0.102,14.708,3.9,19.014,10.185v-9.032h6.789v57.141c0,19.42-10.56,29.266-25.938,29.266
		c-14.157,0-23.02-7.061-25.259-18.74h6.788c2.071,8.59,8.86,12.766,18.301,12.766c12.223,0,19.012-7.912,19.012-22.883
		L1072.852,79.657z M1072.852,45.706c-3.357-7.178-10.512-11.816-18.437-11.95c-12.768,0-20.37,10.185-20.37,24.817
		s7.502,24.955,20.37,24.955c7.916-0.131,15.065-4.752,18.437-11.916V45.706z"/>
</g>
</svg>
