<?xml version="1.0" encoding="utf-8"?>
<!-- Generator: Adobe Illustrator 16.0.0, SVG Export Plug-In . SVG Version: 6.00 Build 0)  -->
<!DOCTYPE svg PUBLIC "-//W3C//DTD SVG 1.1//EN" "http://www.w3.org/Graphics/SVG/1.1/DTD/svg11.dtd">
<svg version="1.1" id="Layer_1" xmlns="http://www.w3.org/2000/svg" xmlns:xlink="http://www.w3.org/1999/xlink" x="0px" y="0px"
	 width="1058.859px" height="180px" viewBox="-145.43 -34.961 1058.859 180" enable-background="new -145.43 -34.961 1058.859 180"
	 xml:space="preserve">
<title>svg-dark-grey-logo</title>
<path fill="#FFFFFF" d="M-145.43,74.384h34.446c0,11.929,4.961,12.866,14.923,12.866h42.176c7.328,0,14.744-0.76,14.744-9.471
	c0-9.784-4.021-10.365-48.385-10.365c-51.871,0-57.769-6.211-57.769-33.865c0-20.33,1.875-35.967,45.349-35.967h48.116
	c39.72,0,43.429,13.404,43.429,33.24v3.574h-34.448c0-8.219-0.938-11.662-16.754-11.662h-38.199c-7.729,0-13.001,2.638-13.001,8.937
	c0,9.785,4.155,10.097,41.103,9.918c53.613,0,65.989,3.128,65.989,35.742c0,30.247-10.275,35.206-56.024,35.206h-41.774
	c-31.275,0-43.918-5.896-43.918-30.248v-7.905H-145.43z"/>
<rect x="19.387" y="-1.211" fill="#FFFFFF" width="34.445" height="112.363"/>
<path fill="#FFFFFF" d="M76.484,38.24c0-32.928,18.498-40.657,49.504-40.657h51.87c39.094,0,44.678,14.164,44.678,36.011v3.573h-34
	c0-11.168-6.344-12.554-17.379-12.554h-37.396c-17.38,0-21.893,4.201-21.893,23.412v13.982c0,19.256,4.467,23.457,21.893,23.457
	h36.77c8.935,0,17.871-1.43,17.871-12.287v-3.262h-42.668V46.729h77.293v31.989c0,32.257-16.8,33.821-55.58,33.821h-41.46
	c-31.006,0-49.504-7.773-49.504-40.657L76.484,38.24L76.484,38.24z"/>
<polygon fill="#FFFFFF" points="243.802,-1.211 297.191,-1.211 361.93,80.416 362.242,80.416 362.242,-1.211 396.689,-1.211 
	396.689,111.154 343.299,111.154 278.561,29.527 278.249,29.527 278.249,111.154 243.802,111.154 "/>
<rect x="421.799" y="-1.211" fill="#FFFFFF" width="34.445" height="112.363"/>
<path fill="#FFFFFF" d="M478.941,38.24c0-32.928,18.452-40.701,49.502-40.701h40.523c49.145,0,55.398,10.589,55.086,42.398h-34.445
	v-3.127c0-8.041-5.896-10.41-16.173-10.41h-37.53c-18.184,0-21.579,8.578-21.579,22.338v12.287c0,16.308,3.396,22.34,19.704,22.34
	H570.8c15.547,0,20.192-1.564,20.192-15.504h34.446v10.545c0,18.941-6.836,33.82-41.415,33.82h-55.58
	c-31.05,0-49.502-7.773-49.502-40.658V38.24L478.941,38.24z"/>
<path fill="#FFFFFF" d="M690.802-1.211h44.679l61.789,112.363h-38.334l-10.32-19.746H678.56l-10.098,19.836H629.95L690.802-1.211z
	 M691.427,67.102h44.096l-22.338-42.22L691.427,67.102z"/>
<polygon fill="#FFFFFF" points="782.123,-1.211 913.429,-1.211 913.429,26.713 865,26.713 865,111.154 830.553,111.154 
	830.553,26.713 782.123,26.713 "/>
</svg>
