<svg xmlns="http://www.w3.org/2000/svg" id="Layer_1" data-name="Layer 1" viewBox="0 0 237 25.71"
     class="hs-image-widget  replaced-svg">
    <defs>
        <style>.cls-1{fill:#fff;}.cls-2{fill:none;}</style>
    </defs>
    <title>svg-dark-grey-logo</title>
    <path class="cls-1"
          d="M-.11,17.19H7.6c0,2.67,1.11,2.88,3.34,2.88h9.44c1.64,0,3.3-.17,3.3-2.12,0-2.19-.9-2.32-10.83-2.32C1.24,15.63-.08,14.24-.08,8.05-.08,3.5.34,0,10.07,0H20.84c8.89,0,9.72,3,9.72,7.44v.8H22.85c0-1.84-.21-2.61-3.75-2.61H10.55c-1.73,0-2.91.59-2.91,2,0,2.19.93,2.26,9.2,2.22,12,0,14.77.7,14.77,8,0,6.77-2.3,7.88-12.54,7.88H9.72c-7,0-9.83-1.32-9.83-6.77Z"
          transform="translate(0.11 0.01)"></path>
    <rect class="cls-1" x="36.89" y="0.28" width="7.71" height="25.15"></rect>
    <path class="cls-1"
          d="M49.56,9.1C49.56,1.73,53.7,0,60.64,0H72.25c8.75,0,10,3.17,10,8.06v.8H74.64c0-2.5-1.42-2.81-3.89-2.81H62.38c-3.89,0-4.9.94-4.9,5.24v3.13c0,4.31,1,5.25,4.9,5.25h8.23c2,0,4-.32,4-2.75v-.73H65.06V11h17.3v7.16c0,7.22-3.76,7.57-12.44,7.57H60.64c-6.94,0-11.08-1.74-11.08-9.1Z"
          transform="translate(0.11 0.01)"></path>
    <polygon class="cls-1"
             points="87.12 0.28 99.07 0.28 113.56 18.55 113.63 18.55 113.63 0.28 121.34 0.28 121.34 25.43 109.39 25.43 94.9 7.16 94.83 7.16 94.83 25.43 87.12 25.43 87.12 0.28"></polygon>
    <rect class="cls-1" x="126.96" y="0.28" width="7.71" height="25.15"></rect>
    <path class="cls-1"
          d="M139.64,9.1c0-7.37,4.13-9.11,11.08-9.11h9.07c11,0,12.4,2.37,12.33,9.49h-7.71v-.7c0-1.8-1.32-2.33-3.62-2.33h-8.4c-4.07,0-4.83,1.92-4.83,5V14.2c0,3.65.76,5,4.41,5h8.23c3.48,0,4.52-.35,4.52-3.47h7.71v2.36c0,4.24-1.53,7.57-9.27,7.57H150.72c-6.95,0-11.08-1.74-11.08-9.1Z"
          transform="translate(0.11 0.01)"></path>
    <path class="cls-1" d="M187.06.27h10l13.83,25.15h-8.58L200,21H184.32l-2.26,4.44h-8.62Zm.14,15.29h9.87l-5-9.45Z"
          transform="translate(0.11 0.01)"></path>
    <polygon class="cls-1"
             points="207.61 0.28 237 0.28 237 6.53 226.16 6.53 226.16 25.43 218.45 25.43 218.45 6.53 207.61 6.53 207.61 0.28"></polygon>
    <rect class="cls-2" width="237" height="25.71"></rect>
</svg>