<?xml version="1.0" encoding="utf-8"?>
<!-- Generator: Adobe Illustrator 16.0.0, SVG Export Plug-In . SVG Version: 6.00 Build 0)  -->
<!DOCTYPE svg PUBLIC "-//W3C//DTD SVG 1.1//EN" "http://www.w3.org/Graphics/SVG/1.1/DTD/svg11.dtd">
<svg version="1.1" id="Layer_1" xmlns="http://www.w3.org/2000/svg" xmlns:xlink="http://www.w3.org/1999/xlink" x="0px" y="0px"
	 width="600px" height="180px" viewBox="6 306 600 180" enable-background="new 6 306 600 180" xml:space="preserve">
<title>sticos</title>
<g id="Layer_2">
	<g id="Layer_1-2">
		<path fill="#FFFFFF" d="M204.992,388.316c0-4.77,3.729-7.457,10.299-7.457c6.261,0,11.192,2.23,14.47,3.729
			c3.729,1.639,6.571,1.195,8.357-2.393l1.491-2.68c1.646-3.426,1.196-6.563-2.236-8.364c-6.458-3.663-13.765-5.566-21.188-5.522
			c-15.962,0-29.095,7.921-29.095,22.841c0,26.113,37.755,21.484,37.755,33.872c0,4.763-4.038,7.737-10.602,7.737
			c-7.738,0-13.429-3.277-17.009-5.212c-3.729-1.948-6.268-1.646-8.499,1.491l-1.793,2.68c-2.245,3.278-1.942,6.563,1.491,8.498
			c7.473,5.1,16.322,7.799,25.367,7.738c17.587,0,28.948-9.989,28.948-23.418C242.747,395.934,204.992,400.859,204.992,388.316z"/>
		<path fill="#FFFFFF" d="M289.879,427.267c-5.212-0.605-12.233-2.813-12.233-14.175v-29.553h11.192c3.883,0,6.121-2.11,6.121-6.274
			v-2.533c0-4.031-2.237-6.268-6.269-6.268h-11.044v-18.522c0-4.024-2.236-6.268-6.261-6.268h-5.972
			c-4.031,0-6.268,2.244-6.268,6.268v18.529h-4.326c-4.178,0-6.268,2.237-6.268,6.268v2.532c0,4.18,2.111,6.275,6.121,6.275h4.031
			v32.825c0,20.589,16.109,27.906,29.693,27.906c5.219,0,7.738-1.795,7.738-6.269v-4.629
			C296.155,429.201,294.508,427.71,289.879,427.267z"/>
		<path fill="#FFFFFF" d="M320.587,367.43h-6.571c-4.023,0-6.113,2.238-6.113,6.269v63.558c0,4.179,2.111,6.275,6.113,6.275h6.571
			c4.023,0,6.119-2.11,6.119-6.275v-63.565C326.741,369.668,324.631,367.43,320.587,367.43z"/>
		<path fill="#FFFFFF" d="M320.587,343.604h-6.571c-4.023,0-6.113,2.244-6.113,6.275v4.481c0,4.017,2.111,6.107,6.113,6.107h6.571
			c4.023,0,6.261-2.111,6.261-6.107v-4.481C326.847,345.848,324.631,343.604,320.587,343.604z"/>
		<path fill="#FFFFFF" d="M408.344,428.16l-1.491-2.813c-1.942-3.588-4.776-4.031-8.512-1.942
			c-3.574,2.533-9.547,5.818-17.003,5.818c-14.625,0-23.728-11.045-23.728-23.876c0-12.979,9.103-23.573,23.13-23.573
			c5.274,0.043,10.416,1.654,14.772,4.628c3.588,1.787,6.12,1.787,8.364-1.653l1.935-2.975c2.109-3.278,1.941-6.416-1.196-8.505
			c-4.474-3.137-12.662-7.618-24.917-7.618c-25.219,0-41.328,18.205-41.328,39.844c0,22.089,16.109,39.845,41.328,39.845
			c9.716,0.046,19.187-3.043,27.007-8.808C409.652,434.429,410.101,431.438,408.344,428.16z"/>
		<path fill="#FFFFFF" d="M454.434,365.63c-23.13,0-41.771,16.566-41.771,39.844c0,23.433,18.642,39.845,41.771,39.845
			s41.935-16.412,41.935-39.845C496.369,382.196,477.564,365.63,454.434,365.63z M454.434,429.201
			c-12.381,0-22.511-9.553-22.511-23.728c0-14.027,10.145-23.721,22.511-23.721c12.367,0,22.687,9.694,22.687,23.721
			C477.121,419.649,466.822,429.201,454.434,429.201z"/>
		<path fill="#FFFFFF" d="M521.151,388.316c0-4.77,3.729-7.457,10.299-7.457c6.269,0,11.192,2.23,14.478,3.729
			c3.729,1.639,6.563,1.195,8.357-2.393l1.484-2.68c1.646-3.426,1.195-6.563-2.237-8.364c-6.458-3.663-13.765-5.566-21.188-5.522
			c-15.961,0-29.095,7.921-29.095,22.841c0,26.113,37.755,21.484,37.755,33.872c0,4.763-4.031,7.737-10.595,7.737
			c-7.737,0-13.437-3.277-17.017-5.212c-3.729-1.948-6.261-1.646-8.505,1.491l-1.787,2.68c-2.244,3.278-1.941,6.563,1.491,8.498
			c7.473,5.1,16.321,7.799,25.367,7.738c17.587,0,28.947-9.989,28.947-23.418C558.885,395.934,521.151,400.859,521.151,388.316z"/>
		<path fill="#FFFFFF" d="M72.459,439.015c2.302,2.075,5.236,3.313,8.329,3.518h0.091c9.223,0.499,15.005-8.694,15.561-12.29
			c1.013-6.514-2.434-15.265-3.082-17.34c-1.765-4.553-2.851-9.341-3.222-14.21c-1.611-20.605,18.361-23.046,19.613-23.292
			c1.407-0.274,3.925-1.323,3.609-4.791c-2.167-23.651,15.821-25.515,16.7-27.33c0.017-0.034,0.031-0.07,0.042-0.106
			c0.163-0.664-0.214-1.342-0.865-1.555c-30.025-10.309-62.721,5.673-73.031,35.698C48.663,399.28,55.077,423.62,72.459,439.015z"/>
		<circle fill="#FFFFFF" cx="110.573" cy="395.998" r="12.261"/>
		<path fill="#FFFFFF" d="M148.686,352.974c-2.304-2.072-5.237-3.311-8.329-3.518h-0.091c-9.223-0.499-15.005,8.695-15.561,12.29
			c-1.014,6.514,2.434,15.265,3.081,17.34c1.765,4.553,2.851,9.341,3.222,14.21c1.611,20.604-18.36,23.046-19.613,23.292
			c-1.407,0.273-3.925,1.321-3.608,4.79c2.167,23.657-15.821,25.5-16.7,27.315c-0.016,0.034-0.031,0.069-0.042,0.105
			c-0.171,0.669,0.208,1.356,0.865,1.569c30.035,10.291,62.727-5.713,73.018-35.748
			C172.448,392.678,166.043,368.364,148.686,352.974z"/>
	</g>
</g>
</svg>
