<?xml version="1.0" encoding="utf-8"?>
<!-- Generator: Adobe Illustrator 16.0.0, SVG Export Plug-In . SVG Version: 6.00 Build 0)  -->
<!DOCTYPE svg PUBLIC "-//W3C//DTD SVG 1.1//EN" "http://www.w3.org/Graphics/SVG/1.1/DTD/svg11.dtd">
<svg version="1.1"
	 id="svg2" sodipodi:docname="Vector Smart Object.ai" inkscape:version="0.48.2 r9819" xmlns:inkscape="http://www.inkscape.org/namespaces/inkscape" xmlns:dc="http://purl.org/dc/elements/1.1/" xmlns:rdf="http://www.w3.org/1999/02/22-rdf-syntax-ns#" xmlns:svg="http://www.w3.org/2000/svg" xmlns:cc="http://creativecommons.org/ns#" xmlns:sodipodi="http://sodipodi.sourceforge.net/DTD/sodipodi-0.dtd"
	 xmlns="http://www.w3.org/2000/svg" xmlns:xlink="http://www.w3.org/1999/xlink" x="0px" y="0px" width="800px" height="180px"
	 viewBox="-71.76 -32.5 800 180" enable-background="new -71.76 -32.5 800 180" xml:space="preserve">
<g>
	<g id="g14">
		<g id="g24" transform="translate(24.3091,28.9087)">
			<path id="path26" fill="#FFFFFF" d="M43.997-28.909h27.681v70.727c0,26.402-18.504,44.273-47.98,44.273
				c-29.486,0-48.007-17.871-48.007-44.273v-70.727H3.402v71.377c0,13.521,8.061,20.601,20.296,20.601
				c12.23,0,20.3-7.078,20.3-20.601V-28.909z"/>
		</g>
		<g id="g28" transform="translate(45.5747,8.7119)">
			<path id="path30" fill="#FFFFFF" d="M141.461,104.05L99.255,38.173v65.877H72.195V-8.712H98.44l42.357,65.891V-8.712h27.078
				V104.05H141.461z"/>
		</g>
		<path id="path32" fill="#FFFFFF" d="M268.851,112.762h-27.688V0h27.688V112.762z"/>
		<g id="g34" transform="translate(66.9956,28.9087)">
			<path id="path36" fill="#FFFFFF" d="M239.638-28.909l42.354,65.894v-65.894H239.638z"/>
		</g>
		<g id="g38" transform="translate(80.2236,28.9087)">
			<path id="path40" fill="#FFFFFF" d="M300.26-28.909h81.662v23.031h-53.959V15.22h49.18v23.043h-49.18v22.563h54.143v23.025
				H300.26V-28.909z"/>
		</g>
		<g id="g42" transform="translate(112.252,28.9087)">
			<path id="path44" fill="#FFFFFF" d="M447.054-28.909v23.366h-30.432v89.396h-27.715V-5.542H358.47v-23.366H447.054z"/>
		</g>
		<g id="g46" transform="translate(129.6572,28.9087)">
			<path id="path48" fill="#FFFFFF" d="M526.823-28.909v23.366h-30.459v89.396h-27.676V-5.542h-30.463v-23.366H526.823z"/>
		</g>
		<g id="g50" transform="translate(73.4619,8.7119)">
			<path id="path52" fill="#FFFFFF" d="M269.27,104.05l-42.353-65.894v65.894H269.27L269.27,104.05z"/>
		</g>
	</g>
</g>
</svg>
