<?xml version="1.0" encoding="utf-8"?>
<!-- Generator: Adobe Illustrator 16.0.0, SVG Export Plug-In . SVG Version: 6.00 Build 0)  -->
<!DOCTYPE svg PUBLIC "-//W3C//DTD SVG 1.1//EN" "http://www.w3.org/Graphics/SVG/1.1/DTD/svg11.dtd">
<svg version="1.1" id="Layer_1" xmlns="http://www.w3.org/2000/svg" xmlns:xlink="http://www.w3.org/1999/xlink" x="0px" y="0px"
	 width="800px" height="180px" viewBox="0 0 800 180" enable-background="new 0 0 800 180" xml:space="preserve">
<path id="path-1_1_" fill="#FFFFFF" d="M216.568,71.004l-42.252,75.984h-0.683l-44.638-75.984h28.282l17.377,35.438l15.333-35.438
	H216.568z M301.592,71.004v74.451h-23.853v-9.199c-7.155,7.496-15.447,11.244-24.874,11.244c-11.017,0-19.961-3.295-26.833-9.882
	c-6.872-6.589-10.307-16.356-10.307-29.304c0-8.178,1.675-15.362,5.023-21.553c3.353-6.189,7.811-10.988,13.374-14.396
	c5.565-3.408,11.529-5.111,17.891-5.111c6.586,0,11.813,0.994,15.674,2.982c3.859,1.986,7.269,4.798,10.222,8.434l1.533-7.668
	h22.147v0.002H301.592z M259.68,128.077c8.292,0,14.312-3.749,18.06-11.243v-18.23c-1.363-3.635-3.719-6.531-7.07-8.688
	c-3.35-2.158-7.297-3.236-11.84-3.236c-5.225,0-9.683,1.931-13.374,5.793c-3.689,3.86-5.537,8.746-5.537,14.65
	c0,3.861,0.908,7.41,2.728,10.646c1.815,3.236,4.229,5.766,7.24,7.58C252.895,127.17,256.159,128.077,259.68,128.077z
	 M343.854,88.041c2.044-3.977,4.854-7.555,8.433-10.734c3.579-3.179,7.24-5.65,10.989-7.412c3.748-1.76,6.7-2.641,8.858-2.641
	l-1.192,23.854c-0.682-0.114-1.646-0.172-2.896-0.172c-4.771,0-8.973,1.25-12.606,3.748c-3.635,2.5-6.417,5.707-8.35,9.627
	c-1.931,3.918-2.896,7.922-2.896,12.012v29.134h-23.682V71.004h21.467L343.854,88.041z M408.603,71.004v74.451H384.75V71.004
	H408.603z M384.239,44.596c0-3.407,1.334-6.275,4.003-8.604c2.669-2.329,5.708-3.492,9.116-3.492c3.293,0,6.247,1.163,8.858,3.492
	c2.611,2.328,3.919,5.196,3.919,8.604c0,3.408-1.308,6.247-3.919,8.519c-2.611,2.272-5.564,3.407-8.858,3.407
	c-3.407,0-6.446-1.135-9.115-3.407C385.574,50.843,384.239,48.004,384.239,44.596z M507.597,71.004v74.451h-23.853v-9.199
	c-7.155,7.496-15.446,11.244-24.874,11.244c-11.018,0-19.962-3.295-26.834-9.882c-6.872-6.589-10.307-16.356-10.307-29.304
	c0-8.178,1.675-15.362,5.024-21.553c3.352-6.189,7.81-10.988,13.374-14.396c5.564-3.408,11.527-5.111,17.89-5.111
	c6.588,0,11.813,0.994,15.675,2.982c3.86,1.986,7.27,4.798,10.222,8.434l1.533-7.668h22.149V71.004z M465.687,128.077
	c8.291,0,14.312-3.749,18.06-11.243v-18.23c-1.362-3.635-3.72-6.531-7.069-8.688c-3.351-2.158-7.298-3.236-11.841-3.236
	c-5.226,0-9.684,1.931-13.374,5.793c-3.69,3.86-5.537,8.746-5.537,14.65c0,3.861,0.908,7.41,2.727,10.646
	c1.817,3.236,4.229,5.766,7.239,7.58C458.901,127.17,462.166,128.077,465.687,128.077z M578.31,67.426
	c7.043,0,12.921,2.101,17.635,6.303c4.713,4.203,7.127,9.541,7.239,16.016v55.711h-23.852V98.604
	c-0.342-7.27-3.977-10.903-10.903-10.903c-5.452,0-9.824,2.557-13.119,7.667c-3.294,5.109-4.94,11.699-4.94,19.763v30.326h-23.853
	V71.004h21.639l1.703,11.926c2.728-4.885,6.503-8.689,11.33-11.416C566.015,68.788,571.722,67.426,578.31,67.426z M652.942,38.293
	v32.369h18.062v18.57h-18.062v56.223H629.09V89.232h-11.584v-18.57h11.584V38.293H652.942z"/>
</svg>
