<?xml version="1.0" encoding="utf-8"?>
<!-- Generator: Adobe Illustrator 16.0.0, SVG Export Plug-In . SVG Version: 6.00 Build 0)  -->
<!DOCTYPE svg PUBLIC "-//W3C//DTD SVG 1.1//EN" "http://www.w3.org/Graphics/SVG/1.1/DTD/svg11.dtd">
<svg version="1.1" id="Partner" xmlns="http://www.w3.org/2000/svg" xmlns:xlink="http://www.w3.org/1999/xlink" x="0px" y="0px"
	 width="646.097px" height="115px" viewBox="-17.041 338.549 646.097 115" enable-background="new -17.041 338.549 646.097 115"
	 xml:space="preserve">
<title>jz17-partner-webstep</title>
<path fill="#FFFFFF" d="M173.531,453.256c-15.745,0-26.697-7.862-26.697-24.379v-64.425c0-15.583,9.428-25.354,25.072-25.354h48.943
	v16.599h-43.031c-8.898,0-14.384,3.413-14.384,12.839v19.505h48.76v16.437h-48.76v19.158c0,9.589,5.485,13.003,14.546,13.003h42.951
	v16.599L173.531,453.256z"/>
<path fill="#FFFFFF" d="M352.482,355.716c-11.234,0-14.444,3.942-14.547,10.911c0,2.56,0,5.586,0,8.938
	c-0.207,3.529,1.252,6.951,3.942,9.245c3.251,2.56,6.684,2.56,10.626,2.56h14.444c14.71,0,28.443,8.127,28.443,23.446v18.144
	c0,16.09-10.645,24.379-26.208,24.379h-46.059v-16.721h40.999c15.909,0,14.385-8.39,14.385-21.048
	c0-9.245-5.485-11.642-13.855-11.642h-17.635c-13.856,0-25.682-9.123-25.682-24.015v-16.66c-0.146-7.285,2.95-14.259,8.452-19.037
	c4.227-3.617,10.382-5.12,16.843-5.12h43.274v16.599L352.482,355.716z"/>
<path fill="#FFFFFF" d="M439.723,355.716v97.521h-16.599v-97.521H397.81v-16.618h67.045v16.599L439.723,355.716z"/>
<path fill="#FFFFFF" d="M302.523,391.615c8.29,3.942,12.374,11.317,12.374,22.653v12.801c0,15.907-8.127,26.187-24.381,26.187
	H233.08V339.097h40.979l8.026,0.202c16.253,0,24.38,10.504,24.38,25.843v10.525c0,7.089-0.651,11.824-3.698,15.786L302.523,391.615z
	 M496.367,453.256c-15.746,0-26.697-7.862-26.697-24.379v-64.425c0-15.583,9.407-25.335,25.152-25.335h48.884v16.599h-43.052
	c-8.898,0-14.384,3.413-14.384,12.84v19.505h48.76v16.436h-48.76v19.158c0,9.59,5.464,13.003,14.546,13.003h42.89v16.599H496.367z
	 M249.618,355.736v32.325h26.98c7.863,0,13.186-3.21,13.186-11.601v-8.371c0-8.736-5.649-12.374-13.694-12.374L249.618,355.736z
	 M298.379,417.195c0-8.391-4.611-12.495-12.841-12.698h-35.757v32.121h35.757c8.127,0.183,12.841-3.413,12.841-11.805V417.195z"/>
<path fill="#FFFFFF" d="M555.895,355.716v-16.618h47.663c13.855,0,25.152,7.699,25.335,22.347
	c0.163,8.127,0.163,10.748,0.163,18.957c0,15.237-9.406,24.38-24.645,24.38h-31.938v48.292h-16.579v-65.054h42.869
	c9.061,0,13.692-0.853,13.692-10.26v-10.584c0-7.883-6.095-11.459-13.348-11.459H555.895z"/>
<path fill="#FFFFFF" d="M124.811,339.097l-19.646,85.208l-0.833,7.07l-0.813-7.273l-15.786-73.141
	c-1.361-7.192-5.201-12.413-13.247-12.413l0,0c-8.127,0-11.886,5.221-13.247,12.413l-15.808,73.141l-0.853,7.191l-0.792-7.131
	l-14.729-63.612c-3.007-14.262-12.658-21.454-27.205-21.454h-18.894v16.252H1.407c5.515,0.001,10.3,3.809,11.54,9.184l17.675,76.817
	c1.544,6.502,6.278,12.191,13.47,12.191c6.826,0.215,12.789-4.583,14.039-11.297l15.705-72.856l0.609-5.181l0.569,5.201
	l15.706,72.836c1.323,6.672,7.301,11.394,14.1,11.133c7.192,0,11.925-5.647,13.47-12.189l23.527-102.091H124.811z"/>
</svg>
