<?xml version="1.0" encoding="utf-8"?>
<!-- Generator: Adobe Illustrator 16.0.0, SVG Export Plug-In . SVG Version: 6.00 Build 0)  -->
<!DOCTYPE svg PUBLIC "-//W3C//DTD SVG 1.1//EN" "http://www.w3.org/Graphics/SVG/1.1/DTD/svg11.dtd">
<svg version="1.1" id="Partner" xmlns="http://www.w3.org/2000/svg" xmlns:xlink="http://www.w3.org/1999/xlink" x="0px" y="0px"
	 width="800px" height="180px" viewBox="0 0 800 180" enable-background="new 0 0 800 180" xml:space="preserve">
<title>jz17-partner-webstep</title>
<g>
	<path fill="#FFFFFF" d="M267.525,147.209c-15.744,0-26.696-7.861-26.696-24.379V58.405c0-15.583,9.43-25.354,25.071-25.354h48.943
		v16.6h-43.031c-8.897,0-14.384,3.412-14.384,12.839v19.505h48.76v16.438h-48.76v19.157c0,9.588,5.483,13.002,14.546,13.002h42.951
		v16.6L267.525,147.209z"/>
	<path fill="#FFFFFF" d="M446.474,49.669c-11.234,0-14.443,3.942-14.547,10.911c0,2.561,0,5.586,0,8.938
		c-0.207,3.529,1.252,6.951,3.943,9.246c3.25,2.56,6.684,2.56,10.625,2.56h14.441c14.711,0,28.443,8.127,28.443,23.446v18.146
		c0,16.09-10.646,24.379-26.207,24.379h-46.063V130.57h41c15.908,0,14.387-8.39,14.387-21.048c0-9.245-5.484-11.643-13.855-11.643
		h-17.635c-13.855,0-25.684-9.123-25.684-24.015v-16.66c-0.145-7.285,2.949-14.259,8.451-19.037c4.23-3.616,10.383-5.12,16.846-5.12
		h43.271v16.6L446.474,49.669z"/>
	<path fill="#FFFFFF" d="M533.717,49.669v97.521h-16.602V49.669h-25.313V33.051h67.045v16.6L533.717,49.669z"/>
	<path fill="#FFFFFF" d="M396.517,85.568c8.292,3.941,12.375,11.316,12.375,22.652v12.801c0,15.909-8.127,26.188-24.381,26.188
		h-57.438V33.051h40.979l8.025,0.201c16.254,0,24.381,10.504,24.381,25.844V69.62c0,7.089-0.651,11.823-3.698,15.786L396.517,85.568
		z M590.359,147.209c-15.746,0-26.693-7.861-26.693-24.379V58.405c0-15.583,9.404-25.335,25.148-25.335h48.885v16.599h-43.053
		c-8.896,0-14.383,3.413-14.383,12.841v19.504h48.76V98.45h-48.76v19.156c0,9.591,5.463,13.005,14.545,13.005h42.891v16.6h-47.34
		V147.209L590.359,147.209z M343.611,49.689v32.324h26.979c7.861,0,13.186-3.209,13.186-11.601v-8.371
		c0-8.735-5.646-12.374-13.693-12.374L343.611,49.689z M392.373,111.147c0-8.391-4.611-12.495-12.844-12.697h-35.757v32.12h35.757
		c8.127,0.184,12.844-3.412,12.844-11.806V111.147z"/>
	<path fill="#FFFFFF" d="M649.888,49.669V33.051h47.662c13.854,0,25.152,7.699,25.336,22.348c0.162,8.127,0.162,10.748,0.162,18.957
		c0,15.236-9.406,24.379-24.646,24.379h-31.938v48.292h-16.58V81.973h42.869c9.061,0,13.691-0.853,13.691-10.26V61.129
		c0-7.883-6.096-11.459-13.35-11.459L649.888,49.669L649.888,49.669z"/>
	<path fill="#FFFFFF" d="M218.805,33.051l-19.646,85.207l-0.833,7.07l-0.813-7.273l-15.786-73.141
		c-1.36-7.191-5.2-12.413-13.247-12.413l0,0c-8.127,0-11.886,5.222-13.247,12.413l-15.808,73.141l-0.854,7.191l-0.792-7.132
		l-14.728-63.611c-3.009-14.262-12.658-21.454-27.205-21.454H76.95v16.252H95.4c5.515,0.002,10.3,3.809,11.539,9.184l17.676,76.818
		c1.544,6.502,6.277,12.189,13.47,12.189c6.826,0.217,12.789-4.582,14.039-11.297l15.705-72.855l0.608-5.181l0.569,5.201
		l15.705,72.835c1.322,6.672,7.302,11.395,14.101,11.135c7.192,0,11.926-5.648,13.471-12.189l23.528-102.092h-17.006V33.051z"/>
</g>
</svg>
