<svg xmlns="http://www.w3.org/2000/svg" viewBox="0 0 630 630"><path d="M0 0L630 0 630 630 0 630 0 0ZM423.2 492.2L375.1 520.1C392.5 554.5 428 580.7 483 580.7 539.2 580.7 581.1 551.5 581.1 498.2 581.1 448.7 552.7 426.8 502.4 405.2L487.6 398.8C462.2 387.8 451.2 380.7 451.2 362.9 451.2 348.5 462.2 337.5 479.5 337.5 496.5 337.5 507.5 344.7 517.6 362.9L563.7 333.3C544.2 299 517.1 285.9 479.5 285.9 426.6 285.9 392.8 319.7 392.8 364.1 392.8 412.3 421.2 435.1 463.9 453.3L478.7 459.6C505.7 471.5 521.8 478.6 521.8 498.9 521.8 515.9 506.1 528.1 481.6 528.1 452.4 528.1 435.9 512.9 423.2 492.2ZM214.1 497.3L165.9 526.5C179.8 556 207.3 580.6 254.7 580.6 307.2 580.6 343.1 552.7 343.1 491.4L343.1 289.3 283.9 289.3 283.9 490.6C283.9 520.2 271.6 527.8 252.2 527.8 231.8 527.8 223.4 513.8 214.1 497.3ZM321.6 134.6L314.6 142.2 307.8 135.3C298.7 126.1 286.8 118.4 275.8 115 263.2 111.1 243.9 111.1 230.7 115.3 218 119.1 201.4 128 190.8 136.5 161.9 159.6 133.9 172.2 114.3 170.9 108.8 170.5 103.2 169.3 100.2 167.6 94.4 164.7 86.3 157.1 85.2 153.4 83.9 149.3 85.6 142.7 88.5 140 92.1 136.9 101.3 137.1 109.3 140.7 116.7 144 119.1 144 121.8 141 125.6 136.9 124.5 133.2 117.2 126.1 97.8 107.4 74 111.6 54.8 137.1 49.1 144.7 49 145 49 154.8 49 166.7 52.3 178.3 58.1 187.2 73.1 209.8 103.5 226.5 139.1 231.9 159.5 234.9 206.1 234.9 222.7 231.9 247.6 227.2 268.6 219.3 284.6 208.8 292.3 203.7 307.1 189.2 310.4 183.7 311.6 181.8 313.2 180.2 314.1 180.2 314.9 180.2 318.2 183.6 321.4 187.7 346.1 219.8 394.8 236.6 456.1 234.4 506.7 232.5 535.5 222.9 559.4 200 572.9 187 580 171.5 580 154.6 580 147.7 579.4 145.5 576.3 140.7 571.2 132.7 558.3 120.9 551.2 117.5 538 111.6 522.5 115 510.3 126.6 505.9 130.6 505.1 132.4 505.1 136.2 505.1 143.3 509 144.6 519 140.8 528.6 137.2 537.2 136.7 540 139.7 543.2 142.7 544.3 149.9 542.5 154.3 540 160.4 531.3 167.1 523.2 169.5 510.5 173.2 493.2 169.9 473.8 160.1 465.4 155.9 443.7 141.4 433.3 133 425.1 126.6 403.7 116 393.9 113.6 383.5 111.2 371.2 110.3 362.8 111.6 347.4 114 333.6 121.7 321.6 134.6Z"/></svg>