<svg id="dataforeninge-logo" viewBox="0 0 65 65">
    <path d="M45.229 22.315c0 .988-.176 2.533.396 3.423.65 1.013 1.575-.695 1.575-1.318v-7.072h-.055c-1.487 1.269-1.916 2.214-1.916 4.967zM57.156 8.106h-21.091c-.524 0-.949.424-.949.95v21.097c0 .526.425.951.949.951h21.091c.527 0 .954-.425.954-.951v-21.097c0-.526-.426-.95-.954-.95zm-8.121 19.068c-.839 0-1.271-.538-1.595-1.026-.756.861-2.044 1.43-3.042.639-1.02-.808-1.133-2.438-1.162-3.624-.031-1.306-.012-2.724.692-3.873.349-.569.822-1.053 1.312-1.502.545-.498 1.543-.999 1.842-1.69.424-.982.302-2.771-1.019-2.771-.789 0-1.646.462-2.236.957-.803.672-.155-.464.086-.728.836-.915 2.025-1.67 3.294-1.266 1.399.446 1.883 1.904 1.883 3.25v9.799c0 .821.729.821 1.132.215l.136-.108.078.136c-.105.782-.728 1.592-1.401 1.592zM42.843 43.262c-1.973 1.373-.454 3.56 1.48 3.734 2.201.198 4.194-1.2 5.541-2.811v-1.318c-2.07-.346-5.159-.913-7.021.395zM57.156 31.102h-21.091c-.524 0-.949.425-.949.949v21.1c0 .525.425.949.949.949h21.091c.527 0 .954-.424.954-.949v-21.1c0-.525-.426-.949-.954-.949zm-3.704 17.044h-3.563v-2.22c-1.64 1.582-3.836 2.864-6.195 2.457-1.742-.301-3.369-1.729-3.278-3.612.213-4.421 6.615-3.802 9.449-3.357v-.818c0-4.082-5.544-2.808-7.921-1.66l-.369-1.427c3.283-1.355 9.711-2.436 9.711 2.823v6.36h2.167v1.454zM21.853 17.896l-3.227.522c-1.384.225-2.544 1.518-2.476 2.944.068 1.427 1.376 2.31 2.74 2.09l3.174-.516c1.375-.222 2.569-1.49 2.505-2.919-.063-1.392-1.368-2.339-2.716-2.121zM33.145 24.893l-3.345-20.832c-.08-.519-.567-.872-1.09-.788l-20.822 3.341c-.523.082-.874.572-.788 1.09l3.342 20.832c.086.518.573.87 1.09.789l20.828-3.343c.514-.084.866-.571.785-1.089zm-7.674-5.24c-.204 3.682-4.899 7.825-8.527 5.653-1.941-1.162-2.041-3.663-1.203-5.55.926-2.085 2.931-3.783 5.208-4.152l2.448-.398.395-5.595c.044-.71.308-1.453.859-1.928.428-.369 1.578-.652 1.554.256l-.734 11.714zM34.162 31.102h-21.089c-.524 0-.951.425-.951.949v21.1c0 .525.427.949.951.949h21.089c.524 0 .951-.424.951-.949v-21.1c0-.525-.426-.949-.951-.949zm-8.033 8.074h-1.979v8.344c0 1.302.632 2.114 1.979 1.786v1.491c-2.259 1.124-3.988-1.114-3.988-3.131v-8.49h-1.175v-1.469h1.175v-3.033l2.01-.759v3.792h1.979v1.469zM14.465 60.372c-.232.256-1.117.083-1.429.083-1.279 0-.987-1.624-.987-2.471 0-1.142 1.218-.992 2.002-.992v-1.23c0-.527.489-.082.489.26v3.418c0 .212.106.751-.075.932zm-.414-2.883h-1.015c-.769 0-.5 1.509-.5 1.979 0 .691 1.086.489 1.515.489v-2.468zM17.677 60.372c-.238.284-1.343.083-1.678.083-.913 0-.985-1.651-.221-1.941.417-.158 1.025-.04 1.461-.04v-.489c0-.691-1.051-.495-1.483-.495-.45 0-.192-.497.155-.497h.834c.976 0 .986.915.986 1.628 0 .411.2 1.391-.054 1.751zm-.438-1.403h-1.24c-.383 0-.363.989.129.989h1.111v-.989zM20.064 57.489h-.743v2.72c0 .377-.487.263-.487-.069v-2.65h-.251c-.449 0-.172-.59.251-.497v-1.23c0-.526.487-.083.487.266v.965h.743c.322-.002.324.495 0 .495zM23.005 60.372c-.248.284-1.336.083-1.678.083-.913 0-.986-1.651-.222-1.941.417-.158 1.026-.04 1.463-.04v-.489c0-.69-1.053-.495-1.484-.495-.447 0-.192-.497.154-.497h.831c.979 0 .986.912.986 1.628 0 .399.201 1.403-.05 1.751zm-.437-1.403h-1.241c-.383 0-.363.989.129.989h1.112v-.989zM25.405 57.489h-.74v2.72c0 .377-.49.263-.49-.069v-2.65h-.251c-.45 0-.173-.59.251-.497v-.493c0-.722.591-1.017 1.23-.992.453 0 .182.59-.243.498-.565 0-.497.599-.497.986h.74c.323 0 .324.497 0 .497zM27.518 60.46c-1.289 0-1.235-1.317-1.235-2.229.046-1.585 2.468-1.601 2.468 0 .089.906-.035 2.22-1.233 2.229zm.746-2.23c0-.817-1.193-1.012-1.45-.234-.121.366-.038.849-.038 1.227 0 .957 1.487.953 1.487 0v-.993zM31.219 57.954c-.306.17-.429-.379-.688-.448-.202-.054-.455-.017-.661-.017v2.72c0 .357-.494.264-.494-.063v-2.902c0-.388.75-.251.981-.251.31-.001 1.487.644.862.961zM33.838 60.455h-1.238c-1.129 0-.989-1.206-.989-1.981l.011-.243c.071-1.751 2.525-1.479 2.461.243v.251c0 .451-1.668.244-1.972.244v.5c0 .727 1.271.489 1.728.489.313 0 .315.497-.001.497zm-.246-2.225c0-1.103-1.546-.845-1.481.243h1.481v-.243zM36.929 60.455c-.474 0-.246-2.125-.246-2.471 0-.689-1.051-.495-1.481-.495v2.72c0 .369-.497.271-.497-.063v-2.902c0-.434 1.221-.251 1.484-.251 1.405-.001 1.171 3.462.74 3.462zM37.73 55.762c0-.424.622-.424.622 0 .001.412-.622.412-.622 0zm.309 4.693c-.48 0-.241-2.8-.241-3.212 0-.442.495-.198.495.139v1.056c0 .269.219 2.017-.254 2.017zM41.283 60.455c-.474 0-.246-2.124-.246-2.471 0-.689-1.057-.495-1.484-.495v2.72c0 .37-.497.271-.497-.063v-2.902c0-.434 1.224-.251 1.484-.251 1.407-.001 1.163 3.462.743 3.462zM44.345 61.655c-.419.415-1.161.281-1.7.281-.447 0-.191-.497.154-.497h.832c.566 0 .498-.595.498-.984h-.992c-1.277 0-.987-1.629-.987-2.471 0-1.215 1.408-.992 2.226-.992.425 0 .462 4.17-.031 4.663zm-.216-4.166h-.992c-.756-.049-.492 1.544-.492 1.979 0 .688 1.048.489 1.484.489v-2.468zM47.469 60.455h-1.241c-1.127 0-.984-1.208-.984-1.981l.008-.243c.071-1.752 2.525-1.478 2.461.243v.251c0 .452-1.672.244-1.974.244v.5c0 .727 1.275.489 1.73.489.312 0 .315.497 0 .497zm-.246-2.225c0-1.102-1.549-.846-1.484.243h1.484v-.243zM50.557 60.455c-.474 0-.246-2.126-.246-2.471 0-.689-1.051-.495-1.481-.495v2.72c0 .369-.497.271-.497-.063v-2.902c0-.434 1.223-.251 1.484-.251 1.405-.001 1.171 3.462.74 3.462zM51.426 60.137c0-.433.643-.433.643 0-.001.428-.643.428-.643 0zM54.766 60.455c-.474 0-.246-2.124-.246-2.471 0-.689-1.058-.495-1.484-.495v2.72c0 .369-.497.271-.497-.063v-2.902c0-.434 1.224-.251 1.484-.251 1.406-.001 1.163 3.462.743 3.462zM56.87 60.46c-1.292 0-1.238-1.314-1.238-2.229.048-1.585 2.469-1.602 2.469 0 .089.905-.034 2.22-1.231 2.229zm.741-2.23c0-.818-1.188-1.011-1.446-.234-.122.365-.038.849-.038 1.227 0 .955 1.484.955 1.484 0v-.993z"/>
</svg>