<svg id="ixda-logo" viewBox="0 0 65 65"><path d="M14.567 64.335v-4.683h-1.677v-.855h4.326v.855h-1.678v4.683h-.971zM17.723 64.335v-4.01h.872v.581c.308-.382.789-.681 1.304-.681v.863l-.266-.025c-.373 0-.863.25-1.038.54v2.731h-.872zM20.289 62.326c0-1.154.78-2.101 2.059-2.101 1.279 0 2.061.946 2.061 2.101 0 1.146-.781 2.108-2.061 2.108-1.279.001-2.059-.962-2.059-2.108zm3.213 0c0-.706-.406-1.329-1.154-1.329-.738 0-1.153.623-1.153 1.329 0 .714.415 1.337 1.153 1.337.748 0 1.154-.623 1.154-1.337zM28.012 64.335v-2.508c0-.631-.324-.83-.814-.83-.439 0-.821.266-1.029.531v2.807h-.872v-4.01h.872v.539c.266-.315.789-.639 1.42-.639.863 0 1.296.465 1.296 1.287v2.822h-.873zM32.836 64.335v-.547c-.307.398-.764.646-1.287.646-1.021 0-1.777-.779-1.777-2.108 0-1.296.748-2.101 1.777-2.101.507 0 .972.224 1.287.656v-2.085h.872v5.538h-.872zm0-1.212v-1.586c-.19-.299-.623-.54-1.029-.54-.697 0-1.138.557-1.138 1.329 0 .78.44 1.337 1.138 1.337.406 0 .839-.24 1.029-.54zM37.553 64.335v-2.523c0-.631-.315-.814-.806-.814-.448 0-.83.266-1.029.531v2.807h-.872v-5.538h.872v2.067c.266-.315.78-.639 1.411-.639.864 0 1.296.447 1.296 1.27v2.84h-.872zM39.313 62.326c0-1.163.847-2.101 2.034-2.101 1.204 0 1.969.913 1.969 2.176v.215h-3.09c.066.598.516 1.105 1.271 1.105.399 0 .855-.158 1.146-.449l.398.573c-.407.382-.997.589-1.628.589-1.211.001-2.1-.837-2.1-2.108zm2.027-1.387c-.739 0-1.088.573-1.121 1.054h2.258c-.025-.472-.348-1.054-1.137-1.054zM44.08 59.295c0-.299.24-.54.539-.54.3 0 .54.241.54.54 0 .3-.24.54-.54.54-.299 0-.539-.24-.539-.54zm.1 5.04v-4.01h.872v4.01h-.872zM51.105 64.335v-2.615c0-.432-.191-.723-.665-.723-.39 0-.755.266-.93.531v2.807h-.872v-2.615c0-.432-.183-.723-.656-.723-.39 0-.747.274-.93.531v2.807h-.872v-4.01h.872v.539c.174-.24.697-.639 1.312-.639.598 0 .963.299 1.096.73.225-.357.756-.73 1.361-.73.731 0 1.154.398 1.154 1.212v2.897h-.87zM32.62.763l5.527 5.527-5.527 5.527-5.527-5.527zM48.089 46.226h7.647l-15.43-15.438 15.557-15.564h-7.774v-7.565l-15.46 15.457-15.537-15.541v7.649h-7.696l15.566 15.564-15.44 15.438h7.57v7.773l15.537-15.541 15.46 15.457zM8.504 6.68h7.69v7.649h-7.69zM49.003 6.68h7.69v7.649h-7.69zM49.003 47.116h7.69v7.648h-7.69zM8.504 47.116h7.69v7.648h-7.69z"></path></svg>