<?xml version="1.0" standalone="no"?><!-- Generator: Gravit.io --><svg xmlns="http://www.w3.org/2000/svg" xmlns:xlink="http://www.w3.org/1999/xlink" style="isolation:isolate" viewBox="0 0 65 65" width="65" height="65"><defs><clipPath id="_clipPath_7kMzUBQIAihDr5Dv2tgz3erPW8ZZl2o9"><rect width="65" height="65"/></clipPath></defs><g clip-path="url(#_clipPath_7kMzUBQIAihDr5Dv2tgz3erPW8ZZl2o9)"><path d=" M 24.937 40.364 L 24.969 40.364 L 24.937 40.364 Z  M 46.392 27.254 L 46.392 27.216 L 45.393 24.593 C 44.71 22.798 44.037 20.999 43.346 19.206 C 43.37 19.268 43.663 18.974 43.675 18.957 C 43.941 18.679 43.848 18.308 43.659 18.018 C 43.501 17.667 42.86 17.37 42.604 17.035 C 41.653 15.604 39.233 15.12 38.448 16.859 C 37.985 17.883 38.201 18.605 38.955 19.402 C 39.605 20.089 40.557 20.69 41.432 20.024 C 41.903 19.666 41.881 19.957 42.035 20.354 L 42.642 21.94 L 43.66 24.592 L 44.271 26.214 C 43.435 25.954 43.716 25.485 43.204 24.893 C 42.577 24.182 41.444 24.183 40.817 24.893 C 40.332 25.514 40.467 25.427 39.704 25.197 L 38.366 24.794 C 38.179 24.586 38.147 23.868 38.08 23.591 C 37.965 23.121 37.845 22.653 37.72 22.186 C 37.439 21.138 37.132 20.096 36.8 19.062 C 36.176 17.112 35.465 15.191 34.676 13.302 C 33.886 11.409 33.018 9.55 32.081 7.725 C 31.929 7.427 31.363 5.871 30.968 5.928 C 30.554 5.988 30.274 6.768 30.128 7.086 C 28.463 10.702 26.732 14.262 25.345 18 C 25.042 18.817 24.785 19.644 24.511 20.47 C 24.226 21.324 23.564 21.932 23.222 22.76 C 22.976 23.355 23.051 23.576 22.528 23.913 L 21.472 24.594 C 20.673 25.11 19.763 25.5 19.107 26.209 C 18.185 27.207 18.595 28.13 19.313 29.077 C 20.034 30.028 20.644 31.065 21.109 32.164 C 21.65 33.441 21.717 34.53 21.781 35.897 C 21.876 37.951 21.982 40.78 23.207 42.541 C 23.783 43.369 24.597 43.04 25.153 42.368 C 25.893 41.473 26.575 40.668 27.589 40.054 C 29.77 38.732 32.186 39.268 34.157 40.703 C 35.363 41.582 37.904 45 39.072 42.151 C 39.474 41.171 39.496 39.943 39.577 38.903 C 39.685 37.523 39.702 36.137 39.654 34.755 C 39.558 31.976 39.198 29.213 38.7 26.479 L 45.34 28.495 C 46.196 28.663 46.63 28.054 46.392 27.254 M 23.612 24.135 C 23.612 21.618 26.584 20.104 28.793 20.094 C 31.493 20.081 34.149 22.474 33.15 25.312 C 32.451 27.296 30.216 28.287 28.237 28.316 C 25.947 28.349 23.307 26.755 23.612 24.135 Z  M 21.649 28.297 C 21.212 28.1 20.766 27.92 20.344 27.69 C 19.911 27.454 20.158 27.421 20.483 27.229 L 22.91 25.795 C 22.74 26.569 22.76 28.454 21.649 28.297 Z  M 38.699 40.513 C 38.606 41.189 38.643 42.137 37.877 42.43 C 36.772 42.663 35.769 40.99 35.03 40.369 C 33.996 39.499 32.792 38.773 31.456 38.496 C 28.957 37.976 26.464 39.432 24.941 41.348 C 24.231 42.4 23.765 42.382 23.348 41.189 C 23.003 40.201 22.805 39.116 22.656 38.085 C 22.1 34.247 22.607 30.392 23.434 26.636 C 24.584 28.633 26.961 29.419 29.159 29.066 C 31.809 28.641 33.559 26.839 34.055 24.255 C 34.796 24.351 35.496 24.662 36.15 25.011 C 36.638 25.271 37.545 25.625 37.88 26.072 C 38.428 26.801 38.335 28.525 38.461 29.4 C 38.989 33.068 39.219 36.829 38.699 40.513 Z  M 25.233 21.47 C 24.175 22.983 26.364 24.106 27.577 23.086 C 29.421 21.534 26.58 19.562 25.233 21.47 Z  M 8.475 59.186 C 7.871 58.853 7.772 57.197 8.434 56.864 C 8.849 56.656 9.186 56.723 9.252 56.167 C 9.277 55.956 9.267 55.74 9.267 55.527 L 9.267 52.165 C 8.544 52.2 8.065 51.965 8.049 51.197 C 8.037 50.629 8.013 49.749 8.783 49.708 C 8.075 48.87 8.505 47.089 9.702 46.973 C 11.114 46.835 12.092 48.701 11.044 49.772 C 11.479 49.905 11.755 50.31 11.762 50.759 C 11.762 52.123 11.734 53.49 11.782 54.854 C 11.82 55.927 11.907 57.244 11.188 58.135 C 10.675 58.725 9.289 59.634 8.475 59.186 Z  M 8.848 58.467 C 11.833 58.17 10.822 54.575 10.989 52.515 C 11.024 52.088 11.263 50.761 10.739 50.529 C 10.443 50.398 9.91 50.44 9.591 50.425 C 8.783 50.386 8.84 50.625 8.85 51.366 C 9.194 51.366 10.066 51.199 10.066 51.765 C 10.066 52.828 10.053 53.892 10.091 54.954 C 10.112 55.537 10.222 56.814 9.633 57.189 C 9.433 57.316 9.214 57.416 9.002 57.519 C 8.704 57.665 8.848 58.17 8.848 58.467 C 9.496 58.402 8.848 58.178 8.848 58.467 Z  M 11.093 50.234 L 11.093 50.255 L 11.093 50.234 L 11.313 49.902 L 11.093 50.234 Z  M 10.393 49.293 C 10.782 49.07 10.571 48.244 10.467 47.924 C 9.257 46.699 8.671 50.254 10.393 49.293 Z  M 22.696 56.891 C 22.025 56.451 21.757 55.345 21.435 54.657 C 21.105 53.95 20.826 52.798 20.254 52.248 C 19.792 51.804 19.125 51.727 19.234 50.906 C 19.318 50.271 19.885 49.708 20.54 49.708 C 20.54 49.831 20.573 49.989 20.54 50.107 C 20.67 50.54 19.693 50.716 20.05 51.102 C 20.429 51.511 20.779 51.37 21.045 51.938 C 21.614 53.155 22.096 54.425 22.69 55.627 C 22.886 56.023 23.094 56.377 23.607 56.346 C 24.413 56.296 24.773 54.787 25.048 54.198 L 26.244 51.638 C 26.282 51.557 27.834 50.905 27.119 50.637 C 26.727 50.284 25.406 50.421 24.911 50.461 C 24.612 50.486 23.756 50.775 24.308 51.149 C 24.553 51.314 25.048 51.401 25.157 51.711 C 25.314 52.159 24.492 53.323 24.301 53.757 C 24.155 54.085 23.956 54.641 23.598 54.795 C 23.138 54.994 22.578 52.999 22.45 52.689 C 22.271 52.257 21.79 51.598 22.457 51.409 C 22.816 51.308 23.085 50.842 22.727 50.564 C 22.09 50.345 21.202 50.506 20.54 50.506 L 20.54 49.708 C 21.366 49.708 23.082 49.402 23.537 50.3 C 24.013 49.374 25.892 49.639 26.714 49.708 C 27.668 49.708 28.313 50.734 27.808 51.578 C 27.558 51.997 26.956 51.969 26.802 52.336 L 26.33 53.521 C 25.86 54.683 24.503 58.27 22.696 56.891 M 23.594 53.371 L 24.194 52.072 C 23.92 51.984 23.683 51.773 23.548 51.521 C 23.46 51.7 23.163 51.867 23.115 52.045 C 23.022 52.386 23.467 53.063 23.594 53.371 C 23.794 52.938 23.464 53.056 23.594 53.371 Z  M 28.559 56.445 C 26.942 55.61 27.611 53.103 28.774 52.273 C 27.966 51.622 28.264 50.474 29.103 50.032 C 30.003 49.557 31.23 49.45 32.222 49.643 C 34.708 50.124 34.561 52.433 34.561 54.458 C 34.561 54.425 35.067 54.659 35.091 54.677 C 35.695 54.992 35.777 55.879 35.408 56.399 C 34.941 57.059 33.79 57.032 33.081 56.89 C 32.769 56.828 32.603 56.494 32.295 56.65 C 31.92 56.839 31.548 56.97 31.128 57.033 C 30.242 57.165 29.263 57.037 28.559 56.445 Z  M 29.01 55.781 C 29.583 56.297 30.422 56.365 31.148 56.221 C 31.655 56.12 32.388 55.482 32.883 55.839 C 33.334 56.163 33.786 56.22 34.368 56.155 C 34.78 56.108 35.064 55.536 34.61 55.313 C 33.795 55.246 33.746 54.97 33.788 54.204 C 33.834 53.369 33.92 52.474 33.661 51.663 C 33.138 50.023 31.085 50.208 29.797 50.611 C 29.312 50.753 28.605 51.668 29.526 51.733 C 30.442 51.557 31.569 50.786 32.435 51.544 C 33.283 52.286 32.469 52.534 31.789 52.457 C 30.865 52.352 29.734 52.457 29.006 53.094 C 28.201 53.8 28.252 55.057 29.01 55.781 Z  M 13.196 56.445 C 11.579 55.61 12.244 53.105 13.409 52.273 C 12.596 51.627 12.903 50.47 13.737 50.032 C 14.638 49.558 15.865 49.45 16.859 49.643 C 19.344 50.124 19.197 52.434 19.197 54.458 C 19.197 54.424 19.701 54.658 19.726 54.677 C 20.415 55.035 20.416 56.081 19.892 56.575 C 19.346 57.089 17.697 57.159 17.171 56.602 C 17.155 56.58 15.6 57.056 15.45 57.067 C 14.656 57.127 13.818 56.968 13.196 56.445 Z  M 13.645 55.781 C 14.217 56.298 15.056 56.363 15.781 56.221 C 16.289 56.121 17.024 55.482 17.519 55.838 C 17.971 56.163 18.421 56.221 19.004 56.155 C 19.416 56.108 19.698 55.539 19.247 55.313 C 18.431 55.249 18.382 54.97 18.424 54.204 C 18.469 53.369 18.556 52.473 18.297 51.662 C 17.773 50.023 15.723 50.208 14.433 50.611 C 13.942 50.752 13.259 51.667 14.161 51.733 C 15.079 51.558 16.203 50.787 17.072 51.543 C 17.926 52.285 17.099 52.533 16.422 52.457 C 15.499 52.353 14.37 52.458 13.643 53.094 C 12.817 53.817 12.923 55.024 13.645 55.781 Z  M 44.401 56.684 C 44.269 56.549 44.17 56.344 44.171 56.122 C 44.171 55.48 44.094 54.377 45.043 54.464 L 45.043 52.164 C 43.789 52.266 43.775 49.707 45.114 49.707 C 44.316 48.768 45.011 47.06 46.215 46.865 C 47.7 46.625 48.307 49.215 47.179 49.941 C 47.424 50.135 47.548 50.453 47.554 50.758 L 47.554 54.463 C 48.536 54.447 48.727 56.416 47.991 56.836 C 47.464 57.137 46.48 56.894 45.889 56.925 C 45.45 56.949 44.724 57.078 44.401 56.684 Z  M 47.565 56.122 L 47.565 55.26 L 47.568 55.26 C 46.688 55.388 46.756 54.766 46.79 54.135 C 46.83 53.404 46.866 52.67 46.842 51.938 C 46.831 51.623 46.876 50.674 46.488 50.519 C 46.092 50.362 45.408 50.506 44.983 50.506 C 44.954 50.506 44.969 51.296 44.971 51.365 C 46.162 51.187 45.912 52.695 45.919 53.504 C 45.926 54.339 46.015 55.312 44.982 55.26 C 44.401 56.619 46.904 56.122 47.565 56.122 Z  M 46.746 49.277 L 46.746 49.273 L 46.747 49.273 C 47 48.906 46.936 48.302 46.774 47.923 L 46.759 47.904 C 46.499 47.661 45.938 47.653 45.74 47.971 C 45.625 48.304 45.555 48.732 45.681 49.072 C 45.807 49.411 46.482 49.512 46.746 49.277 Z  M 36.238 56.598 C 35.712 56.12 35.745 55.27 36.259 54.795 C 36.621 54.461 36.873 54.703 36.873 54.136 L 36.873 50.95 C 36.873 50.341 36.561 50.578 36.214 50.221 C 35.713 49.706 35.828 48.84 36.356 48.389 C 36.877 47.943 37.791 48.099 38.429 48.074 C 39.269 48.041 40.12 48.016 40.952 48.161 C 42.778 48.477 44.331 50.252 43.241 52.122 C 44.209 52.963 44.282 54.458 43.614 55.501 C 42.896 56.621 41.696 56.921 40.441 56.921 C 39.32 56.939 38.197 56.921 37.075 56.921 C 36.77 56.925 36.452 56.822 36.238 56.598 Z  M 37.075 56.122 C 38.681 56.122 40.999 56.71 42.399 55.668 C 43.034 55.196 43.465 54.272 43.177 53.487 C 42.954 52.882 42.036 52.466 42.531 51.75 C 43.149 50.205 42.082 49.111 40.571 48.937 C 39.715 48.838 38.842 48.939 37.983 48.871 C 37.588 48.84 36.846 49.114 36.612 48.823 C 36.699 48.859 36.777 48.952 36.852 49.01 C 36.665 49.24 36.615 49.537 36.869 49.726 C 37.848 49.875 37.67 50.384 37.67 51.281 C 37.67 52.087 37.646 52.894 37.701 53.698 C 37.732 54.152 37.814 54.824 37.417 55.156 C 37.198 55.338 36.855 55.22 36.712 55.473 C 36.549 55.759 36.756 56.116 37.075 56.122 Z  M 54.123 56.92 C 53.657 56.899 53.145 56.852 52.88 56.402 C 52.397 57.195 50.206 57.133 49.478 56.793 C 49.021 56.579 48.804 56.044 48.846 55.562 C 48.91 54.834 49.685 54.734 49.685 54.156 C 49.685 53.661 49.926 52.397 49.565 52.022 C 49.149 51.59 48.697 51.405 48.832 50.696 C 48.934 50.162 49.391 49.803 49.914 49.725 C 50.269 49.672 50.669 49.68 51.027 49.699 C 51.309 49.714 51.693 49.978 51.96 49.863 C 52.993 49.2 54.583 49.6 55.35 50.478 C 56.311 51.581 56.07 53.146 56.07 54.496 L 56.841 55.132 C 57.037 55.553 57.15 56.089 56.769 56.444 C 56.122 57.045 54.933 56.92 54.123 56.92 C 53.657 56.898 55.189 56.92 54.123 56.92 Z  M 55.505 56.122 C 55.853 56.126 56.498 55.82 56.064 55.386 C 55.823 55.144 55.272 55.35 55.272 54.864 C 55.272 53.581 55.729 51.632 54.502 50.742 C 54.065 50.426 53.504 50.313 52.975 50.383 C 52.552 50.439 51.834 51.045 51.477 50.736 C 51.122 50.428 50.155 50.296 49.769 50.603 C 49.344 50.942 49.943 51.254 49.573 51.623 L 49.333 51.94 L 49.573 51.623 L 49.761 51.273 C 50.523 51.57 50.484 51.664 50.484 52.544 C 50.484 53.102 50.768 54.685 50.307 55.08 C 50.056 55.294 49.233 55.532 49.761 56.029 C 50.136 56.338 51.411 56.199 51.861 56.121 C 52.164 56.068 52.356 55.847 52.257 55.513 C 52.182 55.26 51.778 55.313 51.586 55.205 C 51.157 54.966 51.345 53.129 51.417 52.689 C 51.604 51.555 53.166 50.66 54.039 51.669 C 54.631 52.348 54.403 53.77 54.371 54.602 C 54.347 55.223 53.045 55.49 53.657 56.075 L 53.659 56.072 C 54.228 56.222 54.92 56.122 55.505 56.122 Z  M 52.884 55.006 L 53.574 54.434 L 53.592 53.782 C 53.597 53.317 53.603 52.804 53.436 52.362 C 53.272 51.928 52.922 51.919 52.576 52.176 C 51.931 52.655 52.195 53.78 52.195 54.501 C 52.195 54.491 52.819 54.896 52.884 55.006 Z  M 30.648 55.338 C 29.11 55.338 29.077 53.692 30.443 53.33 C 31.169 53.137 32.948 52.964 32.835 54.094 C 32.738 55 31.38 55.34 30.648 55.338 Z  M 30.232 54.434 C 30.707 54.803 31.633 54.449 32.002 54.07 C 31.738 54.008 30.113 54.321 30.232 54.434 Z  M 32.031 54.076 L 32.031 54.072 L 32.031 54.076 Z  M 32.077 53.759 L 32.091 53.68 L 32.091 53.619 L 32.077 53.759 Z  M 15.283 55.338 C 14.528 55.338 13.584 54.634 14.205 53.845 C 14.63 53.304 15.503 53.219 16.138 53.219 C 16.138 53.341 16.172 53.499 16.138 53.615 C 16.375 54.437 15.046 53.766 14.816 54.381 C 15.097 54.943 16.337 54.368 16.636 54.069 C 16.299 53.99 15.997 54.091 16.138 53.615 C 16.105 53.498 16.138 53.342 16.138 53.219 C 16.795 53.213 17.55 53.292 17.469 54.094 C 17.368 55 16.019 55.34 15.283 55.338 Z  M 39.014 55.26 C 38.402 55.203 38.54 53.891 38.581 53.47 C 38.684 52.419 39.908 52.718 40.706 52.792 C 41.462 52.862 42.522 53.482 42.206 54.408 C 41.814 55.557 39.922 55.26 39.014 55.26 C 38.772 55.237 39.891 55.26 39.014 55.26 Z  M 39.412 54.464 C 39.5 54.464 42.212 54.341 41.331 53.744 C 40.851 53.532 40.19 53.513 39.674 53.589 C 39.268 53.648 39.412 54.174 39.412 54.464 C 39.845 54.464 39.412 53.646 39.412 54.464 Z  M 39.014 52.021 C 38.394 51.959 38.522 50.596 38.629 50.177 C 38.838 49.364 40.817 49.744 41.33 50.072 C 41.264 50.176 41.206 50.326 41.115 50.408 L 40.86 50.717 L 41.115 50.408 L 41.33 50.072 C 41.848 50.464 41.852 51.162 41.405 51.61 C 40.816 52.202 39.766 52.021 39.014 52.021 C 38.772 51.997 39.608 52.021 39.014 52.021 Z  M 39.412 51.223 C 39.724 51.223 41.7 51.114 40.558 50.667 C 39.889 50.406 39.412 50.497 39.412 51.223 C 39.835 51.223 39.412 50.467 39.412 51.223 Z " fill="rgb(0,0,0)"/></g></svg>