<svg id="javabin-logo" viewBox="0 0 65 65">
    <path d="M25.032 40.364h.032-.032zm21.455-13.11v-.038l-.999-2.623c-.683-1.795-1.356-3.594-2.047-5.387.024.062.317-.232.329-.249.266-.278.173-.649-.016-.939-.158-.351-.799-.648-1.055-.983-.951-1.431-3.371-1.915-4.156-.176-.463 1.024-.247 1.746.507 2.543.65.687 1.602 1.288 2.477.622.471-.358.449-.067.603.33l.607 1.586 1.018 2.652.611 1.622c-.836-.26-.555-.729-1.067-1.321-.627-.711-1.76-.71-2.387 0-.485.621-.35.534-1.113.304l-1.338-.403c-.187-.208-.219-.926-.286-1.203-.115-.47-.235-.938-.36-1.405-.281-1.048-.588-2.09-.92-3.124-.624-1.95-1.335-3.871-2.124-5.76-.79-1.893-1.658-3.752-2.595-5.577-.152-.298-.718-1.854-1.113-1.797-.414.06-.694.84-.84 1.158-1.665 3.616-3.396 7.176-4.783 10.914-.303.817-.56 1.644-.834 2.47-.285.854-.947 1.462-1.289 2.29-.246.595-.171.816-.694 1.153l-1.056.681c-.799.516-1.709.906-2.365 1.615-.922.998-.512 1.921.206 2.868.721.951 1.331 1.988 1.796 3.087.541 1.277.608 2.366.672 3.733.095 2.054.201 4.883 1.426 6.644.576.828 1.39.499 1.946-.173.74-.895 1.422-1.7 2.436-2.314 2.181-1.322 4.597-.786 6.568.649 1.206.879 3.747 4.297 4.915 1.448.402-.98.424-2.208.505-3.248.108-1.38.125-2.766.077-4.148-.096-2.779-.456-5.542-.954-8.276l6.64 2.016c.856.168 1.29-.441 1.052-1.241m-22.78-3.119c0-2.517 2.972-4.031 5.181-4.041 2.7-.013 5.356 2.38 4.357 5.218-.699 1.984-2.934 2.975-4.913 3.004-2.29.033-4.93-1.561-4.625-4.181m-1.963 4.162c-.437-.197-.883-.377-1.305-.607-.433-.236-.186-.269.139-.461l2.427-1.434c-.17.774-.15 2.659-1.261 2.502m17.05 12.216c-.093.676-.056 1.624-.822 1.917-1.105.233-2.108-1.44-2.847-2.061-1.034-.87-2.238-1.596-3.574-1.873-2.499-.52-4.992.936-6.515 2.852-.71 1.052-1.176 1.034-1.593-.159-.345-.988-.543-2.073-.692-3.104-.556-3.838-.049-7.693.778-11.449 1.15 1.997 3.527 2.783 5.725 2.43 2.65-.425 4.4-2.227 4.896-4.811.741.096 1.441.407 2.095.756.488.26 1.395.614 1.73 1.061.548.729.455 2.453.581 3.328.528 3.668.758 7.429.238 11.113 M25.328 21.47c-1.058 1.513 1.131 2.636 2.344 1.616 1.844-1.552-.997-3.524-2.344-1.616zm-16.758 37.716c-.604-.333-.703-1.989-.041-2.322.415-.208.752-.141.818-.697.025-.211.015-.427.015-.64v-3.362c-.723.035-1.202-.2-1.218-.968-.012-.568-.036-1.448.734-1.489-.708-.838-.278-2.619.919-2.735 1.412-.138 2.39 1.728 1.342 2.799.435.133.711.538.718.987 0 1.364-.028 2.731.02 4.095.038 1.073.125 2.39-.594 3.281-.513.59-1.899 1.499-2.713 1.051m.373-.719c2.985-.297 1.974-3.892 2.141-5.952.035-.427.274-1.754-.25-1.986-.296-.131-.829-.089-1.148-.104-.808-.039-.751.2-.741.941.344 0 1.216-.167 1.216.399 0 1.063-.013 2.127.025 3.189.021.583.131 1.86-.458 2.235-.2.127-.419.227-.631.33-.298.146-.154.651-.154.948.648-.065 0-.289 0 0zm2.245-8.233v.021-.021l.22-.332-.22.332zm-.7-.941c.389-.223.178-1.049.074-1.369-1.21-1.225-1.796 2.33-.074 1.369m12.303 7.598c-.671-.44-.939-1.546-1.261-2.234-.33-.707-.609-1.859-1.181-2.409-.462-.444-1.129-.521-1.02-1.342.084-.635.651-1.198 1.306-1.198 0 .123.033.281 0 .399.13.433-.847.609-.49.995.379.409.729.268.995.836.569 1.217 1.051 2.487 1.645 3.689.196.396.404.75.917.719.806-.05 1.166-1.559 1.441-2.148l1.196-2.56c.038-.081 1.59-.733.875-1.001-.392-.353-1.713-.216-2.208-.176-.299.025-1.155.314-.603.688.245.165.74.252.849.562.157.448-.665 1.612-.856 2.046-.146.328-.345.884-.703 1.038-.46.199-1.02-1.796-1.148-2.106-.179-.432-.66-1.091.007-1.28.359-.101.628-.567.27-.845-.637-.219-1.525-.058-2.187-.058v-.798c.826 0 2.542-.306 2.997.592.476-.926 2.355-.661 3.177-.592.954 0 1.599 1.026 1.094 1.87-.25.419-.852.391-1.006.758l-.472 1.185c-.47 1.162-1.827 4.749-3.634 3.37m.898-3.52l.6-1.299c-.274-.088-.511-.299-.646-.551-.088.179-.385.346-.433.524-.093.341.352 1.018.479 1.326.2-.433-.13-.315 0 0zm4.965 3.074c-1.617-.835-.948-3.342.215-4.172-.808-.651-.51-1.799.329-2.241.9-.475 2.127-.582 3.119-.389 2.486.481 2.339 2.79 2.339 4.815 0-.033.506.201.53.219.604.315.686 1.202.317 1.722-.467.66-1.618.633-2.327.491-.312-.062-.478-.396-.786-.24-.375.189-.747.32-1.167.383-.886.132-1.865.004-2.569-.588m.451-.664c.573.516 1.412.584 2.138.44.507-.101 1.24-.739 1.735-.382.451.324.903.381 1.485.316.412-.047.696-.619.242-.842-.815-.067-.864-.343-.822-1.109.046-.835.132-1.73-.127-2.541-.523-1.64-2.576-1.455-3.864-1.052-.485.142-1.192 1.057-.271 1.122.916-.176 2.043-.947 2.909-.189.848.742.034.99-.646.913-.924-.105-2.055 0-2.783.637-.805.706-.754 1.963.004 2.687m-15.814.664c-1.617-.835-.952-3.34.213-4.172-.813-.646-.506-1.803.328-2.241.901-.474 2.128-.582 3.122-.389 2.485.481 2.338 2.791 2.338 4.815 0-.034.504.2.529.219.689.358.69 1.404.166 1.898-.546.514-2.195.584-2.721.027-.016-.022-1.571.454-1.721.465-.794.06-1.632-.099-2.254-.622m.449-.664c.572.517 1.411.582 2.136.44.508-.1 1.243-.739 1.738-.383.452.325.902.383 1.485.317.412-.047.694-.616.243-.842-.816-.064-.865-.343-.823-1.109.045-.835.132-1.731-.127-2.542-.524-1.639-2.574-1.454-3.864-1.051-.491.141-1.174 1.056-.272 1.122.918-.175 2.042-.946 2.911-.19.854.742.027.99-.65.914-.923-.104-2.052.001-2.779.637-.826.723-.72 1.93.002 2.687m30.756.903c-.132-.135-.231-.34-.23-.562 0-.642-.077-1.745.872-1.658v-2.3c-1.254.102-1.268-2.457.071-2.457-.798-.939-.103-2.647 1.101-2.842 1.485-.24 2.092 2.35.964 3.076.245.194.369.512.375.817v3.705c.982-.016 1.173 1.953.437 2.373-.527.301-1.511.058-2.102.089-.439.024-1.165.153-1.488-.241m3.164-.562v-.862h.003c-.88.128-.812-.494-.778-1.125.04-.731.076-1.465.052-2.197-.011-.315.034-1.264-.354-1.419-.396-.157-1.08-.013-1.505-.013-.029 0-.014.79-.012.859 1.191-.178.941 1.33.948 2.139.007.835.096 1.808-.937 1.756-.581 1.359 1.922.862 2.583.862zm-.819-6.845v-.004h.001c.253-.367.189-.971.027-1.35l-.015-.019c-.26-.243-.821-.251-1.019.067-.115.333-.185.761-.059 1.101.126.339.801.44 1.065.205m-10.508 7.321c-.526-.478-.493-1.328.021-1.803.362-.334.614-.092.614-.659v-3.186c0-.609-.312-.372-.659-.729-.501-.515-.386-1.381.142-1.832.521-.446 1.435-.29 2.073-.315.84-.033 1.691-.058 2.523.087 1.826.316 3.379 2.091 2.289 3.961.968.841 1.041 2.336.373 3.379-.718 1.12-1.918 1.42-3.173 1.42-1.121.018-2.244 0-3.366 0-.305.004-.623-.099-.837-.323m.837-.476c1.606 0 3.924.588 5.324-.454.635-.472 1.066-1.396.778-2.181-.223-.605-1.141-1.021-.646-1.737.618-1.545-.449-2.639-1.96-2.813-.856-.099-1.729.002-2.588-.066-.395-.031-1.137.243-1.371-.048.087.036.165.129.24.187-.187.23-.237.527.017.716.979.149.801.658.801 1.555 0 .806-.024 1.613.031 2.417.031.454.113 1.126-.284 1.458-.219.182-.562.064-.705.317-.163.286.044.643.363.649m17.048.798c-.466-.021-.978-.068-1.243-.518-.483.793-2.674.731-3.402.391-.457-.214-.674-.749-.632-1.231.064-.728.839-.828.839-1.406 0-.495.241-1.759-.12-2.134-.416-.432-.868-.617-.733-1.326.102-.534.559-.893 1.082-.971.355-.053.755-.045 1.113-.026.282.015.666.279.933.164 1.033-.663 2.623-.263 3.39.615.961 1.103.72 2.668.72 4.018l.771.636c.196.421.309.957-.072 1.312-.647.601-1.836.476-2.646.476-.466-.022 1.066 0 0 0zm1.382-.798c.348.004.993-.302.559-.736-.241-.242-.792-.036-.792-.522 0-1.283.457-3.232-.77-4.122-.437-.316-.998-.429-1.527-.359-.423.056-1.141.662-1.498.353-.355-.308-1.322-.44-1.708-.133-.425.339.174.651-.196 1.02l-.24.317.24-.317.188-.35c.762.297.723.391.723 1.271 0 .558.284 2.141-.177 2.536-.251.214-1.074.452-.546.949.375.309 1.65.17 2.1.092.303-.053.495-.274.396-.608-.075-.253-.479-.2-.671-.308-.429-.239-.241-2.076-.169-2.516.187-1.134 1.749-2.029 2.622-1.02.592.679.364 2.101.332 2.933-.024.621-1.326.888-.714 1.473l.002-.003c.569.15 1.261.05 1.846.05zm-2.621-1.116l.69-.572.018-.652c.005-.465.011-.978-.156-1.42-.164-.434-.514-.443-.86-.186-.645.479-.381 1.604-.381 2.325 0-.01.624.395.689.505m-22.236.332c-1.538 0-1.571-1.646-.205-2.008.726-.193 2.505-.366 2.392.764-.097.906-1.455 1.246-2.187 1.244zm-.416-.904c.475.369 1.401.015 1.77-.364-.264-.062-1.889.251-1.77.364m1.799-.358v-.004.004zm.046-.317l.014-.079v-.061l-.014.14zm-16.794 1.579c-.755 0-1.699-.704-1.078-1.493.425-.541 1.298-.626 1.933-.626 0 .122.034.28 0 .396.237.822-1.092.151-1.322.766.281.562 1.521-.013 1.82-.312-.337-.079-.639.022-.498-.454-.033-.117 0-.273 0-.396.657-.006 1.412.073 1.331.875-.101.906-1.45 1.246-2.186 1.244zm23.731-.078c-.612-.057-.474-1.369-.433-1.79.103-1.051 1.327-.752 2.125-.678.756.07 1.816.69 1.5 1.616-.392 1.149-2.284.852-3.192.852-.242-.023.877 0 0 0zm.398-.796c.088 0 2.8-.123 1.919-.72-.48-.212-1.141-.231-1.657-.155-.406.059-.262.585-.262.875.433 0 0-.818 0 0zm-.398-2.443c-.62-.062-.492-1.425-.385-1.844.209-.813 2.188-.433 2.701-.105-.066.104-.124.254-.215.336l-.255.309.255-.309.215-.336c.518.392.522 1.09.075 1.538-.589.592-1.639.411-2.391.411-.242-.024.594 0 0 0zm.398-.798c.312 0 2.288-.109 1.146-.556-.669-.261-1.146-.17-1.146.556.423 0 0-.756 0 0z"/></svg>