<?xml version="1.0" standalone="no"?><!-- Generator: Gravit.io --><svg xmlns="http://www.w3.org/2000/svg" xmlns:xlink="http://www.w3.org/1999/xlink" style="isolation:isolate" viewBox="0 0 65 65.2" width="65" height="65.2"><defs><clipPath id="_clipPath_BecZjZvwAVsEAUpZKNik3jcgji8PEqRA"><rect width="65" height="65.2"/></clipPath></defs><g clip-path="url(#_clipPath_BecZjZvwAVsEAUpZKNik3jcgji8PEqRA)"><path d=" M 48.568 28.745 C 48.568 30.828 48.57 32.911 48.568 34.995 C 48.568 35.975 48.124 36.425 47.154 36.425 L 34.654 36.425 C 33.727 36.425 33.276 35.972 33.276 35.044 C 33.274 30.848 33.274 26.654 33.276 22.46 C 33.276 21.551 33.751 21.085 34.667 21.085 L 47.168 21.085 C 48.099 21.085 48.565 21.552 48.567 22.494 L 48.568 28.745 Z  M 36.426 27.347 L 36.424 27.347 C 36.424 28.151 36.376 28.957 36.44 29.755 C 36.49 30.383 36.579 31.043 36.821 31.614 C 37.623 33.518 39.734 34.537 41.852 34.122 C 43.908 33.72 45.381 31.985 45.414 29.873 C 45.439 28.133 45.42 26.393 45.417 24.649 C 45.417 24.513 45.401 24.378 45.371 24.244 C 45.253 23.712 44.876 23.418 44.317 23.409 C 43.724 23.401 43.327 23.681 43.199 24.219 C 43.157 24.4 43.149 24.595 43.148 24.785 C 43.145 26.458 43.157 28.13 43.142 29.806 C 43.135 30.814 42.52 31.691 41.652 31.996 C 40.786 32.299 39.809 32.042 39.24 31.354 C 38.84 30.87 38.696 30.298 38.696 29.681 L 38.695 25.557 C 38.693 25.161 38.706 24.765 38.668 24.374 C 38.609 23.769 38.207 23.42 37.606 23.409 C 36.877 23.395 36.445 23.808 36.432 24.57 C 36.414 25.496 36.426 26.421 36.426 27.347 Z  M 49.922 28.773 C 49.922 26.662 49.92 24.553 49.922 22.442 C 49.923 21.547 50.387 21.084 51.279 21.084 L 63.822 21.084 C 64.738 21.084 65.195 21.545 65.195 22.468 L 65.195 35.051 C 65.195 35.983 64.752 36.422 63.815 36.422 C 59.635 36.424 55.454 36.424 51.273 36.422 C 50.371 36.422 49.922 35.975 49.921 35.068 L 49.922 28.773 Z  M 60.147 29.84 C 60.147 30.593 59.898 31.153 59.365 31.58 C 58.182 32.531 56.292 32.208 55.504 30.913 C 54.932 29.968 54.848 28.929 55.041 27.873 C 55.388 25.971 56.795 25.037 58.611 25.51 C 59.021 25.617 59.396 25.869 59.784 26.062 C 60.014 26.175 60.226 26.339 60.468 26.416 C 61.123 26.628 61.727 26.249 61.737 25.564 C 61.743 25.244 61.591 24.868 61.389 24.61 C 60.957 24.055 60.315 23.781 59.653 23.597 C 57.787 23.079 56.001 23.159 54.449 24.469 C 52.464 26.144 52.007 29.425 53.4 31.799 C 54.575 33.797 56.991 34.69 59.29 33.974 C 61.336 33.341 62.662 31.301 62.511 29.022 C 62.452 28.15 62.058 27.768 61.186 27.763 C 60.382 27.757 59.581 27.757 58.777 27.763 C 58.062 27.766 57.63 28.168 57.64 28.81 C 57.65 29.458 58.074 29.834 58.798 29.84 L 60.147 29.84 Z  M -0.002 28.745 L -0.002 22.453 C -0.002 21.564 0.475 21.083 1.353 21.083 L 13.937 21.083 C 14.806 21.083 15.281 21.553 15.282 22.416 C 15.283 26.653 15.283 30.887 15.281 35.124 C 15.281 35.95 14.813 36.421 13.994 36.421 C 9.758 36.423 5.521 36.423 1.286 36.421 C 0.476 36.421 0 35.937 -0.002 35.116 C -0.004 32.993 -0.002 30.867 -0.002 28.745 Z  M 9.875 30.066 L 9.555 29.667 C 8.151 27.793 6.761 25.909 5.333 24.055 C 5.119 23.775 4.759 23.52 4.422 23.441 C 3.676 23.263 3.156 23.803 3.155 24.675 C 3.151 27.398 3.154 30.123 3.154 32.845 L 3.174 33.171 C 3.246 33.702 3.612 34.06 4.143 34.116 C 4.904 34.194 5.41 33.72 5.415 32.879 C 5.425 31.274 5.418 29.667 5.418 28.062 L 5.418 27.654 C 6.287 28.648 7.051 29.655 7.814 30.663 C 8.554 31.639 9.283 32.624 10.038 33.586 C 10.37 34.01 10.815 34.225 11.372 34.065 C 11.852 33.928 12.094 33.569 12.141 32.938 L 12.148 32.57 C 12.148 30.026 12.148 27.479 12.146 24.934 C 12.146 24.73 12.138 24.524 12.11 24.323 C 12.028 23.766 11.641 23.429 11.082 23.412 C 10.332 23.384 9.886 23.803 9.881 24.581 C 9.87 26.239 9.877 27.903 9.877 29.562 L 9.877 30.066 L 9.875 30.066 Z  M 31.928 28.776 L 31.928 35.029 C 31.928 35.976 31.481 36.424 30.524 36.424 L 18.024 36.424 C 17.1 36.424 16.637 35.969 16.637 35.051 C 16.635 30.856 16.635 26.662 16.637 22.468 C 16.638 21.557 17.112 21.084 18.021 21.084 L 30.562 21.084 C 31.446 21.084 31.926 21.562 31.928 22.442 L 31.928 28.776 Z  M 22.146 29.97 L 22.057 29.945 L 22.057 29.549 C 22.057 27.959 22.058 26.365 22.056 24.772 C 22.054 24.597 22.048 24.416 22.012 24.246 C 21.891 23.7 21.499 23.411 20.915 23.411 C 20.331 23.414 19.944 23.708 19.831 24.257 C 19.792 24.444 19.786 24.636 19.786 24.826 C 19.782 27.452 19.784 30.079 19.784 32.705 L 19.79 33.034 C 19.874 33.997 20.77 34.432 21.567 33.884 C 21.752 33.755 21.906 33.572 22.044 33.388 C 23.412 31.591 24.773 29.788 26.136 27.988 L 26.422 27.64 C 26.507 27.832 26.507 27.979 26.507 28.127 C 26.509 29.72 26.499 31.314 26.513 32.904 C 26.523 33.796 27.156 34.294 27.966 34.081 C 28.495 33.944 28.775 33.544 28.776 32.867 C 28.78 30.13 28.78 27.393 28.776 24.659 C 28.775 24.014 28.524 23.615 28.05 23.462 C 27.55 23.298 27.005 23.487 26.646 23.96 C 26.258 24.469 25.877 24.981 25.496 25.497 L 22.146 29.97 Z  M 52.947 40.232 L 52.312 44.982 L 51.093 44.982 L 50.481 40.402 L 50.386 40.406 L 50.386 44.97 L 48.708 44.97 L 48.708 37.476 C 49.483 37.476 50.24 37.468 50.999 37.49 C 51.072 37.494 51.183 37.691 51.202 37.814 C 51.36 38.736 51.498 39.662 51.643 40.589 C 51.651 40.638 51.677 40.685 51.785 40.741 C 51.938 39.673 52.093 38.604 52.248 37.505 L 54.71 37.505 L 54.71 44.974 L 53.04 44.974 L 53.04 40.238 L 52.947 40.232 Z  M 31.49 44.996 L 31.49 37.418 C 32.636 37.482 33.762 37.496 34.875 37.623 C 35.553 37.703 35.945 38.232 35.953 38.92 C 35.975 40.525 35.98 42.129 35.953 43.731 C 35.94 44.491 35.576 44.833 34.824 44.932 C 34.582 44.963 34.337 44.991 34.093 44.994 C 33.236 45 32.381 44.996 31.49 44.996 Z  M 33.438 38.736 L 33.438 43.711 C 33.945 43.736 34.064 43.635 34.068 43.094 C 34.08 41.819 34.078 40.541 34.073 39.268 C 34.07 38.814 33.943 38.715 33.438 38.736 Z  M 39.274 44.969 L 39.274 41.85 L 38.688 41.85 L 38.688 44.971 L 36.779 44.971 L 36.779 37.502 L 38.662 37.502 L 38.662 40.166 L 39.274 40.166 L 39.274 37.502 L 41.203 37.502 L 41.203 44.969 L 39.274 44.969 Z  M 26.353 37.475 C 26.834 37.475 27.295 37.455 27.753 37.489 C 27.859 37.501 28 37.673 28.043 37.798 C 28.322 38.624 28.576 39.456 28.842 40.286 C 28.881 40.407 28.93 40.522 29.057 40.626 L 29.057 37.509 L 30.659 37.509 L 30.659 44.976 L 29.003 44.976 L 28.047 41.769 L 27.948 41.789 L 27.948 44.973 L 26.353 44.973 L 26.353 37.475 L 26.353 37.475 Z  M 20.334 44.977 L 18.53 44.977 L 18.528 43.137 C 18.527 42.77 18.528 42.401 18.514 42.033 C 18.501 41.707 18.348 41.523 17.938 41.603 L 17.938 44.978 L 16.023 44.978 L 16.023 37.476 C 16.669 37.476 17.305 37.464 17.938 37.48 C 18.332 37.49 18.724 37.521 19.115 37.572 C 19.746 37.654 20.125 38.051 20.23 38.654 C 20.307 39.09 20.302 39.545 20.298 39.99 C 20.293 40.562 20.043 40.959 19.42 41.013 L 19.446 41.105 C 20.094 41.322 20.341 41.794 20.335 42.451 C 20.327 43.281 20.334 44.107 20.334 44.977 Z  M 17.954 40.418 C 18.336 40.482 18.51 40.332 18.521 39.996 C 18.53 39.709 18.535 39.424 18.518 39.141 C 18.496 38.801 18.294 38.688 17.954 38.737 L 17.954 40.418 L 17.954 40.418 Z  M 21.1 41.207 C 21.1 40.607 21.106 40.01 21.098 39.41 C 21.082 37.955 22.121 37.299 23.429 37.349 C 24.596 37.392 25.371 38.037 25.477 38.97 C 25.524 39.39 25.551 39.812 25.549 40.232 C 25.541 41.252 25.521 42.271 25.487 43.289 C 25.453 44.297 24.67 45.059 23.671 45.064 C 23.277 45.064 22.873 45.082 22.498 44.988 C 21.633 44.775 21.139 44.133 21.111 43.248 C 21.091 42.564 21.106 41.887 21.106 41.207 L 21.1 41.207 Z  M 23.019 41.207 C 23.019 41.939 23.014 42.676 23.022 43.412 C 23.024 43.609 22.989 43.859 23.293 43.865 C 23.585 43.869 23.595 43.627 23.598 43.426 C 23.605 41.957 23.61 40.485 23.59 39.016 C 23.587 38.875 23.429 38.635 23.317 38.618 C 23.036 38.575 23.021 38.831 23.021 39.042 C 23.017 39.764 23.019 40.484 23.019 41.207 Z  M 45.322 43.482 L 45.322 44.97 L 42.034 44.97 L 42.034 37.476 C 43.04 37.476 44.03 37.474 45.019 37.488 C 45.087 37.488 45.205 37.638 45.21 37.722 C 45.231 38.113 45.22 38.507 45.22 38.945 L 43.983 38.945 L 43.983 40.361 L 45.129 40.361 L 45.129 41.812 L 43.977 41.812 L 43.977 43.482 L 45.322 43.482 L 45.322 43.482 Z  M 15.504 37.496 L 15.504 38.949 L 14.385 38.949 L 14.385 44.969 L 12.446 44.969 L 12.446 38.98 L 11.312 38.98 L 11.312 37.496 L 15.504 37.496 Z  M 45.961 37.508 L 47.85 37.508 L 47.85 44.977 L 45.961 44.977 L 45.961 37.508 Z " fill="rgb(0,0,0)"/></g></svg>