<svg id="nnug-logo" viewBox="0 0 65 65.2"><path d="M48.568 28.745c0 2.083.002 4.166 0 6.25 0 .98-.444 1.43-1.414 1.43h-12.5c-.927 0-1.378-.453-1.378-1.381-.002-4.196-.002-8.39 0-12.584 0-.909.475-1.375 1.391-1.375h12.501c.931 0 1.397.467 1.399 1.409l.001 6.251m-12.142-1.398h-.002c0 .804-.048 1.61.016 2.408.05.628.139 1.288.381 1.859.802 1.904 2.913 2.923 5.031 2.508 2.056-.402 3.529-2.137 3.562-4.249.025-1.74.006-3.48.003-5.224 0-.136-.016-.271-.046-.405-.118-.532-.495-.826-1.054-.835-.593-.008-.99.272-1.118.81-.042.181-.05.376-.051.566-.003 1.673.009 3.345-.006 5.021-.007 1.008-.622 1.885-1.49 2.19-.866.303-1.843.046-2.412-.642-.4-.484-.544-1.056-.544-1.673l-.001-4.124c-.002-.396.011-.792-.027-1.183-.059-.605-.461-.954-1.062-.965-.729-.014-1.161.399-1.174 1.161-.018.926-.006 1.851-.006 2.777M49.922 28.773c0-2.111-.002-4.22 0-6.331.001-.895.465-1.358 1.357-1.358h12.543c.916 0 1.373.461 1.373 1.384v12.583c0 .932-.443 1.371-1.38 1.371-4.18.002-8.361.002-12.542 0-.902 0-1.351-.447-1.352-1.354l.001-6.295m10.225 1.067c0 .753-.249 1.313-.782 1.74-1.183.951-3.073.628-3.861-.667-.572-.945-.656-1.984-.463-3.04.347-1.902 1.754-2.836 3.57-2.363.41.107.785.359 1.173.552.23.113.442.277.684.354.655.212 1.259-.167 1.269-.852.006-.32-.146-.696-.348-.954-.432-.555-1.074-.829-1.736-1.013-1.866-.518-3.652-.438-5.204.872-1.985 1.675-2.442 4.956-1.049 7.33 1.175 1.998 3.591 2.891 5.89 2.175 2.046-.633 3.372-2.673 3.221-4.952-.059-.872-.453-1.254-1.325-1.259-.804-.006-1.605-.006-2.409 0-.715.003-1.147.405-1.137 1.047.01.648.434 1.024 1.158 1.03h1.349 M-.002 28.745v-6.292c0-.889.477-1.37 1.355-1.37h12.584c.869 0 1.344.47 1.345 1.333.001 4.237.001 8.471-.001 12.708 0 .826-.468 1.297-1.287 1.297-4.236.002-8.473.002-12.708 0-.81 0-1.286-.484-1.288-1.305-.002-2.123 0-4.249 0-6.371m9.877 1.321l-.32-.399c-1.404-1.874-2.794-3.758-4.222-5.612-.214-.28-.574-.535-.911-.614-.746-.178-1.266.362-1.267 1.234-.004 2.723-.001 5.448-.001 8.17l.02.326c.072.531.438.889.969.945.761.078 1.267-.396 1.272-1.237.01-1.605.003-3.212.003-4.817v-.408c.869.994 1.633 2.001 2.396 3.009.74.976 1.469 1.961 2.224 2.923.332.424.777.639 1.334.479.48-.137.722-.496.769-1.127l.007-.368c0-2.544 0-5.091-.002-7.636 0-.204-.008-.41-.036-.611-.082-.557-.469-.894-1.028-.911-.75-.028-1.196.391-1.201 1.169-.011 1.658-.004 3.322-.004 4.981v.504zM31.928 28.776v6.253c0 .947-.447 1.395-1.404 1.395h-12.5c-.924 0-1.387-.455-1.387-1.373-.002-4.195-.002-8.389 0-12.583.001-.911.475-1.384 1.384-1.384h12.541c.884 0 1.364.478 1.366 1.358v6.334m-9.782 1.194l-.089-.025v-.396c0-1.59.001-3.184-.001-4.777-.002-.175-.008-.356-.044-.526-.121-.546-.513-.835-1.097-.835-.584.003-.971.297-1.084.846-.039.187-.045.379-.045.569-.004 2.626-.002 5.253-.002 7.879l.006.329c.084.963.98 1.398 1.777.85.185-.129.339-.312.477-.496 1.368-1.797 2.729-3.6 4.092-5.4l.286-.348c.085.192.085.339.085.487.002 1.593-.008 3.187.006 4.777.01.892.643 1.39 1.453 1.177.529-.137.809-.537.81-1.214.004-2.737.004-5.474 0-8.208-.001-.645-.252-1.044-.726-1.197-.5-.164-1.045.025-1.404.498-.388.509-.769 1.021-1.15 1.537l-3.35 4.473M52.947 40.232l-.635 4.75h-1.219l-.612-4.58-.095.004v4.564h-1.678v-7.494c.775 0 1.532-.008 2.291.014.073.004.184.201.203.324.158.922.296 1.848.441 2.775.008.049.034.096.142.152.153-1.068.308-2.137.463-3.236h2.462v7.469h-1.67v-4.736l-.093-.006M31.49 44.996v-7.578c1.146.064 2.272.078 3.385.205.678.08 1.07.609 1.078 1.297.022 1.605.027 3.209 0 4.811-.013.76-.377 1.102-1.129 1.201-.242.031-.487.059-.731.062-.857.006-1.712.002-2.603.002m1.948-6.26v4.975c.507.025.626-.076.63-.617.012-1.275.01-2.553.005-3.826-.003-.454-.13-.553-.635-.532 M39.274 44.969v-3.119h-.586v3.121h-1.909v-7.469h1.883v2.664h.612v-2.664h1.929v7.467zM26.353 37.475c.481 0 .942-.02 1.4.014.106.012.247.184.29.309.279.826.533 1.658.799 2.488.039.121.088.236.215.34v-3.117h1.602v7.467h-1.656l-.956-3.207-.099.02v3.184h-1.595v-7.498zM20.334 44.977h-1.804l-.002-1.84c-.001-.367 0-.736-.014-1.104-.013-.326-.166-.51-.576-.43v3.375h-1.915v-7.502c.646 0 1.282-.012 1.915.004.394.01.786.041 1.177.092.631.082 1.01.479 1.115 1.082.077.436.072.891.068 1.336-.005.572-.255.969-.878 1.023l.026.092c.648.217.895.689.889 1.346-.008.83-.001 1.656-.001 2.526m-2.38-4.559c.382.064.556-.086.567-.422.009-.287.014-.572-.003-.855-.022-.34-.224-.453-.564-.404v1.681zM21.1 41.207c0-.6.006-1.197-.002-1.797-.016-1.455 1.023-2.111 2.331-2.061 1.167.043 1.942.688 2.048 1.621.047.42.074.842.072 1.262-.008 1.02-.028 2.039-.062 3.057-.034 1.008-.817 1.77-1.816 1.775-.394 0-.798.018-1.173-.076-.865-.213-1.359-.855-1.387-1.74-.02-.684-.005-1.361-.005-2.041h-.006m1.919 0c0 .732-.005 1.469.003 2.205.002.197-.033.447.271.453.292.004.302-.238.305-.439.007-1.469.012-2.941-.008-4.41-.003-.141-.161-.381-.273-.398-.281-.043-.296.213-.296.424-.004.722-.002 1.442-.002 2.165 M45.322 43.482v1.488h-3.288v-7.494c1.006 0 1.996-.002 2.985.012.068 0 .186.15.191.234.021.391.01.785.01 1.223h-1.237v1.416h1.146v1.451h-1.152v1.67h1.345zM15.504 37.496v1.453h-1.119v6.02h-1.939v-5.989h-1.134v-1.484zM45.961 37.508h1.889v7.469h-1.889z"></path>
</svg>
