<svg id="trondheimxp-logo" viewBox="0 0 65 65"><path d="M21.738 47.888h-2.67l-.438-.248-2.188-3.549-1.964 3.459-.421.338h-2.485l-.253-.217.034-.121 3.513-6.065-3.547-5.767-.034-.101.25-.216h2.709l.419.316 2.085 3.396 1.882-3.396.42-.316h2.487l.253.216-.034.101-3.462 5.936 3.611 5.896c.077.161.008.27-.167.338zM27.334 43.517c-.405 0-.942-.031-1.36-.047v4.08l-.335.338h-2.172l-.335-.322v-11.247c0-1.273 2.291-1.021 3.162-1.051 2.823-.1 6.048.568 6.048 4.032.05 2.959-2.335 4.217-5.008 4.217m2.152-4.217c0-1.195-.74-1.664-2.151-1.664l-1.36.053v3.428c1.374.031 3.512.279 3.512-1.664M46.459 42.748h-1.059v4.802c-.423.747-2.61.463-3.355.473-1.099.013-2.27-.007-3.29-.465-2.046-.918-2.311-3.817-1.169-5.545.241-.365.444-.307.146-.701-.185-.244-.353-.503-.486-.78-.31-.64-.374-1.334-.31-2.035.094-1.008.513-1.952 1.386-2.513 1.881-1.206 4.791-.786 6.859-.481l.219.216v1.834l-.253.221h-3.18c-.557 0-1.206-.058-1.713.211-.848.45-.491 1.863-.1 2.495h6.304l.334.332v1.632l-.333.304m-3.715 0h-2.57c-.506 0-.413 1.805-.285 2.099.293.675 1.124.74 1.763.74h1.093M20.867 62.594h-2.22l-.303-.337v-4.086h-3.646v4.086l-.319.337h-2.219l-.337-.337v-6.964c0-.97-.09-2.027.156-2.971.48-1.842 2.218-2.334 3.927-2.334 1.049 0 2.142-.073 3.157.245 1.562.489 2.14 1.909 2.14 3.451v8.572l-.336.338m-2.523-8.909c0-.922-.269-1.211-1.212-1.211-1.079 0-2.435-.26-2.435 1.211v2.117h3.646M31.3 52.595c-1.368-.04-2.958-.399-4.296-.051-1.234.321-1.452 1.675-1.452 2.773 0 1.068-.119 2.238.117 3.287.374 1.661 1.595 1.736 3.059 1.619v-3.864l.318-.337h2.15l.338.337v5.244c0 .722-.27.789-1.011.91-1.714.28-3.729.514-5.344-.29-1.832-.911-2.534-2.881-2.534-4.827 0-2.074-.236-4.488 1.344-6.098 1.832-1.865 4.977-1.464 7.275-.958l.285.253v1.78l-.249.222 M35.835 62.594h-2.25l-.303-.337v-11.832l.303-.32h2.25l.318.32v10.308c0 .681.194 1.371-.318 1.861zM44.811 62.525c-1.423.31-3.223.403-4.64-.002-1.582-.453-2.2-1.835-2.2-3.395v-8.688l.334-.336h2.201l.337.336v8.151c0 .838-.015 1.681 1.077 1.681h2.891l.334.337v1.564l-.334.352M53.177 62.525c-1.54.221-3.223.393-4.761.092-1.79-.35-2.581-1.732-2.581-3.488 0-1.857-.04-3.719 0-5.576 0-1.658.703-3.038 2.395-3.434 1.582-.369 3.355-.174 4.947.054l.338.336v1.559l-.338.338h-2.467c-.965 0-2.019-.151-2.019 1.147v1.526h4.352l.337.338v1.596l-.337.336h-4.352c0 1.023-.404 2.923 1.076 2.923h3.409l.338.337v1.564l-.337.352 M13.531 29.368h-1.132v4.075l-.142.143h-.919l-.137-.143v-4.075h-1.141l-.14-.132v-.721l.14-.132h3.47l.148.132c.001.29.108.667-.147.853zM15.716 30.463l-.771.042v2.933l-.14.147h-.848l-.145-.147v-3.497c.341-.513 1.373-.421 1.903-.421l.189.132v.68l-.188.131M17.838 33.648c-1.135 0-1.759-.711-1.759-1.822 0-.961.128-1.993 1.234-2.254 1.254-.296 2.275.48 2.275 1.764.001 1.196-.33 2.312-1.75 2.312m.624-2.311c0-1.089-1.256-1.086-1.256 0 0 .395-.09.994.288 1.252.582.398.968-.262.968-.762M23.37 33.58h-.86l-.14-.147c0-.506.318-2.985-.416-2.985-.432-.031-.761.019-.761.526v2.459l-.14.147h-.861l-.134-.147c0-1.396-.513-3.917 1.548-3.917 1.015-.019 1.896.29 1.896 1.458v2.459l-.132.147M27.206 33.464c-1.44.363-3.246.267-3.246-1.611 0-1.227.291-2.338 1.757-2.338l.573.047v-1.206l.14-.142h.848l.147.142v4.902l-.219.206m-.916-2.975c-.684-.044-1.198-.03-1.198.821 0 .511-.116 1.401.625 1.401l.573-.037M31.336 33.58h-.848l-.14-.147c0-.594.35-2.98-.516-2.98l-.658.227v2.754l-.143.147h-.845l-.146-.147v-5.076l.137-.142h.854l.143.142v1.475c1.231-.803 2.309-.074 2.309 1.274v2.328l-.147.145M35.349 31.932h-2.23c-.053 1.071 1.389.787 2.061.711h.021l.132.111v.532c-.239.529-1.692.413-2.164.281-.792-.222-1.172-.928-1.172-1.718 0-.969.142-2.007 1.251-2.274 1.253-.302 2.246.521 2.246 1.785v.405l-.145.167m-.959-.727c0-1.006-1.271-.999-1.271 0v.026h1.271 M37.058 29.12h-.909l-.142-.142v-.648l.142-.142h.909l.139.142c-.001.29.082.584-.139.79zm-.028 4.46h-.855l-.14-.137v-3.728l.14-.143h.855l.14.143v2.063c0 .404.221 1.525-.14 1.802zM42.917 33.58h-.855l-.139-.153c0-.512.316-2.98-.414-2.98-.376-.061-.523.167-.523.511v2.469l-.132.153h-.861l-.14-.153c0-.489.308-2.98-.392-2.98-.375-.071-.548.157-.548.511v2.469l-.14.153h-.853l-.14-.153c0-1.395-.516-3.912 1.54-3.912.311-.015.634.029.909.18.323.176.724-.18 1.147-.18.952-.03 1.68.427 1.68 1.443v2.469l-.139.153M45.287 9.18l.505.032.316.068.174.121c.437 1.466 1.779 1.748 3.175 1.748 2.331 0 5.818-.273 5.818 2.954l-.031.505-.077.5-.076.163-.165.121-.293.089-.463.032-.469-.032-.306-.089-.176-.142-.056-.174v-.416l-.107-.448c-.514-.605-1.479-.516-2.198-.516-1.935 0-4.984.154-5.561-2.254-.346 1.691-1.617 2.254-3.215 2.254-1.12 0-2.652-.239-3.699.2l-.326.258-.111.405-.01.395-.043.273-.165.174-.298.09-.489.021-.461-.021-.306-.09-.163-.142-.065-.173-.09-.479c-.041-.958.015-1.98.796-2.658.934-.81 2.427-.801 3.591-.801.897 0 2.03.165 2.9-.084l.548-.269c.282-.389.48-.698.559-1.19l.076-.173.174-.131.318-.089.469-.032M20.979 2.456l.503.037.318.063.174.121c.427 1.469 1.783 1.748 3.173 1.748 2.33 0 5.821-.272 5.821 2.954l-.032.505-.079.5-.073.163-.166.126-.298.085-.457.032-.469-.032-.309-.084-.174-.147-.055-.174v-.416l-.11-.447c-.505-.606-1.484-.516-2.195-.516-1.935 0-4.984.154-5.561-2.254-.353 1.691-1.612 2.254-3.215 2.254-1.145 0-2.618-.215-3.699.2l-.326.263-.11.4-.011.4-.045.269-.164.179-.297.084-.49.021-.46-.021-.307-.084-.162-.148-.068-.173-.088-.479c-.039-.956.014-1.981.793-2.658.933-.81 2.431-.801 3.593-.801.896 0 2.031.166 2.898-.084l.548-.263c.283-.391.486-.7.558-1.195l.08-.174.173-.132.319-.084.469-.038"></path></svg>