<?xml version="1.0" encoding="utf-8"?>
<!-- Generator: Adobe Illustrator 19.2.1, SVG Export Plug-In . SVG Version: 6.00 Build 0)  -->
<svg version="1.1" id="Layer_1" xmlns="http://www.w3.org/2000/svg" xmlns:xlink="http://www.w3.org/1999/xlink" x="0px" y="0px"
	 viewBox="0 0 1134.4 205.4" style="enable-background:new 0 0 1134.4 205.4;" xml:space="preserve">
<style type="text/css">
	.st0{fill:#FFFFFF;stroke:#fff;stroke-miterlimit:10;}
</style>
<g>
	<path class="st0" d="M158.1,0c0,1.4,0,159.8,0,161.2c-1.2,0-16.7,0-18,0c0-1.4,0-159.8,0-161.2C141.4,0,156.9,0,158.1,0z"/>
	<path class="st0" d="M216.1,44.9c7.1-1.3,14.2-1.9,21.1-1.9c8.1,0,15.2,0.7,21.1,2c5.9,1.3,11.1,3.6,15.4,6.8
		c4.3,3.1,7.6,7.2,9.8,12.2c2.2,5,3.3,11.3,3.3,18.6c0,0,0,77.2,0,78.5c-1.2,0-16.7,0-18,0c0-1.3,0-32.4,0-32.4l0-30.5l-21.8,1.6
		c-8,0.7-14.5,1.7-19.3,3c-5.7,1.6-10.4,4.2-13.9,7.7c-3.5,3.4-5.4,9.1-5.4,16c0,7.8,2.1,13.8,6.2,17.2c4.1,3.5,10.4,5.2,18.8,5.2
		c5.7,0,11.1-1,16.1-2.9c0,1.7,0,12.9,0,13.7c-2.8,1.2-5.5,2.1-8.4,2.9c-4.2,1.1-9.1,1.6-14.6,1.6c-10.2,0-19-3.4-26.1-10.3
		c-7.1-6.8-10.7-15.6-10.7-26.2c0-8.7,1.9-15.7,5.5-21.1c3.7-5.3,9-9.6,15.8-12.7c7-3.1,15.4-5.2,25.2-6.3
		c9.8-1.1,20.5-1.9,31.8-2.5l0.7,0v-3.7c0-3.9-0.6-9.7-2.4-13.1c-1.6-3.1-4-5.5-6.9-7.2c-2.8-1.7-6.3-2.8-10.2-3.4
		c-3.9-0.6-8-0.8-12.2-0.8c-5.2,0-11,0.7-17.3,2.1c-3.4,0.7-6.9,1.7-10.8,3c0-1.6,0-15,0-16C210,46.1,216.1,44.9,216.1,44.9z"/>
	<path class="st0" d="M696,44.9c7.1-1.3,14.2-1.9,21.1-1.9c8.1,0,15.2,0.7,21.2,2c5.9,1.3,11.1,3.6,15.4,6.8
		c4.3,3.1,7.6,7.2,9.8,12.2c2.2,5,3.3,11.3,3.3,18.6c0,0,0,77.2,0,78.5c-1.2,0-16.7,0-18,0c0-1.3,0-32.4,0-32.4l0-30.5L727,99.9
		c-8,0.7-14.5,1.7-19.3,3c-5.7,1.6-10.4,4.2-13.9,7.7c-3.5,3.4-5.4,9.1-5.4,16c0,7.8,2.1,13.8,6.2,17.2c4.1,3.5,10.4,5.2,18.8,5.2
		c5.7,0,11.1-1,16.1-2.9c0,1.7,0,12.9,0,13.7c-2.8,1.2-5.5,2.1-8.4,2.9c-4.2,1.1-9.1,1.6-14.6,1.6c-10.2,0-19-3.4-26.1-10.3
		c-7.1-6.8-10.7-15.6-10.7-26.2c0-8.7,1.9-15.7,5.5-21.1c3.7-5.3,9-9.6,15.8-12.7c7-3.1,15.4-5.2,25.2-6.3
		c9.8-1.1,20.5-1.9,31.8-2.5l0.7,0v-3.7c0-3.9-0.6-9.7-2.4-13.1c-1.6-3.1-4-5.5-6.9-7.2c-2.8-1.7-6.3-2.8-10.3-3.4
		c-3.9-0.6-8-0.8-12.2-0.8c-5.2,0-11,0.7-17.3,2.1c-3.4,0.7-6.9,1.7-10.8,3c0-1.6,0-15,0-16C689.9,46.1,696,44.9,696,44.9z"/>
	<path class="st0" d="M944.5,59.2c10.1-11,23.7-16.6,40.3-16.6c15.3,0,27.3,4.6,35.6,13.6c8.3,9,12.5,22,12.5,38.6c0,0,0,8.7,0,9.9
		c-1.4,0-84.9,0-84.9,0v0.7c0,7.8,1.2,15.5,3.2,20.6c2.2,5.4,5.1,9.9,8.9,13.4c3.6,3.4,8,6,13,7.7c4.9,1.7,10.5,2.5,16.5,2.5
		c7.9,0,15.9-1.6,23.9-4.8c0,0,0.2-0.1,0.4-0.2c0,1.8,0,14.5,0,15.4c-0.4,0.1-1,0.3-1,0.3l-1.9,0.6c-6.7,1.9-13.9,2.8-21.2,2.8
		c-18.9,0-33.9-5.2-44.5-15.5c-10.6-10.3-15.9-25.1-15.9-44.1c0-4.5,0.3-8.9,0.9-13c1.2,0,18.4,0,18.4,0l66.7,0l0-0.7
		c-0.1-11-2.9-20.4-7.8-25.9c-5.1-5.8-13.1-8.7-23.6-8.7c-10.5,0-19,3.2-25.3,9.5c-2.4,2.4-3.7,5.1-4.3,6.6c-0.8,0-16.2,0-18.3,0
		C938.3,67.1,941.1,62.8,944.5,59.2z"/>
	<path class="st0" d="M380.5,145.9c4.7-2.7,7.6-8.6,7.6-15.3c0-4.7-1.2-7.8-4.2-10.9c-2.4-2.5-7.1-4.4-15.5-6.2l-10.8-2.2
		c-4.4-0.8-8.5-1.7-12-2.7c-10-2.7-17.1-6.6-21.2-11.7c-4.1-5.1-6.2-11.4-6.2-18.9c0-4.7,1-9.1,2.9-13.2c1.9-4.1,4.9-7.9,8.8-11.1
		c3.8-3.2,8.7-5.8,14.6-7.7c5.9-1.9,12.5-2.8,19.8-2.8c6.8,0,13.8,0.9,20.8,2.5c5.2,1.3,9.9,2.8,14.1,4.6c0,0.8,0,15.8,0,17.8
		c-4.4-2.9-9.5-5.4-15.1-7.5c-7.1-2.6-14.2-3.9-21.1-3.9c-7.8,0-13.8,1.4-18.4,4.2c-4.8,2.9-7.7,8.4-7.7,14.4c0,5,1.6,8.8,4.8,11.4
		c3,2.5,7.7,4.5,14.4,6.1l12,2.5l11,2.3c8.9,2,15.8,5.6,20.5,10.5c4.8,5,7.2,11.7,7.2,19.9c0,10.4-4.3,19-12.9,25.6
		c-8.6,6.7-20.5,10.1-35.4,10.1c-8.3,0-16.2-1-23.3-3.1c-5.6-1.6-10.7-3.4-15.1-5.4c0-0.8,0-16.7,0-18.9c5.6,3.9,11.6,7.2,18.1,9.5
		c7.5,2.8,14.9,4.2,21.8,4.2C368.7,150.1,375.6,148.7,380.5,145.9z M379.3,96.2L379.3,96.2C379.3,96.2,379.3,96.2,379.3,96.2z
		 M379.3,96.2L379.3,96.2C379.4,96.2,379.4,96.2,379.3,96.2L379.3,96.2z"/>
	<path class="st0" d="M490.9,145.9c4.7-2.7,7.6-8.6,7.6-15.3c0-4.7-1.2-7.8-4.2-10.9c-2.4-2.5-7.1-4.4-15.5-6.2l-10.8-2.2
		c-4.4-0.8-8.5-1.7-12.1-2.7c-10-2.7-17.1-6.6-21.2-11.7c-4.1-5.1-6.2-11.4-6.2-18.9c0-4.7,1-9.1,2.9-13.2c1.9-4.1,4.9-7.9,8.8-11.1
		c3.8-3.2,8.7-5.8,14.6-7.7c5.9-1.9,12.6-2.8,19.8-2.8c6.8,0,13.8,0.9,20.8,2.5c5.2,1.3,9.9,2.8,14.1,4.6c0,0.8,0,15.8,0,17.8
		c-4.4-2.9-9.5-5.4-15.1-7.5c-7.1-2.6-14.2-3.9-21.1-3.9c-7.8,0-13.8,1.4-18.4,4.2c-4.7,2.9-7.7,8.4-7.7,14.4c0,5,1.6,8.8,4.7,11.4
		c3,2.5,7.7,4.5,14.4,6.1l12,2.5c0,0,11,2.3,11,2.3c8.8,2,15.8,5.6,20.5,10.5c4.8,5,7.2,11.7,7.2,19.9c0,10.4-4.3,19-12.9,25.6
		c-8.6,6.7-20.5,10.1-35.4,10.1c-8.3,0-16.2-1-23.2-3.1c-5.6-1.6-10.7-3.4-15.1-5.4c0-0.8,0-16.8,0-18.9c5.6,3.9,11.7,7.2,18.1,9.5
		c7.5,2.8,14.9,4.2,21.8,4.2C479.1,150.1,486,148.7,490.9,145.9z M489.7,96.2L489.7,96.2C489.7,96.2,489.7,96.2,489.7,96.2z
		 M489.7,96.2L489.7,96.2C489.7,96.2,489.7,96.2,489.7,96.2L489.7,96.2z"/>
	<path class="st0" d="M12.1,144.7C4.1,134.8,0,120.6,0,102.5c0-9.9,1.4-18.6,4.2-25.8C7,69.5,10.8,63.2,15.6,58
		c4.4-4.8,9.8-8.7,16.2-11.4c6.3-2.7,12.7-4.1,18.9-4.1c5.6,0,11.2,1,16.7,3.1c3,1.1,8.8,3.6,14.1,7.8l1.1,0.9c0,0,0-7.4,0-8.5
		c1.2,0,16.7,0,18,0c0,1.4,0,102.8,0,102.8c0,19.5-4.4,34-13.2,43.1c-8.8,9.1-22.5,13.7-40.7,13.7c-6,0-12.1-0.4-17.9-1.3
		c0,0-2.6-0.4-3.7-0.6c0-1,0-14.7,0-16.3c1,0.3,2.5,0.7,2.5,0.7c6.9,1.8,14,2.7,21,2.7c6.7,0,12.4-0.8,16.8-2.4
		c4.4-1.6,8-3.9,10.5-6.8c2.5-2.7,4.3-6.1,5.3-10c1.1-4,1.5-10,1.5-14l0.1-34.1l0-33.3l0-1.2c0.6-19.3-8.6-30.4-26.1-31.3
		c0,0-2.5-0.1-2.5-0.1c-10.9,0-19.6,3.7-25.9,11.1c-6.1,7.1-9.5,19.1-9.5,33.6c0,13.8,2.5,25.1,7,31.8c4.7,6.9,12.6,10.4,23.5,10.4
		c4.6,0,9.5-0.9,14.3-2.4c0,1.5,0,13.8,0,14.7c-5.1,1.9-11.4,3-18.9,3C31,159.6,20.1,154.6,12.1,144.7z"/>
	<path class="st0" d="M565.4,57.9c5.1-4.3,11-8,17.3-10.9c6.4-2.9,13.2-4.4,20.5-4.4c13.7,0,24.5,5.3,32.1,15.7l0,0
		c7.7,10.5,11.6,25.2,11.6,43.8c0,9.4-1.3,18-4,25.7c-2.7,7.7-6.5,14.3-11.4,19.7c-4.5,5.1-9.8,9-15.9,11.8
		c-6.1,2.8-12.6,4.2-19.4,4.2c-4.5,0-8.8-0.4-12.8-1.2c0-1.1,0-14.5,0-15.9c3.1,0.5,6.2,0.7,9.4,0.7c11.1,0,19.9-3.8,26.1-11.3
		c6.2-7.5,9.3-18.7,9.3-33.2c0-14.1-2.5-24.9-7.3-31.9c-4.9-7.1-12.5-10.7-22.6-10.7c-4.9,0-9,0.6-13,1.9c-2.6,0.8-4.8,2-5.6,2.4
		l-0.3,0.2c-10.2,5.1-15.2,14.2-15.2,27.6v39.7l0,34.1c0,0,0,37.2,0,38.5c-1.2,0-16.7,0-18,0c0-1.4,0-157.1,0-158.5
		c1.2,0,16.7,0,18,0c0,1.2,0,13.1,0,13.1L565.4,57.9z M636.4,57.4L636.4,57.4L636.4,57.4L636.4,57.4z"/>
	<path class="st0" d="M824.6,57.9c5.1-4.3,11-8,17.3-10.9c6.4-2.9,13.2-4.4,20.4-4.4c13.7,0,24.5,5.3,32.2,15.7l0,0
		c7.7,10.5,11.6,25.2,11.6,43.8c0,9.4-1.4,18-4,25.7c-2.7,7.7-6.5,14.3-11.4,19.7c-4.5,5.1-9.8,9-15.9,11.8
		c-6.1,2.8-12.6,4.2-19.4,4.2c-4.5,0-8.8-0.4-12.8-1.2c0-1.1,0-14.5,0-15.9c3.1,0.5,6.2,0.7,9.4,0.7c11.1,0,19.9-3.8,26.1-11.3
		c6.2-7.5,9.3-18.7,9.3-33.2c0-14.1-2.5-24.9-7.3-31.9c-4.9-7.1-12.5-10.7-22.6-10.7c-4.9,0-9,0.6-13,1.9c-2.6,0.8-4.8,2-5.6,2.4
		l-0.3,0.1c-10.2,5.1-15.2,14.2-15.2,27.6v39.7l0,34.1c0,0,0,37.2,0,38.5c-1.2,0-16.7,0-18,0c0-1.4,0-157.1,0-158.5
		c1.2,0,16.7,0,18,0c0,1.2,0,13.1,0,13.1L824.6,57.9z M895.6,57.4L895.6,57.4L895.6,57.4L895.6,57.4z"/>
	<path class="st0" d="M1082.7,59.7c7.7-6.2,14.5-10.7,20.3-13.2c5.8-2.6,11.8-3.9,17.8-3.9c3.6,0,5.9,0.1,7.3,0.3
		c0,0,5.3,0.8,6.3,0.9c0,1.1,0,16,0,17.3c-0.2,0-0.4,0-0.4,0c-2.7-0.7-5.6-1.2-8.4-1.6c-2.8-0.3-6.1-0.5-9.7-0.5
		c-7.2,0-13.7,2.7-14.9,3.3c-2,0.9-4.3,2.5-5.8,3.6c-8.3,5.7-13.3,15.7-13.6,27.6c0,0,0,66.4,0,67.8c-1.2,0-16.7,0-18,0
		c0-1.4,0-114.1,0-115.4c1.2,0,16.7,0,18,0c0,1.2,0,14.8,0,14.8L1082.7,59.7z M1128.3,41.5C1128.3,41.5,1128.3,41.5,1128.3,41.5
		L1128.3,41.5L1128.3,41.5z"/>
</g>
</svg>
