<svg xmlns="http://www.w3.org/2000/svg" viewBox="0 0 312 63">
    <defs><style>.cls-1{fill:#fff;}</style></defs>
    <g class="cls-1">
        <path d="M208.29,42.7l-.19-1.34-.3-1.31-.41-1.27-.52-1.23-.64-1.19-.71-1.12-.82-1-.9-1-1-.9-1-.78-1.16-.71-1.19-.56-1.27-.45-1.31-.3v-.15l1.23-.71,1.08-.93,1-1,.86-1.23.67-1.31.56-1.38.41-1.42.26-1.46.08-1.38-.08-1.57-.15-1.49-.22-1.34-.37-1.27-.41-1.15-.52-1.12-.6-1-.71-.94-.75-.82-.82-.75-.86-.71-1-.6-1-.56-1.08-.49-1.08-.41L192.24,4l-1.16-.3-1.23-.26-1.27-.22L187.32,3,186,2.91,184.7,2.8l-1.34,0h-9.62v0h-2.26V60h17l1.34,0,1.38-.07,1.34-.15,1.34-.19,1.31-.26,1.27-.34,1.27-.41,1.2-.45,1.16-.56,1.08-.6,1-.63,1-.71.93-.82.82-.9.78-1,.67-1,.6-1.12.48-1.2.38-1.31.3-1.34.19-1.46,0-1.53ZM178.59,9.14h7l1.38.11,1.3.11,1.23.23,1.16.3,1.08.41,1,.52.9.63.79.79.63.93.56,1.08.37,1.27.26,1.42.07,1.64-.11,1.64L196,21.68,195.57,23,195,24.07l-.67.93-.78.78-.9.67-1,.52-1.12.41-1.16.3-1.27.23-1.34.15-1.38.07h-6.82Zm22.54,36-.26,1.38-.45,1.23-.56,1.12-.71,1-.82.82-.9.75-1,.6-1.08.49-1.19.41-1.23.34-1.27.22-1.31.15-1.3.07-1.34,0h-9.07V33.81h9.29l1.35.07,1.34.15,1.34.23,1.3.26,1.27.37,1.23.48,1.16.56,1,.71.93.78.78.93.67,1.08.48,1.19.3,1.38.11,1.53Z" fill-rule="evenodd"></path>
        <polygon points="7.13 53.56 37.34 53.56 37.34 60.05 0 60.05 0 2.76 7.13 2.76 7.13 53.56" fill-rule="evenodd"></polygon>
        <rect x="44" y="2.76" width="7.13" height="57.29"></rect>
        <rect x="265.85" y="2.76" width="7.13" height="57.29"></rect>
        <polygon points="109.12 11.42 109.12 2.76 108.35 2.76 106.67 2.76 106 2.76 102 2.76 102 45.09 59.97 0 59.97 60.05 67.09 60.05 67.09 18.58 109.12 62.81 109.12 11.42 109.12 11.42" fill-rule="evenodd"></polygon>
        <path d="M165.25,29.63l-.08-1.45L165,26.8l-.22-1.38-.26-1.34-.3-1.27-.37-1.23-.41-1.19L163,19.18l-.52-1.12L161.89,17l-.6-1-.67-1L160,14l-.75-.93-.78-.9-.82-.82-.86-.82-.9-.75-1-.71-1-.71-1-.63-1-.6-1-.56L149.69,6l-1.12-.52-1.16-.41-1.19-.41L145,4.33,143.76,4l-1.27-.3-1.27-.26-1.31-.19-1.31-.19-1.34-.15-1.35-.07-1.38-.08H117.28V60h17.07L135.7,60,137,59.9l1.34-.15,1.31-.15,1.31-.22,1.27-.22,1.23-.3,1.23-.3,1.19-.37,1.2-.37,1.16-.45,1.12-.49,1.08-.48,1-.52,1-.6,1-.6,1-.67.93-.71.9-.74.86-.75L158,51l.78-.86.75-.9.71-.93.63-1,.6-1,.6-1,.52-1.08.49-1.16.45-1.16.37-1.19.37-1.27.3-1.27.23-1.34.19-1.35.15-1.42.08-1.42,0-1.49ZM158.16,33,158,34.41l-.18,1.42-.26,1.34-.3,1.27-.37,1.2-.45,1.19L156,41.91l-.56,1-.64,1-.67.93-.71.89-.78.82-.82.78-.86.71-.89.67-1,.63-1,.56-1,.52-1.08.49-1.12.45-1.12.37-1.19.37-1.2.3-1.23.26L138.9,53l-1.27.19-1.31.15-1.31.12-1.34.07-9.27,0V9.28h7.92l1.34.07,1.34.08,1.31.11,1.31.15,1.27.19,1.23.22,1.23.26,1.2.34,1.19.33,1.12.41,1.12.41,1.08.48,1,.52,1,.6,1,.6.89.67.86.71.82.79.78.82.71.9.67.93.64,1,.56,1,.49,1.12.45,1.16.37,1.19.3,1.31.26,1.35L158,28.4l.11,1.49,0,1.53Z" fill-rule="evenodd"></path>
        <polygon points="277.04 28.6 302.36 2.76 311.69 2.76 285.9 28.55 312.18 60.05 302.51 60.05 277.04 28.6" fill-rule="evenodd"></polygon>
        <path d="M254.92,60h7.69L235.21.26,207.78,60h7.69l4-9h31.37ZM222.44,44.47l12.77-28.53L248,44.47Z" fill-rule="evenodd"></path>
    </g>
</svg>