<svg xmlns="http://www.w3.org/2000/svg" xmlns:xlink="http://www.w3.org/1999/xlink" viewBox="0 0 135.97 25.19">
    <title>Asset 3</title>
    <defs>
        <style>.cls-1{fill:white;}.cls-2{fill:white;}.cls-3{fill:white;}</style>
    </defs>
    <g id="Layer_2" data-name="Layer 2">
        <g id="Layer_1-2" data-name="Layer 1">
            <path class="cls-1"
                  d="M32.68,13c2,0,2.92,1.06,2.92,3.34v8.45h3.24V15.44c0-3.43-1.81-5.4-5-5.4a5,5,0,0,0-4.67,2.56l-.25.51V10.44H25.78V24.78H29V16.53A3.34,3.34,0,0,1,32.68,13Z"/>
            <path class="cls-1"
                  d="M106.69,13c2,0,2.92,1.06,2.92,3.34v8.45h3.24V15.44c0-3.43-1.81-5.4-4.95-5.4a5,5,0,0,0-4.68,2.56l-.24.51V10.44H99.79V24.78H103V16.53A3.35,3.35,0,0,1,106.69,13Z"/>
            <path class="cls-1"
                  d="M55.72,17.31c0-4.35-2.81-7.27-7-7.27s-7.27,3.14-7.27,7.64,3,7.51,7.62,7.51a7.67,7.67,0,0,0,6.11-2.68l-1.92-1.88a5.25,5.25,0,0,1-4.08,1.77,4.1,4.1,0,0,1-4.43-3.72l0-.15H55.65A10.21,10.21,0,0,0,55.72,17.31Zm-11-1a3.82,3.82,0,0,1,4-3.46,3.44,3.44,0,0,1,3.72,3.45Z"/>
            <path class="cls-1"
                  d="M74.51,13c1.83,0,2.68,1,2.68,3.29v8.5h3.25V15.42C80.44,12,78.69,10,75.66,10a5.15,5.15,0,0,0-4.88,2.76l-.12.29-.12-.3A4.28,4.28,0,0,0,66.28,10a4.86,4.86,0,0,0-4.51,2.54l-.24.49V10.44H58.34V24.78h3.24V16.51A3.25,3.25,0,0,1,65.07,13c1.83,0,2.68,1,2.68,3.29v8.5H71V16.51A3.27,3.27,0,0,1,74.51,13Z"/>
            <path class="cls-1"
                  d="M16.17,13c1.83,0,2.68,1,2.68,3.29v8.5h3.24V15.42C22.09,12,20.35,10,17.32,10a5.15,5.15,0,0,0-4.88,2.76l-.13.29-.11-.3A4.29,4.29,0,0,0,7.93,10a4.84,4.84,0,0,0-4.5,2.54l-.25.49V10.44H0V24.78H3.24V16.51A3.25,3.25,0,0,1,6.73,13c1.83,0,2.68,1,2.68,3.29v8.5h3.24V16.51A3.27,3.27,0,0,1,16.17,13Z"/>
            <path class="cls-1"
                  d="M90.25,10a7.32,7.32,0,0,0-7.56,7.58,7.56,7.56,0,1,0,15.12,0A7.32,7.32,0,0,0,90.25,10Zm0,12.22c-2.53,0-4.23-1.86-4.23-4.64S87.72,13,90.25,13s4.24,1.88,4.24,4.66S92.78,22.26,90.25,22.26Z"/>
            <polygon class="cls-1" points="116.7 9.86 116.7 24.78 119.94 24.78 119.94 12.19 116.7 9.86"/>
            <path class="cls-1"
                  d="M133.29,19.77a3.83,3.83,0,0,1-3.56,2.42c-2.55,0-4.2-1.82-4.2-4.64s1.65-4.63,4.2-4.63a3.78,3.78,0,0,1,3.56,2.39L136,13.83A6.66,6.66,0,0,0,129.53,10c-4.31,0-7.33,3.12-7.33,7.58s3,7.56,7.33,7.56a6.66,6.66,0,0,0,6.41-3.85Z"/>
            <polygon class="cls-2" points="123.43 4.48 123.43 9.31 116.73 4.49 123.43 4.48"/>
            <polygon class="cls-3" points="132.03 4.49 116.73 4.49 116.73 0 125.83 0 132.03 4.49"/>
        </g>
    </g>
</svg>